<svg width="45" height="45" viewBox="0 0 45 45" fill="none" xmlns="http://www.w3.org/2000/svg">
<path d="M41.5927 25.0167C41.1785 25.0167 40.7644 24.9546 40.3605 24.8924C39.7289 24.8096 39.1077 24.7061 38.4554 24.6025C38.1654 25.493 37.8652 26.3835 37.5649 27.2946C37.0368 27.1186 36.5398 26.9529 36.0428 26.7873C36.3327 25.9072 36.6019 25.0581 36.8608 24.2608C35.4216 23.681 34.0341 23.1322 32.6259 22.5627C32.1289 23.2875 31.6112 24.033 31.0831 24.7993C30.6379 24.4886 30.203 24.1884 29.7578 23.8881C30.2651 23.1426 30.7518 22.4385 31.2074 21.7654C29.9441 20.7921 28.712 19.8396 27.397 18.8352C26.8275 19.4564 26.2062 20.1295 25.6575 20.7197C25.2122 20.2951 24.8291 19.9431 24.4357 19.5703C25.0673 18.9387 25.6989 18.3071 26.2994 17.7066C25.3883 16.4848 24.4771 15.2733 23.5555 14.0411C22.8722 14.4967 22.1577 14.9627 21.4329 15.4493C21.1223 14.9937 20.8427 14.5589 20.5424 14.1136C21.319 13.5959 22.0749 13.0886 22.7583 12.6226C22.1888 11.1627 21.6504 9.77518 21.1016 8.35664C20.3043 8.60515 19.476 8.85365 18.6269 9.12286C18.4612 8.60514 18.3163 8.1185 18.1506 7.59043C19.0514 7.30051 19.9212 7.03129 20.7806 6.75173C20.6874 6.10976 20.5942 5.52992 20.5217 4.93973C20.4493 4.33918 20.4078 3.73863 20.3457 3.14844C16.9392 3.43836 12.0623 5.14682 8.26227 9.29889C5.40448 12.4155 3.72709 16.0913 3.21973 20.3262C3.60284 20.3676 3.94453 20.3883 4.28622 20.4297C4.62791 20.4712 4.9696 20.5229 5.31129 20.5747C5.67369 20.6265 6.12928 20.8336 6.35708 20.6886C6.59523 20.5436 6.62629 20.0466 6.74019 19.6946C6.88515 19.2701 7.03011 18.8352 7.18542 18.39C7.71349 18.566 8.18979 18.7213 8.69714 18.887C8.44864 19.6428 8.21049 20.3883 7.9827 21.0924C9.4323 21.6723 10.8508 22.2417 12.3108 22.8216C12.7353 22.2107 13.1909 21.548 13.6672 20.875C14.1228 21.1856 14.5473 21.4859 14.9925 21.7862C14.5473 22.4281 14.1228 23.0494 13.7293 23.6292C14.9718 24.5922 16.1936 25.5241 17.4672 26.5181C17.9849 25.9693 18.5337 25.3791 19.0204 24.8614C19.4345 25.2652 19.8176 25.6379 20.2422 26.0521C19.6934 26.6009 19.1343 27.1704 18.6165 27.7088C19.5381 28.941 20.47 30.2042 21.4226 31.4881C22.0231 31.0947 22.6547 30.6701 23.307 30.2456C23.6177 30.7116 23.8972 31.1361 24.1975 31.5813C23.4831 32.0576 22.8204 32.5028 22.1991 32.917C22.7479 34.3873 23.2863 35.8162 23.8351 37.2658C24.5703 37.038 25.3365 36.7999 26.1131 36.5617C26.2787 37.0898 26.4237 37.5764 26.5894 38.0942C25.7507 38.3634 24.9534 38.6119 24.1561 38.8604C24.2803 39.8958 24.4046 40.9002 24.5392 41.9563C25.2951 41.8321 26.0509 41.7492 26.7861 41.5732C33.3403 39.989 37.9687 36.0958 40.6712 29.9246C41.3028 28.4854 41.6755 26.9737 41.9344 25.4309C41.9862 25.1409 41.9033 25.0374 41.5927 25.027V25.0167Z" fill="white"/>
<path d="M41.7485 18.6246C40.2989 12.1325 36.5403 7.48339 30.5348 4.67738C27.9359 3.46592 25.161 2.95856 22.2928 2.98962C22.065 2.98962 21.9718 3.0621 21.9926 3.30025C22.0443 3.7869 22.0547 4.27356 22.1168 4.74986C22.1789 5.24686 22.2721 5.74386 22.355 6.28229C23.059 6.06485 23.701 5.86812 24.3844 5.66103C24.5501 6.1891 24.7054 6.68611 24.8607 7.19347C24.1359 7.42126 23.4525 7.6387 22.6656 7.8872C23.1626 9.19184 23.6389 10.4344 24.1359 11.7286C24.8089 11.2834 25.3784 10.9003 25.979 10.5068C26.2896 10.9728 26.5691 11.3973 26.8694 11.8425C26.2275 12.2774 25.6062 12.6916 24.9746 13.1161C25.7304 14.3586 26.5588 15.4976 27.6046 16.6159C28.1016 16.0774 28.5675 15.5701 28.9506 15.1559C29.3855 15.5287 29.779 15.86 30.2139 16.2328C29.6858 16.7505 29.1888 17.2164 28.6297 17.7755C29.7997 18.6764 30.949 19.5565 32.1294 20.4573C32.6057 19.7739 33.0199 19.1734 33.4548 18.5418C33.9103 18.8524 34.3349 19.1527 34.7697 19.4633C34.3659 20.0535 33.9828 20.6126 33.5479 21.2546C34.7283 21.6998 35.8466 22.1244 36.9649 22.5592C37.2858 22.6835 37.4412 22.6317 37.5343 22.2693C37.6793 21.7205 37.8864 21.1821 38.0728 20.6126C38.6112 20.7887 39.0978 20.9543 39.5948 21.12C39.3774 21.7827 39.1807 22.3936 38.9632 23.0459C39.0978 23.0769 39.2117 23.1184 39.3256 23.1287C40.1436 23.2323 40.972 23.3254 41.79 23.4393C42.0799 23.4808 42.1316 23.3669 42.1316 23.108C42.1627 21.5963 42.0695 20.0949 41.7382 18.6246H41.7485Z" fill="white"/>
<path d="M20.3671 40.0315C20.2015 39.5035 20.0462 39.0065 19.8908 38.4991C20.6881 38.2402 21.4543 38.0021 22.293 37.7329C21.8064 36.4075 21.3301 35.1443 20.8434 33.8086C20.0979 34.3056 19.4456 34.7405 18.7829 35.1754C18.4723 34.7094 18.1927 34.2849 17.8925 33.8397C18.6173 33.353 19.311 32.8871 20.0254 32.4108C19.2489 31.0958 18.3791 29.9154 17.2816 28.7246C16.7224 29.3563 16.2047 29.9465 15.7181 30.4849C15.2832 30.0707 14.9001 29.7187 14.517 29.3563C15.0761 28.7868 15.6352 28.2276 16.2151 27.6478C15.1589 26.6538 14.0303 25.7737 12.7774 25.0282C12.2908 25.7426 11.8145 26.426 11.3071 27.1612C10.8619 26.8505 10.4374 26.5606 9.98179 26.25C10.4477 25.5666 10.893 24.9143 11.4003 24.1791C10.075 23.651 8.8014 23.154 7.49676 22.6467C7.20684 23.5164 6.94799 24.293 6.67877 25.0903C6.15071 24.9143 5.66406 24.7486 5.1567 24.5829C5.4052 23.8167 5.64335 23.0919 5.9022 22.2946C4.95996 22.1704 4.05914 22.0461 3.09619 21.9219C3.09619 28.093 5.27059 33.208 9.82648 37.2255C13.5333 40.4871 17.9235 42.0403 22.935 42.0403C22.8211 41.1084 22.7176 40.249 22.614 39.3585C21.8271 39.607 21.123 39.8244 20.3775 40.0522L20.3671 40.0315Z" fill="white"/>
<path d="M22.4999 0C10.0747 0 0 10.0747 0 22.4999C0 34.925 10.0747 44.9997 22.4999 44.9997C34.925 44.9997 44.9997 34.925 44.9997 22.4999C44.9997 10.0747 34.925 0 22.4999 0ZM22.5931 43.7779C10.8616 43.7779 1.3357 34.2209 1.3357 22.4481C1.3357 10.727 10.9134 1.22181 22.6966 1.23216C34.3866 1.23216 43.8815 10.8202 43.8815 22.5931C43.8815 34.252 34.3038 43.7779 22.5827 43.7779H22.5931Z" fill="white"/>
</svg>
