<svg width="393" height="234" viewBox="0 0 393 234" fill="none" xmlns="http://www.w3.org/2000/svg">
<g clip-path="url(#clip0_2757_1284)">
<path d="M166.595 142.569C197.3 142.569 222.191 120.038 222.191 92.2494C222.191 64.4581 197.3 41.9297 166.595 41.9297C135.89 41.9297 111 64.4581 111 92.2494C111 120.038 135.89 142.569 166.595 142.569Z" fill="#1A278E"/>
<path d="M167.735 142.569C165.839 142.569 163.928 142.482 162.031 142.319C146.983 140.987 133.405 134.53 123.829 124.133C114.236 113.739 109.786 100.646 111.285 87.2644C114.384 59.6634 142.172 39.4272 173.257 42.1805C188.305 43.5123 201.884 49.9691 211.459 60.3662C221.053 70.7633 225.503 83.8531 224.004 97.2351C222.505 110.62 215.234 122.67 203.534 131.177C193.315 138.616 180.789 142.569 167.752 142.569H167.735ZM167.587 43.3965C139.701 43.3965 115.735 62.2403 112.9 87.4118C111.451 100.399 115.768 113.107 125.08 123.196C134.392 133.285 147.561 139.568 162.179 140.856C176.801 142.145 191.105 138.308 202.461 130.035C213.818 121.762 220.887 110.062 222.339 97.0745C223.79 84.0874 219.471 71.3766 210.159 61.2874C200.847 51.2009 187.677 44.9179 173.059 43.6308C171.213 43.4676 169.382 43.3807 167.572 43.3807L167.587 43.3965Z" fill="white"/>
<path d="M197.557 95.9135C196.882 95.9135 196.211 95.8246 195.554 95.7383C194.526 95.6206 193.518 95.4768 192.457 95.3304C191.985 96.5828 191.498 97.8325 191.011 99.1137C190.152 98.8653 189.344 98.6326 188.537 98.3999C189.008 97.1632 189.444 95.971 189.864 94.852C187.526 94.0362 185.273 93.2649 182.983 92.4649C182.175 93.4846 181.334 94.5304 180.475 95.6076C179.752 95.1709 179.044 94.75 178.321 94.3264C179.147 93.2806 179.937 92.2923 180.678 91.3459C178.624 89.9785 176.622 88.6398 174.486 87.2306C173.56 88.1012 172.55 89.0477 171.658 89.8765C170.935 89.2804 170.312 88.7862 169.673 88.2633C170.699 87.3744 171.727 86.4881 172.701 85.6436C171.222 83.9284 169.74 82.2264 168.243 80.4956C167.132 81.1361 165.971 81.7898 164.794 82.4748C164.289 81.8342 163.835 81.2224 163.345 80.5975C164.61 79.8707 165.838 79.1569 166.948 78.5033C166.022 76.4535 165.148 74.5031 164.256 72.5108C162.958 72.8611 161.612 73.2089 160.233 73.588C159.963 72.8611 159.728 72.1761 159.458 71.4336C160.922 71.0283 162.338 70.6492 163.732 70.2571C163.581 69.355 163.43 68.5393 163.312 67.7105C163.194 66.8686 163.128 66.0241 163.028 65.1953C157.489 65.6032 149.564 68.0033 143.39 73.8337C138.744 78.2131 136.019 83.3768 135.196 89.3248C135.816 89.3824 136.372 89.4111 136.929 89.4686C137.483 89.5288 138.039 89.5994 138.593 89.6726C139.183 89.7458 139.924 90.036 140.293 89.8321C140.68 89.6307 140.731 88.9327 140.916 88.4359C141.152 87.8398 141.388 87.2306 141.639 86.6057C142.498 86.8515 143.272 87.0711 144.095 87.3038C143.693 88.3653 143.305 89.4111 142.936 90.3994C145.29 91.2151 147.595 92.0152 149.969 92.8283C150.659 91.9707 151.4 91.04 152.174 90.0961C152.912 90.5301 153.602 90.9537 154.328 91.3746C153.602 92.2766 152.913 93.1499 152.274 93.963C154.292 95.3173 156.279 96.6246 158.348 98.0208C159.189 97.2521 160.081 96.4207 160.874 95.6939C161.546 96.2612 162.169 96.7867 162.858 97.3672C161.966 98.1384 161.058 98.9385 160.218 99.6941C161.715 101.425 163.227 103.2 164.776 105.004C165.753 104.45 166.779 103.854 167.84 103.258C168.342 103.911 168.799 104.507 169.286 105.135C168.125 105.804 167.048 106.429 166.037 107.01C166.93 109.075 167.804 111.083 168.696 113.12C169.891 112.798 171.137 112.463 172.399 112.129C172.668 112.871 172.904 113.556 173.173 114.283C171.809 114.66 170.514 115.01 169.22 115.358C169.422 116.814 169.622 118.223 169.843 119.708C171.071 119.533 172.299 119.415 173.494 119.17C184.144 116.945 191.667 111.475 196.059 102.808C197.085 100.784 197.69 98.6613 198.11 96.4939C198.195 96.0886 198.062 95.9422 197.557 95.9265V95.9135Z" fill="white"/>
<path d="M197.526 87.6285C195.261 78.3142 189.392 71.6436 180.01 67.6193C175.952 65.8809 171.617 65.1519 167.137 65.1973C166.783 65.1973 166.637 65.3015 166.669 65.6433C166.751 66.3402 166.765 67.0399 166.864 67.7235C166.96 68.4365 167.105 69.1495 167.236 69.9212C168.335 69.6088 169.338 69.3257 170.405 69.0293C170.664 69.7877 170.908 70.5007 171.149 71.227C170.018 71.5555 168.949 71.8679 167.722 72.2231C168.498 74.095 169.242 75.8788 170.018 77.7347C171.068 77.0965 171.957 76.5464 172.897 75.983C173.382 76.6506 173.818 77.2594 174.286 77.8976C173.283 78.5225 172.315 79.1153 171.327 79.7242C172.507 81.508 173.801 83.1423 175.434 84.7472C176.211 83.9727 176.94 83.2464 177.536 82.6509C178.217 83.1876 178.83 83.663 179.51 84.1971C178.685 84.9394 177.909 85.607 177.036 86.4108C178.865 87.7032 180.659 88.9663 182.502 90.2588C183.246 89.2761 183.894 88.4162 184.572 87.5083C185.284 87.9543 185.947 88.3869 186.627 88.8302C185.996 89.6793 185.397 90.4804 184.717 91.4017C186.56 92.0399 188.307 92.6488 190.055 93.2737C190.555 93.4526 190.799 93.3778 190.944 92.8571C191.171 92.0693 191.494 91.2976 191.784 90.4804C192.628 90.7341 193.386 90.9718 194.163 91.2095C193.822 92.1601 193.514 93.036 193.177 93.9706C193.386 94.016 193.564 94.0748 193.741 94.0908C195.02 94.2377 196.314 94.3712 197.59 94.5368C198.044 94.5955 198.125 94.4326 198.125 94.0614C198.174 91.8904 198.029 89.7381 197.512 87.6285H197.526Z" fill="white"/>
<path d="M162.593 116.986C162.33 116.273 162.082 115.599 161.837 114.911C163.101 114.56 164.318 114.238 165.646 113.875C164.876 112.077 164.12 110.367 163.346 108.556C162.165 109.23 161.132 109.82 160.078 110.407C159.587 109.777 159.142 109.202 158.666 108.599C159.815 107.939 160.916 107.308 162.05 106.663C160.819 104.882 159.44 103.284 157.698 101.67C156.809 102.525 155.988 103.324 155.218 104.053C154.527 103.493 153.918 103.016 153.313 102.525C154.199 101.753 155.085 100.996 156.006 100.21C154.329 98.8632 152.54 97.6704 150.552 96.6618C149.782 97.6301 149.026 98.5555 148.22 99.5516C147.514 99.1305 146.841 98.7371 146.118 98.3159C146.856 97.3905 147.564 96.5079 148.367 95.5119C146.265 94.7957 144.246 94.1225 142.176 93.434C141.715 94.6142 141.305 95.6657 140.877 96.745C140.041 96.5079 139.267 96.2835 138.464 96.0591C138.857 95.0202 139.235 94.0392 139.645 92.9574C138.151 92.7885 136.722 92.6221 135.196 92.4531C135.196 100.812 138.644 107.744 145.872 113.186C151.751 117.604 158.716 119.71 166.665 119.71C166.485 118.446 166.319 117.281 166.157 116.076C164.908 116.411 163.792 116.706 162.608 117.016L162.593 116.986Z" fill="white"/>
<path d="M166.665 61C146.968 61 131 75.0806 131 92.4498C131 109.816 146.968 123.9 166.665 123.9C186.359 123.9 202.33 109.816 202.33 92.4498C202.33 75.0806 186.359 61 166.665 61ZM166.812 122.193C148.216 122.193 133.115 108.833 133.115 92.377C133.115 75.9938 148.298 62.7067 166.975 62.7224C185.506 62.7224 200.557 76.1239 200.557 92.5799C200.557 108.877 185.374 122.193 166.795 122.193H166.812Z" fill="white"/>
<path d="M241.099 12.9595C241.885 12.6268 242.641 12.2938 243.413 11.9865C243.521 11.9482 243.686 11.9865 243.81 12.0251C246.975 12.9724 250.139 13.9325 253.307 14.8926C253.539 14.9567 253.719 14.9438 253.939 14.8543C264.41 10.1816 274.884 5.52172 285.37 0.861881C287.075 0.106603 288.891 -0.0598834 290.737 0.0170685C291.808 0.0682785 292.856 0.221897 293.845 0.631577C294.549 0.925966 295.111 1.33564 295.429 2.01397C295.759 2.69257 295.62 3.31997 295.305 3.93421C294.699 5.12491 293.722 6.00807 292.497 6.63546C291.081 7.3524 289.621 7.96693 288.164 8.61979C285.906 9.63111 283.636 10.6296 281.378 11.6409C281.24 11.705 281.09 11.8586 281.034 11.9865C278.364 18.8475 275.723 25.7239 273.068 32.5976C272.818 33.2384 272.391 33.6984 271.717 33.9805C270.481 34.5036 269.241 35.054 268.017 35.6044C267.822 35.6948 267.687 35.6181 267.631 35.4648C267.575 35.2868 267.534 35.0923 267.549 34.9143C267.99 30.9709 268.429 27.0412 268.882 23.0977C269.103 21.1397 269.338 19.1953 269.556 17.2354C269.556 17.133 269.571 17.0177 269.586 16.864C269.38 16.9536 269.2 17.0306 269.035 17.1072C266.972 18.029 264.92 18.9899 262.733 19.6663C259.786 20.5755 256.786 21.3451 253.692 21.6764C252.674 21.7914 251.64 21.8818 250.637 21.6381C250.277 21.5614 249.907 21.3971 249.63 21.1643C246.562 18.6695 243.825 15.8785 241.14 13.0364C241.128 13.0107 241.113 12.9852 241.072 12.9466L241.099 12.9595Z" fill="#1A278E"/>
<path d="M266.929 35.6061C266.805 35.6061 266.68 35.5824 266.57 35.5454C266.318 35.445 266.14 35.2601 266.042 35.0145C265.944 34.7292 265.902 34.4703 265.932 34.2352C266.374 30.4316 266.82 26.6412 267.277 22.8376L267.859 17.9241L267.47 18.0968C265.709 18.8491 263.889 19.6283 261.974 20.1962C258.408 21.2449 255.465 21.8761 252.716 22.1588C251.594 22.2697 250.495 22.3569 249.385 22.1112C248.886 21.9977 248.429 21.789 248.081 21.5169C244.916 19.0472 242.071 16.2571 239.462 13.6146L239.349 13.4665L238.975 12.8862L240.168 12.3428C240.78 12.0958 241.377 11.8489 241.988 11.6143C242.306 11.4907 242.627 11.5525 242.876 11.6267C246.068 12.5404 249.26 13.4665 252.452 14.3925C263.141 9.87337 273.702 5.37877 284.278 0.884168C285.903 0.19265 287.738 -0.0791526 290.027 0.0196357C291.33 0.0690298 292.441 0.291443 293.412 0.674181C294.356 1.04451 294.994 1.58783 295.371 2.32874C295.745 3.06966 295.689 3.84754 295.247 4.69966C294.593 5.92183 293.539 6.89757 292.123 7.57668C291.013 8.1076 289.872 8.58912 288.762 9.05823L284.709 10.787C283.432 11.3304 282.155 11.8737 280.894 12.417C278.215 19.034 275.534 25.6666 272.871 32.2833C272.55 33.0757 271.968 33.6436 271.149 33.9764C270.068 34.4096 268.999 34.8639 267.93 35.3209L267.416 35.5454C267.262 35.6061 267.111 35.6431 266.956 35.6431L266.929 35.6061ZM269.441 15.8865L269.358 17.0596C269.358 17.1584 269.358 17.2326 269.343 17.3065L268.663 22.9618C268.221 26.6914 267.776 30.4316 267.345 34.1613C268.414 33.7043 269.471 33.2606 270.552 32.8274C271.039 32.6293 271.357 32.3202 271.553 31.8395C274.231 25.2096 276.909 18.5797 279.587 11.9601C279.7 11.6761 279.976 11.4043 280.282 11.2686C281.559 10.7252 282.835 10.1819 284.1 9.63855L288.165 7.91001C289.264 7.45305 290.386 6.97153 291.455 6.45303C292.607 5.89728 293.468 5.11939 293.997 4.1315C294.273 3.60058 294.314 3.20541 294.106 2.79785C293.884 2.34115 293.498 2.01997 292.856 1.773C292.04 1.45207 291.122 1.27931 289.97 1.22992C287.904 1.14328 286.292 1.37811 284.89 1.98299C274.329 6.47759 263.752 10.9846 253.188 15.4792C252.799 15.6398 252.44 15.6644 252.036 15.5532C248.844 14.6271 245.652 13.701 242.46 12.7874C242.446 12.7874 242.431 12.7874 242.431 12.7874C241.973 12.9601 241.516 13.1455 241.056 13.3431C243.458 15.7632 246.11 18.3192 249.025 20.5924C249.203 20.7271 249.468 20.8513 249.747 20.912C250.635 21.1101 251.594 21.0362 252.576 20.9358C255.269 20.6532 258.034 20.0721 261.558 19.0234C263.39 18.4796 265.166 17.7141 266.888 16.9856L269.456 15.8989L269.441 15.8865Z" fill="white"/>
<path d="M215.896 48.2225C219.737 43.7664 231.831 34.1732 249.463 31.4492" stroke="#1A278E" stroke-linecap="round"/>
<path d="M238.975 46.123C242.681 43.9765 253.322 40.2934 266.248 42.7367" stroke="#1A278E" stroke-linecap="round"/>
<path d="M30.1649 192.83H33.7649V233.51H30.1649V192.83ZM13.2899 208.355H23.5049V211.415H13.2899V208.355ZM21.9749 193.775H25.5299V231.44H21.9749V193.775ZM0.734863 220.595H3.34486C9.68986 220.595 13.5149 220.415 18.0149 219.47L18.3749 222.575C13.7399 223.565 9.82486 223.745 3.34486 223.745H0.734863V220.595ZM0.734863 197.78H16.0349V200.84H4.42486V221.81H0.734863V197.78ZM70.1664 192.785H73.9014V233.555H70.1664V192.785ZM52.4364 195.935C58.4664 195.935 62.7864 201.47 62.7864 210.11C62.7864 218.795 58.4664 224.33 52.4364 224.33C46.4514 224.33 42.1314 218.795 42.1314 210.11C42.1314 201.47 46.4514 195.935 52.4364 195.935ZM52.4364 199.31C48.4764 199.31 45.6864 203.54 45.6864 210.11C45.6864 216.725 48.4764 221.045 52.4364 221.045C56.4414 221.045 59.1864 216.725 59.1864 210.11C59.1864 203.54 56.4414 199.31 52.4364 199.31ZM111.833 192.785H115.523V233.555H111.833V192.785ZM103.373 208.13H112.373V211.235H103.373V208.13ZM83.8879 220.685H86.9929C94.6429 220.685 99.4579 220.55 105.173 219.47L105.533 222.53C99.6829 223.565 94.7329 223.79 86.9929 223.79H83.8879V220.685ZM83.8879 196.52H102.698V199.625H87.5779V221.765H83.8879V196.52ZM86.6329 207.95H100.943V210.965H86.6329V207.95ZM151.279 196.655H154.609V197.87C154.609 204.755 147.274 209.57 138.949 210.83L137.554 207.815C144.754 206.87 151.279 202.82 151.279 197.87V196.655ZM152.854 196.655H156.139V197.87C156.139 202.82 162.709 206.87 169.909 207.815L168.469 210.83C160.189 209.57 152.854 204.755 152.854 197.87V196.655ZM138.679 194.855H168.784V197.87H138.679V194.855ZM135.304 213.755H172.159V216.815H135.304V213.755ZM152.134 215.645H155.869V225.005H152.134V215.645ZM139.984 229.55H168.064V232.61H139.984V229.55ZM139.984 221.09H143.674V230.72H139.984V221.09ZM206.265 192.785H210V233.555H206.265V192.785ZM179.04 196.25H182.73V207.005H194.475V196.25H198.21V223.745H179.04V196.25ZM182.73 209.975V220.685H194.475V209.975H182.73ZM246.521 213.17H250.256V220.28H246.521V213.17ZM230.006 211.865H266.771V214.88H230.006V211.865ZM248.366 219.155C257.096 219.155 262.316 221.72 262.316 226.31C262.316 230.855 257.096 233.42 248.366 233.42C239.636 233.42 234.416 230.855 234.416 226.31C234.416 221.72 239.636 219.155 248.366 219.155ZM248.366 222.035C242.021 222.035 238.196 223.565 238.196 226.31C238.196 229.01 242.021 230.54 248.366 230.54C254.756 230.54 258.536 229.01 258.536 226.31C258.536 223.565 254.756 222.035 248.366 222.035ZM245.981 196.16H249.311V197.375C249.311 203.945 241.841 208.355 233.426 209.39L232.076 206.42C239.366 205.655 245.981 202.01 245.981 197.375V196.16ZM247.556 196.16H250.841V197.375C250.841 202.01 257.456 205.655 264.746 206.42L263.396 209.39C254.981 208.355 247.556 203.945 247.556 197.375V196.16ZM233.381 194.675H263.486V197.69H233.381V194.675ZM301.012 192.83H304.792V214.655H301.012V192.83ZM278.557 216.68H282.247V221.63H301.102V216.68H304.792V232.97H278.557V216.68ZM282.247 224.6V229.955H301.102V224.6H282.247ZM282.967 194.765C289.132 194.765 293.542 198.59 293.542 204.125C293.542 209.705 289.132 213.53 282.967 213.53C276.802 213.53 272.347 209.705 272.347 204.125C272.347 198.59 276.802 194.765 282.967 194.765ZM282.967 197.87C278.917 197.87 275.992 200.435 275.992 204.125C275.992 207.815 278.917 210.38 282.967 210.38C287.017 210.38 289.942 207.815 289.942 204.125C289.942 200.435 287.017 197.87 282.967 197.87ZM342.409 192.83H346.144V233.51H342.409V192.83ZM315.409 196.79H319.099V221.99H315.409V196.79ZM315.409 219.785H318.739C324.904 219.785 331.339 219.335 338.224 217.895L338.674 221.09C331.609 222.53 325.174 223.025 318.739 223.025H315.409V219.785ZM381.735 192.785H385.515V233.555H381.735V192.785ZM384.615 208.85H392.175V212H384.615V208.85ZM355.95 220.28H359.145C366.66 220.28 371.925 220.01 378 218.885L378.405 222.035C372.15 223.205 366.795 223.43 359.145 223.43H355.95V220.28ZM355.95 196.745H374.85V199.805H359.64V221.675H355.95V196.745Z" fill="white"/>
</g>
<defs>
<clipPath id="clip0_2757_1284">
<rect width="393" height="234" fill="white"/>
</clipPath>
</defs>
</svg>
