<svg width="97" height="98" viewBox="0 0 97 98" fill="none" xmlns="http://www.w3.org/2000/svg">
<path d="M95.1333 48.5334C95.1333 74.7924 74.0517 96.0667 48.0662 96.0667C22.0808 96.0667 1 74.7924 1 48.5334C1 22.2718 22.0807 1 48.0662 1C74.0518 1 95.1333 22.2718 95.1333 48.5334Z" fill="#D9D9D9" stroke="white" stroke-width="2"/>
<path d="M51.49 74.0902C51.3271 74.1101 51.1629 74.1303 50.997 74.1512C50.8717 73.0511 50.7553 71.9867 50.6394 70.9017C51.6335 70.6263 52.6345 70.3472 53.6826 70.0487L54.1764 69.9081L54.0227 69.4182C53.8939 69.0076 53.7765 68.617 53.6565 68.218C53.5712 67.9341 53.4846 67.646 53.3917 67.3434L53.2496 66.8807L52.7825 67.0077C51.8351 67.2653 50.8982 67.5238 49.9916 67.7748C49.3583 66.0814 48.7346 64.4043 48.1008 62.6904C48.4914 62.4521 48.8937 62.2059 49.3082 61.9521C49.7269 61.6958 50.158 61.4318 50.602 61.1608L51.0483 60.8884L50.7562 60.4547C50.4203 59.956 50.1014 59.4782 49.7642 58.9728C49.6896 58.8611 49.6142 58.7481 49.5375 58.6332L49.2739 58.2385L48.8661 58.481C48.3162 58.8081 47.7722 59.1381 47.2439 59.4586C47.0133 59.5985 46.7857 59.7366 46.5619 59.8719C46.1978 59.3837 45.8357 58.8975 45.4754 58.4137C44.7243 57.4051 43.9809 56.4068 43.2425 55.4232C43.8899 54.8075 44.5735 54.1684 45.2466 53.5493L45.6368 53.1905L45.2558 52.8219C44.6689 52.2542 44.1383 51.7402 43.5659 51.1854L43.2169 50.8471L42.8688 51.1864C42.5429 51.5042 42.2041 51.8373 41.8605 52.1751C41.5577 52.4728 41.2513 52.774 40.9468 53.0716C40.0652 52.3895 39.1965 51.7247 38.3329 51.0639C37.7149 50.5909 37.0996 50.12 36.484 49.6462C36.9687 48.9927 37.482 48.3042 38.0176 47.5975L38.3382 47.1745L37.8969 46.8797C37.5424 46.6429 37.2064 46.4112 36.8639 46.175C36.6017 45.9942 36.3357 45.8107 36.0546 45.6203L35.6656 45.3567L35.3784 45.7287C34.8633 46.396 34.3636 47.0574 33.8889 47.6859C33.8062 47.7952 33.7244 47.9036 33.6433 48.0108C31.954 47.3332 30.3016 46.6639 28.6272 45.9856C28.5477 45.9534 28.4683 45.9212 28.3888 45.889C28.4135 45.8201 28.4383 45.751 28.4632 45.6817C28.7294 44.9396 29.0048 44.1718 29.2876 43.3949L29.4634 42.9121L28.976 42.7495C28.2668 42.5129 27.6 42.2898 26.8602 42.0402L26.406 41.887L26.2338 42.3342C26.0884 42.7115 25.9476 43.0851 25.8095 43.4513C25.7297 43.6632 25.6507 43.8726 25.5724 44.0789L25.5723 44.0789L25.5691 44.0878C25.5184 44.2293 25.4781 44.3793 25.4437 44.511C25.4384 44.5314 25.4333 44.5512 25.4282 44.5707C25.3986 44.6846 25.3726 44.7847 25.3432 44.879C25.3087 44.9895 25.2775 45.0649 25.2488 45.1144C25.2399 45.1298 25.2329 45.1398 25.2281 45.146C25.2197 45.147 25.2064 45.1478 25.1873 45.1475C25.1244 45.1465 25.037 45.1339 24.9171 45.1071C24.8262 45.0867 24.7342 45.0625 24.6317 45.0355C24.5983 45.0267 24.5638 45.0176 24.5278 45.0083C24.3904 44.9725 24.2351 44.9341 24.0819 44.9099C23.6019 44.8305 23.1167 44.7529 22.6318 44.6852L22.6288 44.6848C22.3719 44.6506 22.0868 44.6211 21.8011 44.5917C21.7459 44.586 21.6907 44.5803 21.6357 44.5746C22.5132 39.2108 24.8958 34.5742 28.8067 30.6524L28.807 30.6521C33.9867 25.4485 40.5039 23.2843 45.1867 22.8788C45.1984 23.0297 45.2099 23.1829 45.2214 23.3375C45.2577 23.8264 45.2951 24.3283 45.3472 24.8126L45.3473 24.8136C45.4093 25.3805 45.4863 25.9449 45.566 26.5291C45.5803 26.6342 45.5947 26.7399 45.6092 26.8465C45.0261 27.0138 44.4398 27.1787 43.8447 27.3461C43.3362 27.4891 42.8212 27.6339 42.2962 27.7836L41.8052 27.9237L41.9555 28.4116C42.0458 28.7045 42.1327 28.9937 42.2194 29.282C42.3404 29.6845 42.461 30.0854 42.5893 30.4928L42.7352 30.9559L43.2024 30.8236C43.9197 30.6206 44.6214 30.4294 45.3131 30.241C45.6343 30.1534 45.9534 30.0665 46.2708 29.9793C46.9042 31.6326 47.53 33.2639 48.1851 34.9599C47.3069 35.5061 46.3547 36.0916 45.3773 36.6864L44.9277 36.96L45.224 37.395C45.4177 37.6794 45.6048 37.9611 45.7947 38.2472L45.8272 38.2961C46.0277 38.5982 46.2318 38.9051 46.4472 39.2196L46.7165 39.6128L47.1221 39.3627C47.7324 38.9864 48.3333 38.6232 48.9254 38.2652C49.2057 38.0958 49.484 37.9275 49.7605 37.7596C50.1872 38.3264 50.6122 38.8898 51.0361 39.4517C51.6889 40.3171 52.3391 41.1791 52.9888 42.0443C52.6387 42.3668 52.2826 42.6942 51.9229 43.025C51.5013 43.4126 51.0748 43.8048 50.6469 44.1992L50.2518 44.5633L50.6433 44.9312C50.8827 45.1561 51.114 45.3707 51.3493 45.5889C51.6614 45.8784 51.9805 46.1743 52.3342 46.5092L52.6855 46.8418L53.0295 46.5017C53.7212 45.818 54.4928 45.0494 55.2243 44.3185C56.4847 45.2764 57.6943 46.2034 58.9078 47.1335C59.1982 47.356 59.4888 47.5787 59.7803 47.802C59.4619 48.2314 59.1345 48.6696 58.7983 49.1196C58.5294 49.4796 58.2548 49.8472 57.9746 50.2238L57.6622 50.6438L58.0961 50.9366C58.7136 51.3534 59.3181 51.7673 59.9352 52.1965L60.331 52.4718L60.6205 52.0862C60.9024 51.7109 61.1826 51.3389 61.4602 50.9703C61.8538 50.4477 62.2422 49.9321 62.6227 49.4238C63.5087 49.7847 64.398 50.1441 65.2911 50.5051C66.1058 50.8344 66.9237 51.165 67.7453 51.4992C67.6521 51.7588 67.5581 52.0216 67.4631 52.2875C67.2156 52.9796 66.9608 53.6924 66.6928 54.4243L66.5169 54.9049L67.0015 55.0696C67.1571 55.1225 67.3128 55.1754 67.469 55.2285C68.0111 55.4126 68.5592 55.5988 69.1339 55.7947L69.5969 55.9524L69.7648 55.493C69.955 54.9722 70.1464 54.4539 70.337 53.9375C70.5415 53.3836 70.7451 52.832 70.9455 52.2824C71.7123 52.4148 72.4601 52.5438 73.2206 52.6549L73.2452 52.659C73.6485 52.7254 74.0796 52.7964 74.5223 52.8347L74.5221 52.8479L75.0016 52.8735C74.603 54.905 74.0514 56.8706 73.1556 58.7293L73.1556 58.7293C69.2575 66.8199 62.764 71.8426 53.632 73.7686C52.9274 73.9141 52.2222 74.0005 51.49 74.0902Z" fill="white" stroke="white"/>
<path d="M71.9816 49.4781C72.2827 49.5163 72.5863 49.5537 72.8912 49.5914C73.6234 49.6817 74.3628 49.7729 75.0933 49.8767C75.1321 47.8477 75.0071 45.8524 74.5768 43.9053L74.4425 43.2975H74.4497C72.4409 34.8794 67.5403 28.846 59.797 25.1623L71.9816 49.4781ZM71.9816 49.4781C72.0835 49.1622 72.1838 48.8496 72.2845 48.5355C72.4078 48.1513 72.5317 47.7648 72.6603 47.3673L72.812 46.8983L72.3452 46.7399C72.109 46.6597 71.8733 46.5791 71.635 46.4975C71.2042 46.3501 70.7646 46.1996 70.2965 46.0436L69.8164 45.8835L69.6622 46.3655C69.5856 46.6048 69.5035 46.8477 69.4207 47.0927C69.2456 47.6108 69.0674 48.138 68.932 48.6593L68.931 48.6633C68.923 48.6949 68.9153 48.7216 68.908 48.7441C68.8871 48.7372 68.8631 48.7285 68.8357 48.7177L68.8356 48.7176C67.5154 48.1942 66.1963 47.6827 64.8228 47.1542C65.0982 46.742 65.3615 46.3498 65.6246 45.9578C65.7883 45.7141 65.9519 45.4704 66.1182 45.2221L66.3868 44.8213L65.9958 44.5386L65.9586 44.5117C65.3872 44.0985 64.8245 43.6916 64.2206 43.2722L63.804 42.9827L63.5206 43.4035C63.0311 44.1306 62.5596 44.8255 62.0419 45.585C60.7518 44.5809 59.4856 43.5922 58.2038 42.5884C58.5177 42.2737 58.8187 41.9782 59.1205 41.6819C59.388 41.4194 59.6562 41.1561 59.9347 40.8782L60.3143 40.4994L59.91 40.1472C59.6514 39.922 59.4063 39.7096 59.163 39.4987C58.8512 39.2286 58.5426 38.9611 58.2128 38.6729L57.8422 38.349L57.5125 38.7143C57.0964 39.1754 56.605 39.7187 56.0769 40.3024C54.9761 39.0523 54.059 37.7751 53.2162 36.4035C53.3092 36.34 53.4022 36.2766 53.4951 36.2131C54.1164 35.7892 54.7366 35.366 55.3726 34.9265L55.7757 34.648L55.5055 34.2394C55.2553 33.8611 55.017 33.4953 54.7715 33.1187C54.6224 32.8899 54.4706 32.657 54.312 32.4148L54.0361 31.9938L53.6169 32.2724C53.103 32.614 52.6048 32.9519 52.0797 33.3079C51.9426 33.4009 51.8036 33.4951 51.6621 33.591C51.1352 32.1928 50.622 30.8275 50.0946 29.4179C50.5631 29.2671 51.0094 29.123 51.4516 28.9803C51.815 28.8629 52.1757 28.7465 52.5436 28.628L53.0096 28.4778L52.8693 28.0087C52.6745 27.3578 52.4775 26.7181 52.2705 26.0458C52.2564 26.0002 52.2423 25.9545 52.2282 25.9085L52.081 25.4306L51.6031 25.5778C50.866 25.8049 50.1645 26.0238 49.4277 26.2554C49.4188 26.2004 49.4099 26.1458 49.4011 26.0916C49.3258 25.6288 49.2549 25.193 49.2011 24.7498L49.2011 24.7498L49.2005 24.7453C49.1602 24.4363 49.1367 24.1202 49.1142 23.7889C49.1117 23.7507 49.1091 23.7122 49.1065 23.6735C49.0896 23.4219 49.0721 23.1611 49.047 22.8993C52.7988 22.8701 56.4153 23.5557 59.7968 25.1622L71.9816 49.4781ZM75.198 49.9297C75.2001 49.9284 75.2023 49.9272 75.2044 49.9259C75.2064 49.9248 75.2084 49.9237 75.2104 49.9226C75.2381 49.9075 75.2604 49.9016 75.2712 49.8995C75.2761 49.8985 75.2788 49.8982 75.2788 49.8982C75.2788 49.8982 75.2759 49.8985 75.2693 49.8984C75.2568 49.8983 75.2356 49.897 75.2034 49.8924C75.2033 49.8924 75.2032 49.8924 75.2031 49.8923L75.1983 49.9258L75.1977 49.9299L75.198 49.9297Z" fill="white" stroke="white"/>
<path d="M44.4967 72.2163L44.505 72.2408L44.5157 72.2643L44.5288 72.2931L44.7076 72.6849L45.1216 72.5661C45.9769 72.3208 46.7917 72.0851 47.665 71.8297C47.7614 72.6018 47.8601 73.3666 47.9636 74.1639C41.351 74.0563 35.5642 72.067 30.659 68.0277C24.6019 63.0303 21.6439 56.7156 21.5051 49.1006C22.1483 49.1796 22.7755 49.2581 23.4046 49.3369C23.6748 49.3707 23.9454 49.4046 24.2178 49.4386C24.1182 49.7252 24.0198 50.0075 23.922 50.2881C23.7428 50.8026 23.5655 51.3112 23.3867 51.8294L23.2177 52.3189L23.7129 52.4706C24.1491 52.6042 24.5735 52.7371 25.009 52.8736C25.2742 52.9567 25.5435 53.041 25.8221 53.1276L26.2782 53.2693L26.4407 52.8203C26.7625 51.931 27.0726 51.0615 27.4089 50.1179C28.8516 50.644 30.2713 51.1635 31.7287 51.7053C31.1816 52.4503 30.6753 53.1427 30.1518 53.8621L29.8391 54.2918L30.287 54.5777C30.9193 54.9814 31.5063 55.3574 32.1216 55.7596L32.5169 56.0179L32.7974 55.638C32.9806 55.3899 33.1612 55.1459 33.34 54.9043C33.7582 54.3393 34.1667 53.7874 34.5769 53.2256C35.968 54.0323 37.2479 54.9575 38.4599 55.9869C37.7977 56.6068 37.1519 57.2134 36.5059 57.8303L36.1135 58.2049L36.5189 58.5655C36.7821 58.7996 37.0459 59.0301 37.3169 59.2669L37.3273 59.2761C37.6024 59.5165 37.8853 59.7638 38.1859 60.0307L38.5448 60.3495L38.878 60.0039C39.3399 59.5246 39.8237 59.0129 40.3312 58.4761C40.4501 58.3503 40.5703 58.2232 40.6919 58.0948C41.9001 59.3625 42.9 60.6284 43.8009 62.0034C42.9577 62.53 42.1282 63.0511 41.2684 63.5924L40.8179 63.8759L41.129 64.3077C41.437 64.7352 41.7296 65.1474 42.036 65.5789C42.1428 65.7294 42.2513 65.8822 42.3627 66.0388L42.6328 66.4186L43.0306 66.1758C43.8 65.7062 44.5564 65.2348 45.3835 64.7178C45.6569 65.4143 45.9321 66.1081 46.2067 66.8003C46.465 67.4514 46.7227 68.101 46.9779 68.7503C46.6936 68.8348 46.4134 68.9177 46.1355 69C45.4735 69.1958 44.8243 69.3879 44.1636 69.589L43.6762 69.7373L43.8336 70.2218C44.0489 70.8843 44.2666 71.5328 44.4967 72.2163Z" fill="white" stroke="white"/>
<path d="M48.3346 19.3605C31.9392 19.3452 18.5932 32.3744 18.5932 48.4621C18.5932 64.6107 31.8558 77.7116 48.1789 77.7195H48.1936C64.498 77.7117 77.8355 64.6573 77.8355 48.6578C77.8355 32.507 64.6107 19.3606 48.3346 19.3605ZM48.3346 19.3605C48.3345 19.3605 48.3345 19.3605 48.3344 19.3605V19.8605L48.3349 19.3605C48.3348 19.3605 48.3347 19.3605 48.3346 19.3605ZM17.7667 48.5324C17.7667 32.0632 31.3254 18.6992 48.0667 18.6992C64.8053 18.6992 78.3667 32.0632 78.3667 48.5324C78.3667 64.9986 64.8053 78.3659 48.0667 78.3659C31.3254 78.3659 17.7667 64.9987 17.7667 48.5324Z" fill="white" stroke="white"/>
</svg>
