<svg width="1920" height="1069" viewBox="0 0 1920 1069" fill="none" xmlns="http://www.w3.org/2000/svg">
<rect width="1920" height="1069" fill="#DFDFDF"/>
<path d="M960 571C1003.63 571 1039 535.627 1039 492C1039 448.369 1003.63 413 960 413C916.369 413 881 448.369 881 492C881 535.627 916.369 571 960 571Z" fill="#1A278E"/>
<path d="M961.128 571C958.45 571 955.751 570.864 953.073 570.607C931.82 568.516 912.643 558.38 899.119 542.057C885.57 525.738 879.285 505.183 881.402 484.174C885.779 440.841 925.025 409.071 968.927 413.394C990.18 415.485 1009.36 425.622 1022.88 441.945C1036.43 458.268 1042.71 478.818 1040.6 499.827C1038.48 520.841 1028.21 539.759 1011.69 553.115C997.256 564.793 979.564 571 961.153 571H961.128ZM960.918 415.303C921.535 415.303 887.687 444.887 883.683 484.405C881.637 504.795 887.733 524.746 900.885 540.585C914.037 556.425 932.636 566.289 953.282 568.31C973.932 570.335 994.134 564.31 1010.17 551.321C1026.21 538.333 1036.2 519.965 1038.25 499.575C1040.3 479.186 1034.2 459.23 1021.04 443.391C1007.89 427.555 989.293 417.691 968.647 415.671C966.04 415.414 963.454 415.278 960.897 415.278L960.918 415.303Z" fill="#DFDFDF"/>
<path d="M1003.18 497.898C1002.23 497.898 1001.28 497.759 1000.35 497.624C998.898 497.441 997.473 497.217 995.972 496.988C995.305 498.941 994.616 500.89 993.927 502.888C992.713 502.5 991.57 502.137 990.428 501.775C991.096 499.846 991.712 497.987 992.306 496.242C989 494.97 985.813 493.768 982.575 492.52C981.433 494.11 980.244 495.741 979.029 497.421C978.007 496.74 977.006 496.083 975.983 495.423C977.151 493.792 978.268 492.251 979.316 490.776C976.411 488.643 973.58 486.556 970.56 484.359C969.251 485.716 967.822 487.192 966.56 488.484C965.538 487.555 964.657 486.784 963.754 485.969C965.204 484.583 966.659 483.201 968.036 481.884C965.944 479.21 963.848 476.556 961.731 473.857C960.161 474.856 958.519 475.875 956.855 476.943C956.14 475.944 955.499 474.99 954.806 474.016C956.594 472.883 958.33 471.77 959.9 470.751C958.591 467.554 957.355 464.513 956.093 461.407C954.258 461.953 952.355 462.495 950.404 463.086C950.024 461.953 949.69 460.885 949.309 459.727C951.38 459.095 953.381 458.504 955.353 457.893C955.139 456.486 954.926 455.214 954.759 453.922C954.592 452.609 954.498 451.292 954.357 450C946.525 450.636 935.318 454.378 926.588 463.47C920.017 470.298 916.163 478.35 915 487.624C915.877 487.714 916.664 487.759 917.451 487.848C918.234 487.942 919.021 488.052 919.804 488.166C920.638 488.281 921.686 488.733 922.207 488.415C922.755 488.101 922.828 487.013 923.089 486.238C923.422 485.309 923.756 484.359 924.111 483.384C925.326 483.768 926.421 484.11 927.584 484.473C927.015 486.128 926.468 487.759 925.946 489.3C929.274 490.572 932.533 491.819 935.891 493.087C936.866 491.75 937.914 490.299 939.009 488.827C940.053 489.504 941.028 490.164 942.055 490.82C941.028 492.227 940.053 493.588 939.15 494.856C942.003 496.968 944.814 499.006 947.74 501.183C948.929 499.985 950.191 498.689 951.311 497.555C952.261 498.44 953.142 499.259 954.117 500.164C952.855 501.367 951.572 502.614 950.383 503.793C952.5 506.491 954.639 509.259 956.829 512.072C958.211 511.208 959.661 510.279 961.162 509.349C961.872 510.368 962.518 511.298 963.207 512.276C961.564 513.32 960.041 514.294 958.613 515.199C959.875 518.42 961.111 521.551 962.373 524.727C964.062 524.225 965.825 523.703 967.608 523.182C967.989 524.339 968.323 525.407 968.703 526.541C966.774 527.128 964.943 527.674 963.113 528.216C963.399 530.487 963.682 532.684 963.994 535C965.73 534.727 967.467 534.543 969.157 534.16C984.218 530.691 994.856 522.162 1001.07 508.648C1002.52 505.493 1003.37 502.182 1003.97 498.803C1004.09 498.171 1003.9 497.942 1003.18 497.918V497.898Z" fill="#DFDFDF"/>
<path d="M1003.15 484.391C999.983 470.112 991.777 459.886 978.659 453.716C972.985 451.051 966.924 449.933 960.66 450.003C960.165 450.003 959.961 450.163 960.006 450.687C960.12 451.755 960.14 452.828 960.278 453.876C960.413 454.969 960.616 456.062 960.799 457.245C962.335 456.766 963.738 456.332 965.229 455.878C965.591 457.04 965.933 458.133 966.27 459.247C964.689 459.75 963.193 460.229 961.477 460.774C962.563 463.644 963.603 466.378 964.689 469.224C966.156 468.245 967.4 467.402 968.713 466.538C969.392 467.562 970.001 468.495 970.656 469.473C969.254 470.431 967.9 471.34 966.518 472.274C968.168 475.008 969.977 477.514 972.261 479.974C973.347 478.787 974.367 477.673 975.2 476.76C976.151 477.583 977.009 478.312 977.96 479.131C976.806 480.269 975.721 481.292 974.501 482.524C977.058 484.506 979.566 486.442 982.143 488.424C983.184 486.917 984.09 485.599 985.037 484.207C986.033 484.891 986.96 485.554 987.911 486.234C987.029 487.535 986.192 488.763 985.24 490.176C987.817 491.154 990.26 492.088 992.703 493.046C993.403 493.32 993.744 493.205 993.947 492.407C994.264 491.199 994.715 490.016 995.122 488.763C996.301 489.152 997.362 489.517 998.447 489.881C997.971 491.339 997.54 492.681 997.069 494.114C997.362 494.184 997.61 494.274 997.858 494.298C999.646 494.524 1001.45 494.728 1003.24 494.982C1003.87 495.072 1003.99 494.822 1003.99 494.253C1004.06 490.925 1003.85 487.625 1003.13 484.391H1003.15Z" fill="#DFDFDF"/>
<path d="M954.178 530.803C953.802 529.704 953.447 528.666 953.097 527.606C954.904 527.066 956.643 526.568 958.543 526.009C957.441 523.238 956.361 520.604 955.254 517.814C953.565 518.851 952.088 519.76 950.58 520.666C949.879 519.694 949.242 518.808 948.562 517.88C950.205 516.862 951.779 515.89 953.401 514.896C951.64 512.152 949.668 509.689 947.177 507.202C945.906 508.519 944.733 509.751 943.631 510.874C942.643 510.011 941.773 509.277 940.907 508.519C942.174 507.33 943.441 506.165 944.758 504.952C942.36 502.877 939.801 501.039 936.96 499.485C935.858 500.977 934.777 502.403 933.624 503.938C932.615 503.289 931.652 502.683 930.618 502.034C931.673 500.608 932.687 499.248 933.835 497.713C930.829 496.61 927.941 495.572 924.981 494.512C924.323 496.33 923.736 497.95 923.123 499.613C921.929 499.248 920.822 498.902 919.674 498.557C920.235 496.956 920.776 495.444 921.363 493.777C919.226 493.517 917.183 493.26 915 493C915 505.881 919.932 516.563 930.267 524.948C938.674 531.755 948.634 535 960 535C959.742 533.053 959.506 531.258 959.274 529.401C957.488 529.918 955.892 530.372 954.199 530.85L954.178 530.803Z" fill="#DFDFDF"/>
<path d="M959.5 443C931.61 443 909 465.162 909 492.5C909 519.834 931.61 542 959.5 542C987.386 542 1010 519.834 1010 492.5C1010 465.162 987.386 443 959.5 443ZM959.709 539.314C933.377 539.314 911.995 518.286 911.995 492.385C911.995 466.599 933.494 445.686 959.939 445.711C986.179 445.711 1007.49 466.804 1007.49 492.705C1007.49 518.356 985.991 539.314 959.684 539.314H959.709Z" fill="#DFDFDF"/>
<path d="M1066.04 387.543C1067.15 387.067 1068.21 386.591 1069.3 386.151C1069.46 386.096 1069.69 386.151 1069.86 386.206C1074.33 387.562 1078.8 388.935 1083.27 390.309C1083.6 390.401 1083.85 390.382 1084.16 390.254C1098.95 383.568 1113.73 376.901 1128.53 370.233C1130.94 369.153 1133.5 368.914 1136.11 369.024C1137.62 369.098 1139.1 369.318 1140.5 369.904C1141.49 370.325 1142.28 370.911 1142.73 371.882C1143.2 372.853 1143 373.75 1142.56 374.629C1141.7 376.333 1140.32 377.597 1138.59 378.494C1136.59 379.52 1134.53 380.399 1132.48 381.334C1129.29 382.781 1126.09 384.209 1122.9 385.656C1122.7 385.748 1122.49 385.968 1122.41 386.151C1118.64 395.968 1114.91 405.807 1111.17 415.642C1110.81 416.559 1110.21 417.217 1109.26 417.621C1107.51 418.369 1105.76 419.157 1104.04 419.945C1103.76 420.074 1103.57 419.964 1103.49 419.745C1103.41 419.49 1103.35 419.212 1103.38 418.957C1104 413.315 1104.62 407.692 1105.26 402.049C1105.57 399.248 1105.9 396.466 1106.21 393.661C1106.21 393.515 1106.23 393.35 1106.25 393.13C1105.96 393.258 1105.71 393.368 1105.47 393.478C1102.56 394.797 1099.66 396.172 1096.58 397.14C1092.42 398.441 1088.18 399.542 1083.81 400.016C1082.38 400.18 1080.92 400.31 1079.5 399.961C1078.99 399.851 1078.47 399.616 1078.08 399.283C1073.75 395.713 1069.89 391.72 1066.1 387.653C1066.08 387.616 1066.06 387.58 1066 387.525L1066.04 387.543Z" fill="#1A278E"/>
<path d="M1102.48 419.947C1102.31 419.947 1102.13 419.913 1101.97 419.86C1101.62 419.717 1101.37 419.452 1101.23 419.1C1101.09 418.692 1101.03 418.322 1101.07 417.986C1101.7 412.543 1102.33 407.12 1102.97 401.677L1103.79 394.647L1103.24 394.894C1100.76 395.97 1098.19 397.085 1095.48 397.898C1090.45 399.398 1086.29 400.302 1082.41 400.706C1080.82 400.865 1079.27 400.989 1077.7 400.638C1077 400.475 1076.35 400.177 1075.86 399.788C1071.39 396.254 1067.37 392.261 1063.69 388.481L1063.53 388.268L1063 387.438L1064.69 386.661C1065.55 386.307 1066.39 385.954 1067.26 385.618C1067.71 385.441 1068.16 385.53 1068.51 385.636C1073.02 386.943 1077.53 388.269 1082.03 389.594C1097.13 383.127 1112.05 376.696 1126.98 370.265C1129.28 369.276 1131.87 368.887 1135.1 369.028C1136.94 369.099 1138.51 369.417 1139.88 369.965C1141.22 370.495 1142.12 371.272 1142.65 372.332C1143.18 373.392 1143.1 374.505 1142.47 375.725C1141.55 377.473 1140.06 378.869 1138.06 379.841C1136.49 380.601 1134.88 381.29 1133.32 381.961L1127.59 384.435C1125.79 385.212 1123.99 385.989 1122.2 386.767C1118.42 396.235 1114.63 405.725 1110.87 415.193C1110.42 416.326 1109.6 417.139 1108.44 417.615C1106.91 418.235 1105.4 418.885 1103.89 419.539L1103.17 419.86C1102.95 419.947 1102.74 420 1102.52 420L1102.48 419.947ZM1106.03 391.731L1105.91 393.41C1105.91 393.551 1105.91 393.657 1105.89 393.763L1104.93 401.855C1104.31 407.191 1103.68 412.543 1103.07 417.88C1104.58 417.226 1106.07 416.591 1107.6 415.971C1108.28 415.688 1108.73 415.245 1109.01 414.558C1112.79 405.071 1116.58 395.585 1120.36 386.113C1120.52 385.707 1120.91 385.318 1121.34 385.124C1123.14 384.346 1124.95 383.569 1126.73 382.791L1132.47 380.318C1134.02 379.664 1135.61 378.975 1137.12 378.233C1138.75 377.438 1139.96 376.325 1140.71 374.912C1141.1 374.152 1141.16 373.586 1140.86 373.003C1140.55 372.35 1140 371.89 1139.1 371.537C1137.95 371.078 1136.65 370.831 1135.02 370.76C1132.1 370.636 1129.83 370.972 1127.85 371.837C1112.93 378.268 1097.99 384.717 1083.07 391.148C1082.52 391.378 1082.02 391.413 1081.45 391.254C1076.94 389.929 1072.43 388.604 1067.92 387.297C1067.9 387.297 1067.88 387.297 1067.88 387.297C1067.24 387.544 1066.59 387.809 1065.94 388.092C1069.33 391.555 1073.08 395.212 1077.19 398.465C1077.45 398.657 1077.82 398.835 1078.21 398.922C1079.47 399.205 1080.82 399.1 1082.21 398.956C1086.01 398.552 1089.92 397.72 1094.9 396.22C1097.48 395.442 1099.99 394.346 1102.42 393.304L1106.05 391.749L1106.03 391.731Z" fill="#DFDFDF"/>
<path d="M1102 379.581C1101.38 379.793 1100.83 379.974 1100.27 380.156C1096.49 381.41 1092.7 382.65 1088.95 383.919C1088.6 384.04 1088.37 384.025 1088.04 383.874C1083.94 381.984 1079.82 380.11 1075.69 378.236C1075.52 378.16 1075.36 378.085 1075.23 377.979C1074.88 377.722 1074.93 377.314 1075.37 377.163C1077.32 376.452 1079.24 375.711 1081.25 375.122C1081.93 374.925 1082.94 374.986 1083.69 375.167C1089.65 376.573 1095.61 378.024 1101.55 379.46C1101.68 379.49 1101.79 379.536 1102 379.596V379.581Z" fill="#1A278E"/>
<path d="M1087.92 387C1087.6 387 1087.29 386.914 1086.97 386.724C1084.25 385.101 1081.51 383.497 1078.79 381.891L1076.05 380.286C1075.88 380.182 1075.65 380.044 1075.44 379.855C1075.1 379.509 1074.93 379.026 1075.03 378.577C1075.12 378.146 1075.41 377.783 1075.84 377.576L1076.86 377.093C1078.22 376.437 1079.64 375.764 1081.11 375.212C1082.23 374.78 1083.55 375.125 1083.93 375.229C1088.01 376.472 1092.09 377.732 1096.18 379.009L1099.75 380.131C1099.75 380.131 1099.94 380.2 1100.06 380.234L1102 380.994L1098.71 382.53L1097.29 383.134C1094.42 384.359 1091.57 385.585 1088.69 386.828C1088.43 386.948 1088.16 387 1087.92 387ZM1077.18 378.871L1079.83 380.424C1082.53 382.029 1085.25 383.617 1087.96 385.222C1090.83 383.98 1093.66 382.771 1096.5 381.563L1097.37 381.184L1095.57 380.631C1091.51 379.354 1087.43 378.094 1083.34 376.851C1082.8 376.696 1082.17 376.662 1081.85 376.782C1080.47 377.3 1079.09 377.956 1077.75 378.594L1077.16 378.871H1077.18Z" fill="#DFDFDF"/>
<path d="M1030 437C1035.38 430.89 1052.31 417.735 1077 414" stroke="#1A278E" stroke-linecap="round"/>
<path d="M1063 434C1068.16 431.441 1082.99 427.049 1101 429.962" stroke="#1A278E" stroke-linecap="round"/>
</svg>
