<svg width="53" height="54" viewBox="0 0 53 54" fill="none" xmlns="http://www.w3.org/2000/svg">
<g clip-path="url(#clip0_3392_1494)">
<path d="M45.5927 29.0167C45.1785 29.0167 44.7644 28.9546 44.3605 28.8924C43.7289 28.8096 43.1077 28.7061 42.4554 28.6025C42.1654 29.493 41.8652 30.3835 41.5649 31.2946C41.0368 31.1186 40.5398 30.9529 40.0428 30.7873C40.3327 29.9072 40.6019 29.0581 40.8608 28.2608C39.4216 27.681 38.0341 27.1322 36.6259 26.5627C36.1289 27.2875 35.6112 28.033 35.0831 28.7993C34.6379 28.4886 34.203 28.1884 33.7578 27.8881C34.2651 27.1426 34.7518 26.4385 35.2074 25.7654C33.9441 24.7921 32.712 23.8396 31.397 22.8352C30.8275 23.4564 30.2062 24.1295 29.6575 24.7197C29.2122 24.2951 28.8291 23.9431 28.4357 23.5703C29.0673 22.9387 29.6989 22.3071 30.2994 21.7066C29.3883 20.4848 28.4771 19.2733 27.5555 18.0411C26.8722 18.4967 26.1577 18.9627 25.4329 19.4493C25.1223 18.9937 24.8427 18.5589 24.5424 18.1136C25.319 17.5959 26.0749 17.0886 26.7583 16.6226C26.1888 15.1627 25.6504 13.7752 25.1016 12.3566C24.3043 12.6051 23.476 12.8536 22.6269 13.1229C22.4612 12.6051 22.3163 12.1185 22.1506 11.5904C23.0514 11.3005 23.9212 11.0313 24.7806 10.7517C24.6874 10.1098 24.5942 9.52992 24.5217 8.93973C24.4493 8.33918 24.4078 7.73863 24.3457 7.14844C20.9392 7.43836 16.0623 9.14682 12.2623 13.2989C9.40448 16.4155 7.72709 20.0913 7.21973 24.3262C7.60284 24.3676 7.94453 24.3883 8.28622 24.4297C8.62791 24.4712 8.9696 24.5229 9.31129 24.5747C9.67369 24.6265 10.1293 24.8336 10.3571 24.6886C10.5952 24.5436 10.6263 24.0466 10.7402 23.6946C10.8851 23.2701 11.0301 22.8352 11.1854 22.39C11.7135 22.566 12.1898 22.7213 12.6971 22.887C12.4486 23.6428 12.2105 24.3883 11.9827 25.0924C13.4323 25.6723 14.8508 26.2417 16.3108 26.8216C16.7353 26.2107 17.1909 25.548 17.6672 24.875C18.1228 25.1856 18.5473 25.4859 18.9925 25.7862C18.5473 26.4281 18.1228 27.0494 17.7293 27.6292C18.9718 28.5922 20.1936 29.5241 21.4672 30.5181C21.9849 29.9693 22.5337 29.3791 23.0204 28.8614C23.4345 29.2652 23.8176 29.6379 24.2422 30.0521C23.6934 30.6009 23.1343 31.1704 22.6165 31.7088C23.5381 32.941 24.47 34.2042 25.4226 35.4881C26.0231 35.0947 26.6547 34.6701 27.307 34.2456C27.6177 34.7116 27.8972 35.1361 28.1975 35.5813C27.4831 36.0576 26.8204 36.5028 26.1991 36.917C26.7479 38.3873 27.2863 39.8162 27.8351 41.2658C28.5703 41.038 29.3365 40.7999 30.1131 40.5617C30.2787 41.0898 30.4237 41.5764 30.5894 42.0942C29.7507 42.3634 28.9534 42.6119 28.1561 42.8604C28.2803 43.8958 28.4046 44.9002 28.5392 45.9563C29.2951 45.8321 30.0509 45.7492 30.7861 45.5732C37.3403 43.989 41.9687 40.0958 44.6712 33.9246C45.3028 32.4854 45.6755 30.9737 45.9344 29.4309C45.9862 29.1409 45.9033 29.0374 45.5927 29.027V29.0167Z" fill="white"/>
<path d="M45.7485 22.6246C44.2989 16.1325 40.5403 11.4834 34.5348 8.67738C31.9359 7.46592 29.161 6.95856 26.2928 6.98962C26.065 6.98962 25.9718 7.0621 25.9926 7.30025C26.0443 7.7869 26.0547 8.27356 26.1168 8.74986C26.1789 9.24686 26.2721 9.74386 26.355 10.2823C27.059 10.0648 27.701 9.86812 28.3844 9.66103C28.5501 10.1891 28.7054 10.6861 28.8607 11.1935C28.1359 11.4213 27.4525 11.6387 26.6656 11.8872C27.1626 13.1918 27.6389 14.4344 28.1359 15.7286C28.8089 15.2834 29.3784 14.9003 29.979 14.5068C30.2896 14.9728 30.5691 15.3973 30.8694 15.8425C30.2275 16.2774 29.6062 16.6916 28.9746 17.1161C29.7304 18.3586 30.5588 19.4976 31.6046 20.6159C32.1016 20.0774 32.5675 19.5701 32.9506 19.1559C33.3855 19.5287 33.779 19.86 34.2139 20.2328C33.6858 20.7505 33.1888 21.2164 32.6297 21.7755C33.7997 22.6764 34.949 23.5565 36.1294 24.4573C36.6057 23.7739 37.0199 23.1734 37.4548 22.5418C37.9103 22.8524 38.3349 23.1527 38.7697 23.4633C38.3659 24.0535 37.9828 24.6126 37.5479 25.2546C38.7283 25.6998 39.8466 26.1244 40.9649 26.5592C41.2858 26.6835 41.4412 26.6317 41.5343 26.2693C41.6793 25.7205 41.8864 25.1821 42.0728 24.6126C42.6112 24.7887 43.0978 24.9543 43.5948 25.12C43.3774 25.7827 43.1807 26.3936 42.9632 27.0459C43.0978 27.0769 43.2117 27.1184 43.3256 27.1287C44.1436 27.2323 44.972 27.3254 45.79 27.4393C46.0799 27.4808 46.1316 27.3669 46.1316 27.108C46.1627 25.5963 46.0695 24.0949 45.7382 22.6246H45.7485Z" fill="white"/>
<path d="M24.3671 44.0315C24.2015 43.5035 24.0462 43.0065 23.8908 42.4991C24.6881 42.2402 25.4543 42.0021 26.293 41.7329C25.8064 40.4075 25.3301 39.1443 24.8434 37.8086C24.0979 38.3056 23.4456 38.7405 22.7829 39.1754C22.4723 38.7094 22.1927 38.2849 21.8925 37.8397C22.6173 37.353 23.311 36.8871 24.0254 36.4108C23.2489 35.0958 22.3791 33.9154 21.2816 32.7246C20.7224 33.3563 20.2047 33.9465 19.7181 34.4849C19.2832 34.0707 18.9001 33.7187 18.517 33.3563C19.0761 32.7868 19.6352 32.2276 20.2151 31.6478C19.1589 30.6538 18.0303 29.7737 16.7774 29.0282C16.2908 29.7426 15.8145 30.426 15.3071 31.1612C14.8619 30.8505 14.4374 30.5606 13.9818 30.25C14.4477 29.5666 14.893 28.9143 15.4003 28.1791C14.075 27.651 12.8014 27.154 11.4968 26.6467C11.2068 27.5164 10.948 28.293 10.6788 29.0903C10.1507 28.9143 9.66406 28.7486 9.1567 28.5829C9.4052 27.8167 9.64335 27.0919 9.9022 26.2946C8.95996 26.1704 8.05914 26.0461 7.09619 25.9219C7.09619 32.093 9.27059 37.208 13.8265 41.2255C17.5333 44.4871 21.9235 46.0403 26.935 46.0403C26.8211 45.1084 26.7176 44.249 26.614 43.3585C25.8271 43.607 25.123 43.8244 24.3775 44.0522L24.3671 44.0315Z" fill="white"/>
<path d="M26.4999 4C14.0747 4 4 14.0747 4 26.4999C4 38.925 14.0747 48.9997 26.4999 48.9997C38.925 48.9997 48.9997 38.925 48.9997 26.4999C48.9997 14.0747 38.925 4 26.4999 4ZM26.5931 47.7779C14.8616 47.7779 5.3357 38.2209 5.3357 26.4481C5.3357 14.727 14.9134 5.22181 26.6966 5.23216C38.3866 5.23216 47.8815 14.8202 47.8815 26.5931C47.8815 38.252 38.3038 47.7779 26.5827 47.7779H26.5931Z" fill="white"/>
<path d="M52.5 27C52.5 41.6444 40.8506 53.5 26.5 53.5C12.1494 53.5 0.5 41.6444 0.5 27C0.5 12.3556 12.1494 0.5 26.5 0.5C40.8506 0.5 52.5 12.3556 52.5 27Z" stroke="#FF3333"/>
</g>
<defs>
<clipPath id="clip0_3392_1494">
<rect width="53" height="54" fill="white"/>
</clipPath>
</defs>
</svg>
