<svg width="1920" height="1069" viewBox="0 0 1920 1069" fill="none" xmlns="http://www.w3.org/2000/svg">
<rect width="1920" height="1069" fill="#7A7A7A"/>
<g clip-path="url(#clip0_2479_1159)">
<path d="M927.92 523.314C910.29 505.731 910.184 476.988 927.683 459.145C945.093 441.392 973.584 441.335 991.291 459.015C1008.84 476.537 1008.87 505.29 991.371 523.13C974.044 540.793 945.521 540.875 927.92 523.314ZM984.878 458.374C979.34 453.707 969.467 448.993 957.606 449.584C948.677 450.027 940.711 453.082 933.656 458.738C934.18 459.376 934.652 459.924 935.102 460.494C935.552 461.065 935.986 461.652 936.424 462.235C936.887 462.851 937.256 463.854 937.825 463.986C938.41 464.121 939.188 463.411 939.879 463.063C940.738 462.633 941.597 462.203 942.492 461.757C943.024 462.814 943.512 463.774 944.022 464.788C942.522 465.573 941.065 466.334 939.68 467.054C940.99 470.096 942.276 473.09 943.596 476.161C945.152 475.869 946.813 475.56 948.519 475.238C948.736 476.396 948.94 477.477 949.147 478.6C947.527 478.918 945.965 479.223 944.517 479.508C944.96 482.832 945.393 486.069 945.846 489.493C947.435 489.432 949.129 489.368 950.645 489.311C950.668 490.557 950.69 491.675 950.713 492.934C949.072 492.956 947.381 492.978 945.807 492.996C945.353 496.245 944.886 499.558 944.41 502.932C945.889 503.229 947.471 503.546 949.094 503.872C948.867 505.042 948.663 506.118 948.445 507.227C946.666 506.88 945.001 506.558 943.454 506.257C942.108 509.308 940.79 512.284 939.453 515.305C940.897 516.067 942.389 516.851 943.916 517.65C943.379 518.69 942.877 519.662 942.349 520.68C940.701 519.829 939.129 519.017 937.557 518.204C936.214 519.957 934.908 521.665 933.526 523.469C934.849 524.405 936.106 525.416 937.464 526.246C949.663 533.671 962.401 534.717 975.635 529.404C978.714 528.166 981.53 526.441 984.207 524.474C984.712 524.101 984.746 523.827 984.293 523.356C983.686 522.725 983.146 522.02 982.616 521.324C981.796 520.25 981.011 519.153 980.181 518.024C978.408 518.939 976.661 519.841 974.856 520.769C974.33 519.719 973.83 518.72 973.32 517.712C975.068 516.803 976.738 515.934 978.298 515.121C976.989 512.085 975.728 509.162 974.454 506.2C972.63 506.545 970.742 506.903 968.813 507.271C968.6 506.13 968.392 505.026 968.182 503.9C970.06 503.539 971.842 503.191 973.51 502.869C973.057 499.503 972.618 496.215 972.146 492.72C970.355 492.805 968.434 492.899 966.73 492.979C966.685 491.679 966.65 490.561 966.615 489.412C968.495 489.398 970.394 489.385 972.188 489.375C972.627 486.155 973.062 482.945 973.504 479.704C971.795 479.362 970.037 479.011 968.235 478.654C968.458 477.5 968.663 476.417 968.88 475.295C970.823 475.671 972.702 476.034 974.427 476.366C975.742 473.309 976.999 470.388 978.282 467.415C976.71 466.589 975.1 465.745 973.416 464.859C973.941 463.839 974.44 462.864 974.97 461.824C976.753 462.744 978.472 463.627 980.159 464.496C980.97 463.391 981.692 462.363 982.459 461.367C983.236 460.354 984.057 459.374 984.859 458.381L984.878 458.374ZM981.336 468.988C980.151 471.706 979.019 474.318 977.843 477.02C979.505 477.352 980.94 477.637 982.425 477.934C982.199 479.098 981.991 480.178 981.774 481.293C980.166 480.983 978.626 480.689 977.029 480.383C976.314 483.385 975.874 486.359 975.787 489.615C977.328 489.545 978.789 489.479 979.976 489.428C980.082 490.641 980.177 491.735 980.283 492.962C978.725 492.945 977.286 492.93 975.613 492.914C976.045 496.035 976.464 499.091 976.893 502.216C978.628 501.891 980.142 501.602 981.737 501.303C981.947 502.455 982.148 503.552 982.355 504.668C980.86 504.963 979.466 505.232 977.847 505.55C978.945 507.991 980.008 510.32 981.039 512.661C981.337 513.336 981.644 513.495 982.328 513.082C983.362 512.455 984.473 511.956 985.59 511.38C986.132 512.453 986.62 513.425 987.13 514.434C985.821 515.114 984.606 515.746 983.329 516.406C983.487 516.666 983.597 516.891 983.748 517.08C984.822 518.472 985.924 519.841 986.979 521.252C987.352 521.752 987.603 521.644 987.984 521.275C990.277 519.04 992.357 516.62 994.053 513.893C1001.51 501.892 1002.79 489.213 997.927 475.941C995.824 470.199 992.407 465.285 988.053 461.029C987.706 460.69 987.466 460.649 987.149 461.051C986.506 461.856 985.805 462.617 985.177 463.432C984.524 464.279 983.926 465.168 983.254 466.099C984.624 466.825 985.895 467.498 987.224 468.202C986.684 469.258 986.188 470.224 985.67 471.231C984.246 470.495 982.898 469.798 981.342 468.995L981.336 468.988ZM935.618 481.197C935.411 480.074 935.203 478.971 934.99 477.829C936.711 477.491 938.347 477.169 940.2 476.808C938.981 474.023 937.814 471.366 936.618 468.63C934.883 469.512 933.34 470.303 931.755 471.11C931.225 470.057 930.735 469.081 930.225 468.073C931.73 467.288 933.166 466.536 934.744 465.71C933.516 464.113 932.343 462.577 931.083 460.942C921.906 470.277 917.584 481.291 918.469 494.221C919.19 504.728 923.472 513.643 930.995 521.155C932.209 519.574 933.331 518.119 934.494 516.602C932.948 515.789 931.562 515.06 930.118 514.305C930.655 513.265 931.16 512.276 931.678 511.269C933.259 512.084 934.761 512.859 936.412 513.712C937.639 510.978 938.818 508.344 940.051 505.59C938.201 505.224 936.575 504.901 934.913 504.576C935.14 503.412 935.344 502.335 935.565 501.21C937.373 501.561 939.102 501.896 940.885 502.24C941.672 499.086 942.131 495.995 942.23 492.54C940.459 492.656 938.797 492.765 937.278 492.864C937.229 491.586 937.191 490.491 937.147 489.351C938.832 489.335 940.501 489.316 942.231 489.3C942.125 486.222 941.735 483.201 940.971 480.178C939.176 480.52 937.458 480.848 935.605 481.203L935.618 481.197Z" fill="white"/>
</g>
<ellipse cx="882.958" cy="585.246" rx="6.95833" ry="7.0198" fill="#D9D9D9"/>
<ellipse cx="933.986" cy="585.246" rx="6.95833" ry="7.0198" fill="#D9D9D9"/>
<ellipse cx="985.013" cy="585.246" rx="6.95833" ry="7.0198" fill="#D9D9D9"/>
<ellipse cx="1036.04" cy="585.246" rx="6.95833" ry="7.0198" fill="#D9D9D9"/>
<defs>
<clipPath id="clip0_2479_1159">
<rect width="90.2715" height="90.2803" fill="white" transform="matrix(0.707911 0.706301 -0.700049 0.714095 959.199 427)"/>
</clipPath>
</defs>
</svg>
