<svg width="216" height="297" viewBox="0 0 216 297" fill="none" xmlns="http://www.w3.org/2000/svg">
<mask id="mask0_2972_1410" style="mask-type:luminance" maskUnits="userSpaceOnUse" x="4" y="0" width="208" height="289">
<path d="M212 0H4V289H212V0Z" fill="white"/>
</mask>
<g mask="url(#mask0_2972_1410)">
<g filter="url(#filter0_d_2972_1410)">
<path d="M212 0H4V289H212V0Z" fill="white"/>
<path d="M210.55 117H3V236H210.55V117Z" fill="white"/>
<path d="M64.7591 171.438H65.6121V180.79H64.7591V171.438ZM60.6916 172.155C62.0752 172.155 63.0635 173.424 63.0635 175.411C63.0635 177.398 62.0752 178.667 60.6916 178.667C59.3081 178.667 58.3198 177.398 58.3198 175.411C58.3198 173.424 59.3081 172.155 60.6916 172.155ZM60.6916 172.924C59.7762 172.924 59.1312 173.903 59.1312 175.411C59.1312 176.93 59.7762 177.908 60.6916 177.908C61.5967 177.908 62.2416 176.93 62.2416 175.411C62.2416 173.903 61.5967 172.924 60.6916 172.924ZM68.0872 172.353H72.3731V178.418H68.0872V172.353ZM71.5409 173.04H68.9194V177.742H71.5409V173.04ZM74.3289 171.438H75.1819V180.79H74.3289V171.438ZM80.4449 173.102V174.288C80.4449 175.869 81.5684 177.482 82.9415 178.064L82.463 178.751C81.3811 178.251 80.4657 177.18 80.0184 175.9C79.5919 177.263 78.6764 178.439 77.6153 178.98L77.116 178.293C78.4579 177.658 79.5919 175.9 79.5919 174.288V173.102H77.4281V172.395H82.6399V173.102H80.4449ZM83.8986 171.448H84.7516V180.769H83.8986V171.448ZM87.1851 172.436H91.4502C91.4502 175.089 90.2331 177.492 87.2163 179L86.7481 178.335C89.1304 177.138 90.4099 175.349 90.6076 173.144H87.1851V172.436ZM95.3616 175.224V175.932H93.8636V180.769H93.0106V171.438H93.8636V175.224H95.3616ZM103.721 176.472H105.843V174.225H103.69C103.773 174.59 103.825 174.985 103.825 175.411C103.825 175.796 103.783 176.15 103.721 176.472ZM101.505 177.908C102.389 177.908 103.024 176.93 103.024 175.411C103.024 173.903 102.389 172.924 101.505 172.924C100.611 172.924 99.9864 173.903 99.9864 175.411C99.9864 176.93 100.611 177.908 101.505 177.908ZM105.843 171.438H106.696V180.79H105.843V177.169H103.513C103.128 178.116 102.4 178.667 101.505 178.667C100.142 178.667 99.175 177.398 99.175 175.411C99.175 173.424 100.142 172.155 101.505 172.155C102.369 172.155 103.055 172.655 103.451 173.528H105.843V171.438ZM114.445 174.673V177.003H113.634V171.614H114.445V173.976H115.631V171.438H116.453V177.346H115.631V174.673H114.445ZM113.26 172.551L113.27 173.227H108.526V172.551H110.482V171.51H111.325V172.551H113.26ZM109.681 175.307C109.681 175.89 110.17 176.275 110.909 176.275C111.637 176.275 112.136 175.89 112.136 175.307C112.136 174.735 111.637 174.35 110.909 174.35C110.17 174.35 109.681 174.735 109.681 175.307ZM112.895 175.307C112.895 176.285 112.084 176.909 110.909 176.909C109.733 176.909 108.911 176.285 108.911 175.307C108.911 174.35 109.733 173.715 110.909 173.715C112.084 173.715 112.895 174.35 112.895 175.307ZM113.384 180.103C114.799 180.103 115.652 179.748 115.652 179.135C115.652 178.51 114.799 178.158 113.384 178.158C111.959 178.158 111.106 178.51 111.106 179.135C111.106 179.748 111.959 180.103 113.384 180.103ZM113.384 177.502C115.33 177.502 116.505 178.084 116.505 179.135C116.505 180.175 115.33 180.758 113.384 180.758C111.439 180.758 110.264 180.175 110.264 179.135C110.264 178.084 111.439 177.502 113.384 177.502ZM121.681 175.245L121.38 174.569C123.013 174.381 124.5 173.58 124.573 172.551H121.681V171.864H128.578V172.551H125.676C125.749 173.58 127.236 174.381 128.87 174.569L128.568 175.245C127.039 175.058 125.645 174.37 125.125 173.34C124.615 174.37 123.211 175.058 121.681 175.245ZM127.444 179.115C127.444 178.491 126.571 178.137 125.114 178.137C123.647 178.137 122.784 178.491 122.784 179.115C122.784 179.739 123.647 180.103 125.114 180.103C126.571 180.103 127.444 179.739 127.444 179.115ZM129.338 176.493H125.551V177.492C127.288 177.575 128.308 178.147 128.308 179.115C128.308 180.176 127.112 180.758 125.125 180.758C123.127 180.758 121.921 180.176 121.921 179.115C121.921 178.147 122.95 177.575 124.688 177.492V176.493H120.901V175.807H129.338V176.493ZM137.274 171.448H138.127V176.452H137.274V171.448ZM132.115 176.909H132.957V178.053H137.285V176.909H138.127V180.644H132.115V176.909ZM132.957 178.719V179.956H137.285V178.719H132.957ZM133.113 171.885C134.528 171.885 135.558 172.759 135.558 174.028C135.558 175.318 134.528 176.181 133.113 176.181C131.709 176.181 130.689 175.318 130.689 174.028C130.689 172.759 131.709 171.885 133.113 171.885ZM133.113 172.592C132.187 172.592 131.522 173.185 131.522 174.028C131.522 174.881 132.187 175.474 133.113 175.474C134.06 175.474 134.726 174.881 134.726 174.028C134.726 173.185 134.06 172.592 133.113 172.592ZM141.476 172.342V177.627C142.881 177.627 144.327 177.501 145.877 177.189L145.97 177.918C144.347 178.251 142.881 178.355 141.393 178.355H140.623V172.342H141.476ZM146.834 171.438H147.687V180.758H146.834V171.438ZM150.859 173.04V177.73C152.513 177.73 153.709 177.658 155.061 177.419L155.155 178.126C153.73 178.397 152.502 178.459 150.744 178.459H150.006V172.331H154.344V173.04H150.859ZM158.328 175.12V175.827H156.788V180.79H155.935V171.438H156.788V175.12H158.328ZM160.099 180.069C159.897 180.069 159.723 179.998 159.578 179.855C159.433 179.71 159.36 179.534 159.36 179.329C159.36 179.127 159.433 178.956 159.578 178.812C159.723 178.668 159.897 178.594 160.099 178.594C160.301 178.594 160.475 178.668 160.62 178.812C160.765 178.956 160.838 179.127 160.838 179.329C160.838 179.465 160.803 179.589 160.734 179.702C160.668 179.813 160.579 179.903 160.468 179.969C160.358 180.036 160.234 180.069 160.099 180.069Z" fill="#1A278E"/>
<path d="M108.116 150.727C118.519 150.727 126.952 142.293 126.952 131.891C126.952 121.488 118.519 113.055 108.116 113.055C97.7131 113.055 89.28 121.488 89.28 131.891C89.28 142.293 97.7131 150.727 108.116 150.727Z" fill="#1A278E"/>
<path d="M108.149 151C107.509 151 106.864 150.967 106.224 150.905C101.145 150.399 96.5617 147.946 93.3296 143.996C90.092 140.047 88.59 135.073 89.0963 129.989C90.1421 119.503 99.5211 111.815 110.013 112.861C115.092 113.367 119.675 115.82 122.907 119.77C126.145 123.72 127.647 128.693 127.141 133.777C126.635 138.862 124.181 143.44 120.232 146.672C116.783 149.498 112.555 151 108.155 151H108.149ZM108.099 113.323C98.6867 113.323 90.5982 120.482 89.6414 130.045C89.1519 134.979 90.6094 139.807 93.7524 143.64C96.8954 147.473 101.34 149.86 106.274 150.349C111.209 150.839 116.037 149.381 119.87 146.238C123.703 143.095 126.089 138.65 126.579 133.716C127.069 128.782 125.611 123.953 122.468 120.12C119.325 116.288 114.88 113.901 109.946 113.412C109.323 113.35 108.705 113.317 108.094 113.317L108.099 113.323Z" fill="white"/>
<path d="M119.175 132.71C118.952 132.71 118.73 132.676 118.513 132.643C118.173 132.598 117.84 132.543 117.489 132.487C117.333 132.966 117.172 133.444 117.011 133.934C116.727 133.839 116.46 133.75 116.193 133.661C116.349 133.188 116.493 132.732 116.632 132.304C115.859 131.992 115.114 131.697 114.357 131.391C114.09 131.781 113.812 132.181 113.528 132.593C113.289 132.426 113.056 132.265 112.816 132.103C113.089 131.703 113.35 131.325 113.595 130.963C112.916 130.44 112.254 129.928 111.548 129.389C111.242 129.722 110.908 130.084 110.613 130.401C110.374 130.173 110.168 129.984 109.957 129.784C110.296 129.444 110.636 129.105 110.958 128.782C110.469 128.126 109.979 127.475 109.484 126.813C109.117 127.058 108.733 127.308 108.344 127.57C108.177 127.325 108.027 127.091 107.865 126.852C108.283 126.574 108.689 126.301 109.056 126.051C108.75 125.267 108.461 124.521 108.166 123.759C107.737 123.893 107.292 124.026 106.836 124.171C106.747 123.893 106.669 123.631 106.58 123.347C107.064 123.192 107.532 123.047 107.993 122.897C107.943 122.552 107.893 122.24 107.854 121.923C107.815 121.601 107.793 121.278 107.76 120.961C105.929 121.117 103.309 122.035 101.268 124.265C99.7324 125.94 98.8312 127.915 98.5587 130.19C98.7645 130.212 98.9481 130.223 99.1316 130.245C99.3152 130.268 99.4988 130.295 99.6824 130.323C99.8771 130.351 100.122 130.462 100.244 130.384C100.372 130.307 100.389 130.04 100.45 129.85C100.528 129.622 100.606 129.389 100.689 129.15C100.973 129.244 101.229 129.328 101.501 129.417C101.368 129.823 101.24 130.223 101.118 130.601C101.896 130.913 102.659 131.219 103.443 131.53C103.671 131.202 103.916 130.846 104.172 130.485C104.416 130.651 104.644 130.813 104.884 130.974C104.644 131.319 104.416 131.653 104.205 131.964C104.873 132.482 105.529 132.982 106.213 133.516C106.491 133.222 106.786 132.904 107.048 132.626C107.27 132.843 107.476 133.044 107.704 133.266C107.409 133.561 107.109 133.867 106.831 134.156C107.326 134.818 107.826 135.497 108.338 136.187C108.661 135.975 109 135.747 109.351 135.519C109.518 135.769 109.668 135.997 109.829 136.237C109.445 136.493 109.089 136.732 108.755 136.954C109.05 137.744 109.34 138.512 109.634 139.291C110.029 139.168 110.441 139.04 110.858 138.912C110.947 139.196 111.025 139.458 111.114 139.736C110.664 139.88 110.235 140.014 109.807 140.147C109.874 140.704 109.94 141.243 110.013 141.811C110.419 141.744 110.825 141.699 111.22 141.605C114.741 140.754 117.228 138.662 118.68 135.347C119.019 134.573 119.219 133.761 119.358 132.932C119.386 132.777 119.342 132.721 119.175 132.715V132.71Z" fill="white"/>
<path d="M119.258 129.268C118.479 125.78 116.46 123.282 113.233 121.775C111.837 121.124 110.346 120.851 108.805 120.868C108.683 120.868 108.633 120.907 108.644 121.035C108.672 121.296 108.677 121.558 108.711 121.814C108.744 122.081 108.794 122.348 108.839 122.637C109.217 122.52 109.562 122.414 109.929 122.303C110.018 122.587 110.102 122.854 110.185 123.126C109.796 123.249 109.428 123.366 109.006 123.499C109.273 124.2 109.529 124.868 109.796 125.563C110.157 125.324 110.463 125.118 110.786 124.907C110.953 125.157 111.103 125.385 111.264 125.624C110.919 125.858 110.586 126.08 110.246 126.308C110.652 126.976 111.097 127.588 111.659 128.189C111.926 127.899 112.177 127.627 112.382 127.404C112.616 127.605 112.827 127.783 113.061 127.983C112.777 128.261 112.51 128.511 112.21 128.812C112.838 129.296 113.456 129.769 114.09 130.253C114.346 129.885 114.569 129.563 114.802 129.223C115.047 129.39 115.275 129.552 115.509 129.718C115.292 130.036 115.086 130.336 114.852 130.681C115.486 130.92 116.087 131.148 116.688 131.382C116.86 131.449 116.944 131.421 116.994 131.226C117.072 130.931 117.183 130.642 117.283 130.336C117.573 130.431 117.834 130.52 118.101 130.609C117.984 130.965 117.878 131.293 117.762 131.643C117.834 131.66 117.895 131.682 117.956 131.688C118.396 131.743 118.841 131.793 119.28 131.855C119.436 131.877 119.464 131.816 119.464 131.677C119.481 130.864 119.431 130.058 119.252 129.268H119.258Z" fill="white"/>
<path d="M107.771 140.772C107.682 140.489 107.598 140.222 107.515 139.949C107.943 139.81 108.355 139.682 108.806 139.538C108.544 138.825 108.288 138.147 108.027 137.429C107.626 137.696 107.276 137.93 106.92 138.163C106.753 137.913 106.603 137.685 106.441 137.446C106.831 137.184 107.203 136.934 107.587 136.678C107.17 135.972 106.703 135.338 106.113 134.698C105.813 135.037 105.535 135.354 105.273 135.643C105.039 135.421 104.834 135.232 104.628 135.037C104.928 134.731 105.229 134.431 105.54 134.119C104.973 133.585 104.366 133.112 103.693 132.712C103.432 133.096 103.176 133.463 102.903 133.858C102.664 133.691 102.436 133.535 102.191 133.368C102.442 133.001 102.681 132.651 102.953 132.256C102.241 131.972 101.557 131.705 100.856 131.432C100.7 131.9 100.561 132.317 100.417 132.745C100.133 132.651 99.8716 132.562 99.599 132.473C99.7325 132.061 99.8604 131.672 99.9995 131.243C99.4933 131.176 99.0093 131.11 98.492 131.043C98.492 134.358 99.6602 137.107 102.108 139.265C104.099 141.017 106.458 141.852 109.15 141.852C109.089 141.351 109.034 140.889 108.978 140.411C108.555 140.544 108.177 140.661 107.776 140.784L107.771 140.772Z" fill="white"/>
<path d="M108.917 119.266C102.241 119.266 96.8286 124.678 96.8286 131.354C96.8286 138.029 102.241 143.442 108.917 143.442C115.592 143.442 121.005 138.029 121.005 131.354C121.005 124.678 115.592 119.266 108.917 119.266ZM108.967 142.786C102.664 142.786 97.5463 137.651 97.5463 131.326C97.5463 125.029 102.692 119.922 109.022 119.928C115.303 119.928 120.404 125.079 120.404 131.404C120.404 137.668 115.258 142.786 108.961 142.786H108.967Z" fill="white"/>
<path d="M132.829 101.959C133.096 101.837 133.353 101.716 133.614 101.604C133.652 101.59 133.708 101.604 133.75 101.618C134.825 101.964 135.9 102.314 136.976 102.665C137.055 102.688 137.116 102.683 137.191 102.651C140.748 100.945 144.306 99.2429 147.868 97.5413C148.447 97.2655 149.064 97.2047 149.691 97.2328C150.055 97.2515 150.411 97.3076 150.747 97.4572C150.986 97.5647 151.177 97.7143 151.285 97.962C151.397 98.2098 151.35 98.4389 151.243 98.6632C151.037 99.098 150.705 99.4205 150.289 99.6496C149.808 99.9114 149.312 100.136 148.817 100.374C148.05 100.743 147.279 101.108 146.512 101.477C146.465 101.501 146.414 101.557 146.395 101.604C145.488 104.109 144.591 106.62 143.688 109.13C143.604 109.364 143.459 109.532 143.23 109.635C142.81 109.826 142.389 110.027 141.973 110.228C141.907 110.261 141.861 110.233 141.842 110.177C141.823 110.112 141.809 110.042 141.814 109.976C141.964 108.536 142.113 107.101 142.267 105.661C142.342 104.946 142.422 104.236 142.496 103.52C142.496 103.483 142.501 103.441 142.506 103.385C142.436 103.417 142.375 103.445 142.319 103.474C141.618 103.81 140.921 104.161 140.178 104.408C139.177 104.74 138.158 105.021 137.106 105.142C136.761 105.184 136.41 105.217 136.069 105.128C135.947 105.1 135.821 105.04 135.727 104.955C134.685 104.044 133.755 103.025 132.843 101.987C132.838 101.978 132.834 101.968 132.82 101.954L132.829 101.959Z" fill="#1A278E"/>
<path d="M141.926 110.48C141.884 110.48 141.842 110.471 141.805 110.457C141.72 110.419 141.66 110.349 141.627 110.256C141.594 110.148 141.58 110.05 141.589 109.961C141.739 108.521 141.889 107.086 142.043 105.646L142.239 103.786L142.108 103.851C141.515 104.136 140.902 104.431 140.257 104.646C139.056 105.043 138.065 105.282 137.139 105.389C136.761 105.431 136.391 105.464 136.017 105.371C135.849 105.328 135.695 105.249 135.578 105.146C134.512 104.211 133.554 103.155 132.675 102.154L132.637 102.098L132.511 101.878L132.913 101.673C133.119 101.579 133.32 101.486 133.526 101.397C133.633 101.35 133.741 101.374 133.825 101.402C134.9 101.748 135.975 102.098 137.05 102.449C140.65 100.738 144.207 99.0363 147.769 97.3347C148.316 97.0729 148.933 96.97 149.705 97.0074C150.144 97.0261 150.518 97.1103 150.845 97.2552C151.163 97.3954 151.378 97.6011 151.505 97.8816C151.631 98.1621 151.612 98.4566 151.462 98.7792C151.243 99.242 150.887 99.6113 150.411 99.8684C150.037 100.069 149.653 100.252 149.279 100.429L147.914 101.084C147.484 101.289 147.054 101.495 146.629 101.701C145.727 104.206 144.824 106.717 143.927 109.222C143.819 109.522 143.623 109.737 143.347 109.863C142.983 110.027 142.623 110.199 142.263 110.372L142.09 110.457C142.038 110.48 141.987 110.494 141.935 110.494L141.926 110.48ZM142.772 103.014L142.744 103.459C142.744 103.496 142.744 103.524 142.739 103.552L142.51 105.693C142.361 107.105 142.211 108.521 142.066 109.933C142.426 109.76 142.782 109.592 143.146 109.428C143.31 109.353 143.417 109.236 143.483 109.054C144.385 106.544 145.287 104.034 146.189 101.528C146.227 101.42 146.32 101.318 146.423 101.266C146.853 101.06 147.283 100.855 147.709 100.649L149.078 99.9946C149.448 99.8216 149.826 99.6393 150.186 99.443C150.574 99.2326 150.864 98.9381 151.042 98.5641C151.135 98.3631 151.149 98.2135 151.079 98.0592C151.004 97.8863 150.873 97.7647 150.658 97.6712C150.383 97.5497 150.074 97.4843 149.686 97.4656C148.99 97.4328 148.447 97.5217 147.975 97.7507C144.418 99.4523 140.856 101.159 137.298 102.86C137.167 102.921 137.046 102.93 136.91 102.888C135.835 102.538 134.76 102.187 133.685 101.841C133.68 101.841 133.675 101.841 133.675 101.841C133.521 101.907 133.367 101.977 133.212 102.051C134.021 102.968 134.914 103.935 135.896 104.796C135.956 104.847 136.045 104.894 136.139 104.917C136.438 104.992 136.761 104.964 137.092 104.926C137.999 104.819 138.93 104.599 140.117 104.202C140.734 103.996 141.332 103.706 141.912 103.43L142.777 103.019L142.772 103.014Z" fill="white"/>
<path d="M142.735 99.0808C142.599 99.1462 142.478 99.2023 142.356 99.2584C141.529 99.6464 140.701 100.03 139.879 100.422C139.804 100.46 139.752 100.455 139.682 100.408C138.785 99.824 137.883 99.2444 136.98 98.6647C136.943 98.6413 136.906 98.618 136.877 98.5852C136.803 98.5058 136.812 98.3796 136.91 98.3328C137.336 98.1131 137.756 97.884 138.196 97.7017C138.345 97.6409 138.565 97.6596 138.729 97.7157C140.033 98.1505 141.337 98.5993 142.637 99.0434C142.665 99.0527 142.688 99.0667 142.735 99.0854V99.0808Z" fill="#1A278E"/>
<path d="M139.785 100.688C139.706 100.688 139.631 100.664 139.551 100.613C138.878 100.173 138.2 99.7387 137.527 99.3039L136.849 98.8692C136.807 98.8411 136.751 98.8037 136.7 98.7523C136.616 98.6588 136.574 98.5279 136.597 98.4064C136.62 98.2895 136.691 98.1913 136.798 98.1352L137.051 98.0043C137.387 97.8267 137.738 97.6444 138.102 97.4948C138.378 97.3779 138.705 97.4714 138.799 97.4995C139.809 97.8361 140.818 98.1773 141.828 98.5232L142.712 98.8271C142.712 98.8271 142.758 98.8458 142.786 98.8551L143.268 99.0608L142.454 99.4769L142.104 99.6405C141.393 99.9724 140.687 100.304 139.977 100.641C139.911 100.674 139.846 100.688 139.785 100.688ZM137.13 98.4858L137.784 98.9066C138.453 99.3413 139.126 99.7714 139.795 100.206C140.505 99.8696 141.206 99.5423 141.908 99.2151L142.123 99.1123L141.678 98.9627C140.673 98.6167 139.664 98.2755 138.654 97.9389C138.518 97.8968 138.364 97.8875 138.285 97.9202C137.943 98.0604 137.602 98.2381 137.27 98.411L137.125 98.4858H137.13Z" fill="white"/>
<path d="M124.656 115.587C125.96 113.781 130.064 109.893 136.047 108.789" stroke="#1A278E" stroke-linecap="round"/>
<path d="M132.262 114.35C133.562 113.403 137.297 111.778 141.835 112.856" stroke="#1A278E" stroke-linecap="round"/>
</g>
</g>
<defs>
<filter id="filter0_d_2972_1410" x="-1" y="0" width="217" height="297" filterUnits="userSpaceOnUse" color-interpolation-filters="sRGB">
<feFlood flood-opacity="0" result="BackgroundImageFix"/>
<feColorMatrix in="SourceAlpha" type="matrix" values="0 0 0 0 0 0 0 0 0 0 0 0 0 0 0 0 0 0 127 0" result="hardAlpha"/>
<feOffset dy="4"/>
<feGaussianBlur stdDeviation="2"/>
<feComposite in2="hardAlpha" operator="out"/>
<feColorMatrix type="matrix" values="0 0 0 0 0 0 0 0 0 0 0 0 0 0 0 0 0 0 0.25 0"/>
<feBlend mode="normal" in2="BackgroundImageFix" result="effect1_dropShadow_2972_1410"/>
<feBlend mode="normal" in="SourceGraphic" in2="effect1_dropShadow_2972_1410" result="shape"/>
</filter>
</defs>
</svg>
