<svg width="208" height="289" viewBox="0 0 208 289" fill="none" xmlns="http://www.w3.org/2000/svg">
<rect width="207.55" height="289" rx="9.96368" fill="#7A7A7A"/>
<g clip-path="url(#clip0_2444_1161)">
<path d="M92.9778 149.582C86.465 143.086 86.4256 132.468 92.8901 125.876C99.3219 119.318 109.847 119.297 116.388 125.828C122.872 132.302 122.884 142.923 116.418 149.514C110.017 156.039 99.4799 156.069 92.9778 149.582ZM114.019 125.592C111.973 123.868 108.326 122.126 103.944 122.345C100.646 122.508 97.703 123.637 95.0967 125.726C95.2902 125.962 95.4647 126.164 95.6309 126.375C95.7971 126.586 95.9575 126.803 96.1191 127.018C96.2901 127.246 96.4266 127.616 96.6367 127.665C96.8528 127.715 97.1403 127.453 97.3954 127.324C97.7129 127.165 98.0304 127.006 98.3609 126.842C98.5576 127.232 98.7376 127.586 98.926 127.961C98.3722 128.251 97.8336 128.532 97.3222 128.798C97.8059 129.922 98.2813 131.028 98.7686 132.163C99.3434 132.055 99.9572 131.941 100.587 131.822C100.668 132.25 100.743 132.649 100.819 133.064C100.221 133.181 99.6438 133.294 99.1091 133.399C99.2726 134.627 99.4325 135.823 99.5998 137.088C100.187 137.065 100.813 137.042 101.373 137.021C101.381 137.481 101.389 137.894 101.398 138.359C100.792 138.367 100.167 138.375 99.5857 138.382C99.4178 139.582 99.2452 140.806 99.0693 142.052C99.6159 142.162 100.2 142.279 100.8 142.4C100.716 142.832 100.641 143.23 100.56 143.639C99.9027 143.511 99.2877 143.392 98.7164 143.281C98.2191 144.408 97.7322 145.507 97.2384 146.623C97.7717 146.905 98.3228 147.194 98.8869 147.49C98.6885 147.874 98.503 148.233 98.3082 148.609C97.6992 148.295 97.1186 147.994 96.5379 147.694C96.0415 148.342 95.5592 148.973 95.0487 149.639C95.5376 149.985 96.0019 150.358 96.5035 150.665C101.01 153.408 105.716 153.794 110.605 151.832C111.742 151.374 112.782 150.737 113.771 150.011C113.958 149.873 113.97 149.772 113.803 149.598C113.579 149.365 113.379 149.104 113.183 148.847C112.881 148.45 112.591 148.045 112.284 147.628C111.629 147.966 110.984 148.299 110.317 148.642C110.123 148.254 109.938 147.885 109.749 147.512C110.395 147.177 111.012 146.856 111.588 146.555C111.105 145.434 110.639 144.354 110.168 143.26C109.495 143.387 108.797 143.519 108.085 143.655C108.006 143.234 107.929 142.826 107.851 142.41C108.545 142.277 109.204 142.148 109.82 142.029C109.652 140.786 109.49 139.571 109.316 138.28C108.654 138.311 107.945 138.346 107.315 138.376C107.298 137.895 107.285 137.482 107.272 137.058C107.967 137.053 108.669 137.048 109.331 137.044C109.493 135.855 109.654 134.669 109.817 133.471C109.186 133.345 108.537 133.216 107.871 133.084C107.953 132.657 108.029 132.257 108.109 131.843C108.827 131.982 109.521 132.116 110.159 132.238C110.644 131.109 111.109 130.03 111.583 128.932C111.002 128.627 110.407 128.315 109.785 127.988C109.979 127.611 110.163 127.25 110.359 126.866C111.018 127.206 111.653 127.532 112.276 127.853C112.576 127.445 112.842 127.065 113.126 126.697C113.412 126.323 113.716 125.961 114.012 125.594L114.019 125.592ZM112.711 129.513C112.273 130.517 111.855 131.482 111.42 132.48C112.034 132.602 112.564 132.708 113.113 132.818C113.029 133.248 112.953 133.647 112.872 134.059C112.279 133.944 111.71 133.835 111.119 133.722C110.856 134.831 110.693 135.93 110.661 137.133C111.23 137.107 111.77 137.083 112.209 137.064C112.248 137.512 112.283 137.916 112.322 138.369C111.746 138.363 111.214 138.357 110.597 138.351C110.756 139.504 110.911 140.634 111.069 141.788C111.71 141.668 112.27 141.561 112.859 141.451C112.937 141.876 113.011 142.281 113.087 142.694C112.535 142.803 112.02 142.902 111.422 143.019C111.828 143.921 112.22 144.782 112.601 145.647C112.711 145.896 112.824 145.955 113.077 145.802C113.459 145.57 113.87 145.386 114.282 145.173C114.483 145.569 114.663 145.929 114.851 146.301C114.368 146.553 113.919 146.786 113.447 147.03C113.505 147.126 113.546 147.209 113.602 147.279C113.998 147.793 114.406 148.299 114.795 148.82C114.933 149.005 115.026 148.965 115.167 148.829C116.014 148.003 116.782 147.109 117.409 146.102C120.165 141.668 120.636 136.984 118.84 132.081C118.063 129.96 116.801 128.145 115.192 126.573C115.064 126.447 114.975 126.432 114.858 126.58C114.621 126.878 114.362 127.159 114.13 127.46C113.889 127.773 113.667 128.101 113.419 128.445C113.926 128.714 114.395 128.962 114.886 129.222C114.686 129.612 114.503 129.969 114.312 130.341C113.786 130.07 113.288 129.812 112.713 129.515L112.711 129.513ZM95.8214 134.023C95.7449 133.608 95.6684 133.201 95.5894 132.779C96.2255 132.654 96.8297 132.535 97.5141 132.402C97.0639 131.373 96.6328 130.391 96.191 129.38C95.5501 129.706 94.9798 129.999 94.3943 130.297C94.1987 129.908 94.0175 129.547 93.8292 129.175C94.3853 128.885 94.9156 128.607 95.4988 128.302C95.0451 127.712 94.6116 127.144 94.1461 126.54C90.756 129.989 89.1593 134.058 89.4862 138.834C89.7528 142.716 91.3345 146.009 94.1137 148.784C94.5621 148.2 94.9765 147.663 95.4062 147.102C94.835 146.802 94.323 146.533 93.7896 146.254C93.988 145.87 94.1747 145.504 94.366 145.132C94.9502 145.434 95.5048 145.719 96.1149 146.035C96.5681 145.025 97.0038 144.052 97.4592 143.034C96.7758 142.899 96.1749 142.78 95.5611 142.66C95.6448 142.23 95.7204 141.832 95.8019 141.416C96.47 141.546 97.1086 141.67 97.7673 141.797C98.058 140.632 98.2275 139.49 98.2641 138.213C97.6099 138.256 96.9958 138.296 96.4347 138.333C96.4168 137.861 96.4028 137.456 96.3863 137.035C97.0089 137.03 97.6255 137.022 98.2646 137.017C98.2253 135.88 98.0813 134.763 97.7992 133.647C97.136 133.773 96.5011 133.894 95.8167 134.025L95.8214 134.023Z" fill="white"/>
</g>
<path d="M74.7976 169.502H75.4269V176.614H74.7976V169.502ZM71.8477 172.216H73.6334V172.751H71.8477V172.216ZM73.3659 169.667H73.9874V176.252H73.3659V169.667ZM69.6529 174.356H70.1092C71.2184 174.356 71.887 174.324 72.6737 174.159L72.7366 174.702C71.9263 174.875 71.242 174.907 70.1092 174.907H69.6529V174.356ZM69.6529 170.368H72.3275V170.903H70.298V174.568H69.6529V170.368ZM81.7903 169.494H82.4433V176.621H81.7903V169.494ZM78.6909 170.045C79.745 170.045 80.5002 171.013 80.5002 172.523C80.5002 174.041 79.745 175.009 78.6909 175.009C77.6447 175.009 76.8895 174.041 76.8895 172.523C76.8895 171.013 77.6447 170.045 78.6909 170.045ZM78.6909 170.635C77.9987 170.635 77.5109 171.374 77.5109 172.523C77.5109 173.679 77.9987 174.435 78.6909 174.435C79.391 174.435 79.8709 173.679 79.8709 172.523C79.8709 171.374 79.391 170.635 78.6909 170.635ZM89.0741 169.494H89.7192V176.621H89.0741V169.494ZM87.5952 172.177H89.1685V172.72H87.5952V172.177ZM84.189 174.372H84.7318C86.0691 174.372 86.9108 174.348 87.9099 174.159L87.9728 174.694C86.9501 174.875 86.0848 174.914 84.7318 174.914H84.189V174.372ZM84.189 170.147H87.4772V170.69H84.8341V174.56H84.189V170.147ZM84.6689 172.145H87.1704V172.672H84.6689V172.145ZM96.1002 170.171H96.6824V170.383C96.6824 171.587 95.4001 172.429 93.9448 172.649L93.701 172.122C94.9596 171.957 96.1002 171.249 96.1002 170.383V170.171ZM96.3756 170.171H96.9498V170.383C96.9498 171.249 98.0983 171.957 99.357 172.122L99.1053 172.649C97.6578 172.429 96.3756 171.587 96.3756 170.383V170.171ZM93.8976 169.856H99.1603V170.383H93.8976V169.856ZM93.3076 173.16H99.7503V173.695H93.3076V173.16ZM96.2497 173.491H96.9026V175.127H96.2497V173.491ZM94.1258 175.921H99.0345V176.456H94.1258V175.921ZM94.1258 174.442H94.7708V176.126H94.1258V174.442ZM105.713 169.494H106.365V176.621H105.713V169.494ZM100.953 170.1H101.598V171.98H103.651V170.1H104.304V174.907H100.953V170.1ZM101.598 172.499V174.372H103.651V172.499H101.598ZM110.668 173.058H111.321V174.301H110.668V173.058ZM107.781 172.83H114.208V173.357H107.781V172.83ZM110.99 174.104C112.516 174.104 113.429 174.553 113.429 175.355C113.429 176.149 112.516 176.598 110.99 176.598C109.464 176.598 108.552 176.149 108.552 175.355C108.552 174.553 109.464 174.104 110.99 174.104ZM110.99 174.608C109.881 174.608 109.212 174.875 109.212 175.355C109.212 175.827 109.881 176.094 110.99 176.094C112.107 176.094 112.768 175.827 112.768 175.355C112.768 174.875 112.107 174.608 110.99 174.608ZM110.573 170.084H111.156V170.297C111.156 171.445 109.85 172.216 108.379 172.397L108.143 171.878C109.417 171.744 110.573 171.107 110.573 170.297V170.084ZM110.849 170.084H111.423V170.297C111.423 171.107 112.579 171.744 113.854 171.878L113.618 172.397C112.147 172.216 110.849 171.445 110.849 170.297V170.084ZM108.371 169.825H113.633V170.352H108.371V169.825ZM120.194 169.502H120.854V173.318H120.194V169.502ZM116.268 173.672H116.913V174.537H120.209V173.672H120.854V176.519H116.268V173.672ZM116.913 175.056V175.992H120.209V175.056H116.913ZM117.039 169.841C118.117 169.841 118.888 170.509 118.888 171.477C118.888 172.452 118.117 173.121 117.039 173.121C115.961 173.121 115.183 172.452 115.183 171.477C115.183 170.509 115.961 169.841 117.039 169.841ZM117.039 170.383C116.331 170.383 115.82 170.832 115.82 171.477C115.82 172.122 116.331 172.57 117.039 172.57C117.747 172.57 118.258 172.122 118.258 171.477C118.258 170.832 117.747 170.383 117.039 170.383ZM127.43 169.502H128.083V176.614H127.43V169.502ZM122.71 170.195H123.355V174.6H122.71V170.195ZM122.71 174.214H123.292C124.37 174.214 125.495 174.136 126.699 173.884L126.777 174.442C125.542 174.694 124.417 174.781 123.292 174.781H122.71V174.214ZM134.305 169.494H134.966V176.621H134.305V169.494ZM134.808 172.303H136.13V172.853H134.808V172.303ZM129.797 174.301H130.356C131.67 174.301 132.59 174.254 133.652 174.057L133.723 174.608C132.629 174.812 131.693 174.851 130.356 174.851H129.797V174.301ZM129.797 170.187H133.101V170.722H130.442V174.545H129.797V170.187ZM137.426 176.045C137.288 176.045 137.169 175.995 137.071 175.897C136.972 175.798 136.923 175.68 136.923 175.542C136.923 175.404 136.972 175.286 137.071 175.187C137.169 175.088 137.288 175.039 137.426 175.039C137.563 175.039 137.682 175.088 137.78 175.187C137.879 175.286 137.928 175.404 137.928 175.542C137.928 175.633 137.905 175.717 137.858 175.793C137.814 175.87 137.753 175.931 137.677 175.978C137.602 176.022 137.519 176.045 137.426 176.045Z" fill="white"/>
<defs>
<clipPath id="clip0_2444_1161">
<rect width="33.3483" height="33.3515" fill="white" transform="matrix(0.707911 0.706301 -0.700049 0.714095 104.533 114)"/>
</clipPath>
</defs>
</svg>
