<svg width="277" height="163" viewBox="0 0 277 163" fill="none" xmlns="http://www.w3.org/2000/svg">
<g clip-path="url(#clip0_1458_3798)">
<path d="M268.92 99.8699C266.96 96.9999 264.01 94.8099 259.96 93.2399C258.92 88.4499 256.72 83.9599 253.55 80.1999C257.72 71.4099 263.35 58.3499 265.54 47.6899C266 45.4399 265.29 43.0999 263.63 41.4099C261.16 38.8999 255.48 37.5599 251.03 37.2499C252.39 36.2699 253.43 34.8999 254.01 33.2699C255.58 28.8699 257.14 24.4599 258.72 20.0599C258.86 19.9899 259 19.9299 259.14 19.8599L261.91 18.5199C262.74 18.1199 263.61 17.6999 264.51 17.2099C266.59 16.0699 268.22 14.3499 269.21 12.2499C270.27 10.0099 270.32 7.57992 269.37 5.40992C268.77 4.05992 267.53 2.19992 264.98 1.04992C263.62 0.439917 262.14 0.0999175 260.47 0.0199175C256.37 -0.180082 253.12 0.989918 250.22 3.59992L247.81 4.09992L246.01 3.47992C243.94 2.76992 241.88 2.04992 239.79 1.34992C238.69 0.979918 236.48 0.509917 234.14 1.49992C233.16 1.90992 232.29 2.35992 231.53 2.76992L231 3.03992C229.13 4.01992 227.84 5.76992 227.46 7.84992C227.39 8.24992 227.36 8.63992 227.36 9.03992C226.24 9.03992 225.32 9.30992 224.67 9.59992C224.23 9.78992 223.79 9.99992 223.34 10.2099L221.41 11.0999C218.69 12.3599 217.68 15.7199 219.25 18.2699L197.35 15.0799L195.15 30.4799C182.83 31.0599 178.87 31.7299 176.97 32.1999C172.96 33.1999 171.39 36.8999 170.9 40.8299C160.63 33.5799 143.31 31.6899 125.01 36.7799L119.81 38.2299L120.33 44.1799L107.8 49.9499C107.37 46.7199 106.94 44.2099 106.5 42.3699C105.71 39.0699 103.16 36.5699 99.5 35.4899C92.78 33.5199 79.73 36.4399 75.01 40.9799C72.74 43.1599 71.83 46.0099 72.52 48.7899C73.39 52.2599 74.17 55.8499 74.89 59.4799C69.16 54.8199 62.2 51.9299 54.69 51.1799C32.74 48.9899 13.22 66.0099 12.86 88.5299C12.72 97.0099 15.49 105.36 20.63 112.11C27.11 120.6 36.59 125.89 47.15 126.94C48.43 127.07 49.69 127.13 50.95 127.13C51.74 127.13 52.52 127.1 53.29 127.05C34.64 132.21 19.78 136.56 11.71 138.92C10.31 139.33 7.15996 140.23 4.31996 141.04C1.33996 141.89 -0.480036 144.89 0.139964 147.93L0.169964 148.09C0.759964 150.97 3.15996 153.11 6.07996 153.36C25.13 154.98 49.5 157.87 63.96 159.78C78.94 161.76 85.21 162.53 88.48 162.53C90.32 162.53 91.21 162.28 92.17 161.86C128.5 146.05 178.96 131.51 212.63 123.47C216.17 126.14 220.26 128 224.64 128.9C236.39 131.32 248.4 126.41 255.17 116.8C256.36 116.86 257.34 116.95 258.13 117.07C257.9 117.29 257.64 117.52 257.36 117.76C252.65 121.84 256.14 127.11 257.82 129.64C258.69 130.95 262.41 136.85 262.41 136.85C264.61 140.76 267.49 140.63 269.81 139.53C272.41 138.3 274.16 135.81 274.84 133.02C277.7 121.19 275.68 109.8 268.94 99.8799L268.92 99.8699ZM201.36 93.3099C192.1 94.6399 181.81 96.3999 170.63 98.5699C175.76 96.7499 179.54 94.9299 182.02 93.5799C184.1 92.4399 186.95 90.8799 188.8 88.7099C191 89.9499 193.4 90.8599 195.95 91.3799C197.62 91.7199 199.28 91.8899 200.91 91.8899C201.18 91.8899 201.44 91.8599 201.71 91.8499C201.58 92.3299 201.47 92.8099 201.36 93.2999V93.3099ZM113.92 96.2799C114.88 101.25 116.9 105.01 121.57 105.22C128.17 105.51 134.68 105.37 141 104.8C131.38 106.96 121.73 109.24 112.27 111.57C112.13 108.49 111.86 102.97 111.49 96.3499L113.92 96.2799ZM227.29 27.3499C227.62 27.6499 227.99 27.9099 228.38 28.1499C227.15 28.4399 226.06 28.9599 225.14 29.6699L220.05 29.7399C220.05 29.7399 219.85 29.7399 219.47 29.7399L222 21.9799C223.61 23.7899 225.35 25.6299 227.29 27.3499ZM81.3 111.92C81.58 116.29 81.68 118.92 81.69 119.02V119.35C77.05 120.57 72.52 121.78 68.13 122.97C73.29 120.34 77.81 116.55 81.31 111.92H81.3Z" fill="white"/>
</g>
<path d="M225.704 17.4084C226.209 17.1779 226.697 16.9475 227.193 16.7348C227.264 16.7082 227.371 16.7348 227.45 16.7613C229.489 17.4173 231.528 18.082 233.566 18.7468C233.717 18.7911 233.832 18.7822 233.974 18.7202C240.719 15.485 247.464 12.2587 254.218 9.03233C255.317 8.50938 256.487 8.39415 257.675 8.44733C258.366 8.48278 259.04 8.58915 259.678 8.87278C260.13 9.07664 260.494 9.36028 260.698 9.83005C260.91 10.2998 260.822 10.7341 260.618 11.1596C260.228 11.9839 259.598 12.5955 258.81 13.0298C257.897 13.5262 256.957 13.9516 256.018 14.4036C254.564 15.1039 253.101 15.7952 251.648 16.4954C251.559 16.5398 251.462 16.6461 251.426 16.7348C249.707 21.4856 248.005 26.2454 246.294 31.0051C246.135 31.4483 245.86 31.7674 245.426 31.9624C244.628 32.3258 243.83 32.7069 243.041 33.088C242.917 33.1501 242.829 33.0969 242.793 32.9905C242.758 32.8664 242.731 32.7335 242.74 32.6094C243.024 29.8794 243.307 27.1583 243.6 24.4283C243.742 23.0722 243.892 21.7249 244.034 20.3688C244.034 20.2979 244.043 20.2181 244.052 20.1118C243.919 20.1738 243.804 20.227 243.697 20.2802C242.368 20.9184 241.047 21.5831 239.638 22.0529C237.741 22.6822 235.809 23.214 233.814 23.4445C233.158 23.5242 232.494 23.5863 231.847 23.4179C231.616 23.3647 231.377 23.2495 231.2 23.0899C229.223 21.3615 227.459 19.4293 225.731 17.4616C225.722 17.4438 225.713 17.4261 225.687 17.3995L225.704 17.4084Z" fill="#1A278E"/>
<path d="M242.953 33.5589C242.873 33.5589 242.793 33.5412 242.722 33.5146C242.563 33.4437 242.448 33.3107 242.386 33.1334C242.323 32.9296 242.297 32.7434 242.315 32.575C242.598 29.845 242.882 27.1239 243.174 24.394L243.547 20.8663L243.298 20.9904C242.173 21.531 241.012 22.0894 239.788 22.4972C237.511 23.2506 235.631 23.7026 233.876 23.9065C233.159 23.9862 232.458 24.0483 231.749 23.871C231.43 23.7912 231.138 23.6406 230.916 23.4456C228.895 21.6728 227.078 19.6697 225.412 17.7729L225.341 17.6665L225.102 17.2499L225.864 16.8599C226.254 16.6827 226.635 16.5054 227.025 16.337C227.229 16.2483 227.433 16.2927 227.592 16.3458C229.631 17.0017 231.669 17.6665 233.708 18.3313C240.533 15.0872 247.278 11.8609 254.032 8.63455C255.069 8.13819 256.239 7.94319 257.702 8.0141C258.535 8.04955 259.244 8.2091 259.864 8.48387C260.467 8.74977 260.875 9.13977 261.114 9.67158C261.354 10.2034 261.318 10.7618 261.034 11.3734C260.618 12.2509 259.944 12.9511 259.04 13.4386C258.331 13.8197 257.604 14.1654 256.895 14.5022L254.307 15.7431C253.492 16.1331 252.676 16.5231 251.869 16.9131C250.159 21.664 248.448 26.4237 246.746 31.1746C246.542 31.7418 246.17 32.1496 245.647 32.3889C244.956 32.6991 244.273 33.0271 243.591 33.355L243.263 33.5146C243.165 33.5589 243.068 33.5855 242.971 33.5855L242.953 33.5589ZM244.557 19.4038L244.504 20.2458C244.504 20.3167 244.504 20.3699 244.495 20.4231L244.061 24.4826C243.777 27.1594 243.493 29.845 243.219 32.5218C243.901 32.1939 244.575 31.8748 245.266 31.5646C245.576 31.4228 245.78 31.2012 245.904 30.8555C247.615 26.0958 249.326 21.336 251.036 16.5852C251.107 16.3813 251.285 16.1863 251.479 16.0888C252.295 15.6988 253.11 15.3088 253.917 14.9188L256.514 13.6779C257.214 13.35 257.932 13.0043 258.615 12.632C259.35 12.2332 259.9 11.6747 260.237 10.9657C260.414 10.5845 260.441 10.3009 260.308 10.0084C260.166 9.68045 259.918 9.45 259.51 9.27272C258.987 9.04227 258.402 8.91818 257.666 8.88273C256.346 8.82068 255.317 8.98909 254.422 9.4234C247.677 12.6497 240.923 15.8849 234.178 19.1113C233.93 19.2265 233.699 19.2442 233.442 19.1645C231.404 18.4997 229.365 17.8349 227.326 17.179C227.317 17.179 227.309 17.179 227.309 17.179C227.016 17.3031 226.724 17.4361 226.431 17.5779C227.964 19.3151 229.657 21.1499 231.519 22.7808C231.634 22.8783 231.802 22.9669 231.98 23.0112C232.547 23.1531 233.159 23.0999 233.788 23.029C235.507 22.8251 237.271 22.4085 239.523 21.6551C240.693 21.2651 241.827 20.7156 242.926 20.1926L244.566 19.4126L244.557 19.4038Z" fill="white"/>
<path d="M244.486 11.9479C244.229 12.072 243.999 12.1783 243.768 12.2847C242.2 13.0204 240.631 13.7472 239.071 14.4917C238.929 14.5626 238.831 14.5538 238.699 14.4651C236.997 13.3572 235.286 12.2581 233.575 11.159C233.504 11.1147 233.434 11.0704 233.38 11.0083C233.239 10.8577 233.256 10.6183 233.442 10.5297C234.249 10.1131 235.047 9.6788 235.88 9.33312C236.164 9.2179 236.58 9.25335 236.89 9.35971C239.363 10.184 241.836 11.0349 244.3 11.877C244.353 11.8947 244.398 11.9213 244.486 11.9567V11.9479Z" fill="#1A278E"/>
<path d="M238.894 14.9886C238.743 14.9886 238.601 14.9443 238.45 14.8468C237.174 14.0136 235.889 13.1893 234.612 12.365L233.327 11.5407C233.247 11.4875 233.141 11.4166 233.044 11.3191C232.884 11.1419 232.804 10.8937 232.849 10.6632C232.893 10.4416 233.026 10.2555 233.23 10.1491L233.708 9.90095C234.347 9.56414 235.011 9.21846 235.703 8.93483C236.226 8.71324 236.846 8.89051 237.023 8.94369C238.938 9.58187 240.852 10.2289 242.767 10.8848L244.442 11.4609C244.442 11.4609 244.531 11.4964 244.584 11.5141L245.497 11.9041L243.955 12.693L243.29 13.0032C241.943 13.6325 240.604 14.2618 239.257 14.9C239.133 14.962 239.009 14.9886 238.894 14.9886ZM233.859 10.8139L235.1 11.6116C236.367 12.4359 237.644 13.2514 238.911 14.0757C240.258 13.4375 241.588 12.8171 242.918 12.1966L243.325 12.0016L242.483 11.718C240.578 11.0621 238.663 10.415 236.749 9.77687C236.491 9.69709 236.199 9.67937 236.048 9.74141C235.401 10.0073 234.754 10.3441 234.125 10.6721L233.85 10.8139H233.859Z" fill="white"/>
<path d="M13.4839 144.421C13.6279 144.38 13.7778 144.336 13.9335 144.291C14.7483 144.054 15.7253 143.769 16.8529 143.44C18.2199 143.042 19.8083 142.579 21.5973 142.059C28.133 140.159 37.3801 137.492 48.4787 134.395C70.6767 128.202 100.279 120.288 130.407 113.351C160.539 106.414 191.179 100.457 215.459 98.171C227.602 97.0277 238.128 96.8053 246.196 97.828C250.229 98.3392 253.627 99.1593 256.297 100.319C258.915 101.455 260.803 102.904 261.923 104.678L261.923 104.685L261.99 104.793C268.056 114.738 268.946 125.346 265.934 135.977C265.799 135.395 265.616 134.811 265.402 134.233C264.834 132.703 264.031 131.176 263.251 129.807C262.893 129.181 262.547 128.597 262.228 128.06C261.837 127.402 261.487 126.813 261.207 126.296C260.955 125.83 260.786 125.469 260.706 125.21C260.68 125.123 260.668 125.062 260.663 125.023C263.824 122.163 265.488 119.657 265.674 117.519C265.77 116.417 265.471 115.432 264.818 114.59C264.173 113.758 263.2 113.088 261.977 112.558C259.536 111.5 255.971 110.948 251.575 110.873C247.168 110.797 241.881 111.2 235.969 112.083L236.042 112.577L235.969 112.083C215.428 115.154 141.57 133.07 90.9358 155.55L13.4839 144.421ZM13.4839 144.421C30.7522 146.333 49.0677 149.29 63.5874 151.684C64.7521 151.876 65.8923 152.064 67.0054 152.248C73.1821 153.269 78.5279 154.152 82.6231 154.758C85.0404 155.116 87.0132 155.375 88.4597 155.509C89.1838 155.576 89.7664 155.611 90.2025 155.612C90.4207 155.613 90.5938 155.605 90.7251 155.591C90.7904 155.583 90.8409 155.575 90.8785 155.567C90.8971 155.562 90.9111 155.559 90.9211 155.555C90.926 155.554 90.9297 155.553 90.9322 155.552C90.9339 155.551 90.935 155.551 90.9355 155.55L90.9356 155.55L13.4839 144.421Z" fill="#FF0000" stroke="white"/>
<path d="M101.806 46.5556C100.698 40.9178 81.5906 45.4245 82.344 49.0719C88.6526 79.6457 88.9794 118.286 88.9794 118.286L105.164 114.735C105.164 114.735 104.42 59.7863 101.815 46.5556H101.806Z" fill="#1A278E"/>
<path d="M88.5257 118.829V118.285C88.5257 117.899 88.1263 79.3291 81.8902 49.1499C81.745 48.4573 82.0899 47.7646 82.9069 47.0719C85.8933 44.5468 95.2247 42.4688 99.6362 43.9418C101.116 44.4328 102.014 45.3096 102.241 46.4582C104.828 59.575 105.6 114.164 105.6 114.716V115.076L88.5166 118.829H88.5257ZM95.9509 44.3363C91.5121 44.3363 85.6573 45.9409 83.5151 47.747C83.1338 48.0715 82.6981 48.5449 82.798 48.9921C88.6437 77.2949 89.3608 112.937 89.4334 117.75L104.71 114.401C104.638 109.649 103.83 59.1366 101.37 46.6511C101.207 45.8093 100.526 45.1868 99.3548 44.801C98.4289 44.4942 97.2489 44.3539 95.9509 44.3539V44.3363Z" fill="white"/>
<path d="M125.975 75.002L124.277 90.0701L101.675 90.6874L97.4268 78.5965L125.975 75.002Z" fill="#1A278E"/>
<path d="M101.357 91.1514L96.8188 78.2164L126.492 74.4766L124.686 90.516L101.357 91.1514ZM98.0443 78.9789L101.993 90.2255L123.869 89.6264L125.457 75.5204L98.0443 78.9789Z" fill="white"/>
<path d="M127.359 67.4147L122.076 52.3828L97.6035 63.6386L100.036 75.3936L127.359 67.4147Z" fill="#1A278E"/>
<path d="M99.6909 75.9662L97.0767 63.3852L122.329 51.7754L127.939 67.7241L99.6818 75.9753L99.6909 75.9662ZM98.1205 63.9026L100.39 74.8134L126.777 67.1068L121.821 53.0008L98.1296 63.8935L98.1205 63.9026Z" fill="white"/>
<path d="M178.169 39.5667C176.166 40.0631 176.937 52.667 178.24 52.348C194.788 48.3682 220.333 46.8614 220.333 46.8614L219.057 37.3242C219.057 37.3242 185.304 37.7851 178.169 39.5578V39.5667Z" fill="#1A278E"/>
<path d="M178.178 52.8066C177.478 52.8066 177.185 51.6366 177.079 51.1757C176.423 48.49 175.891 39.6708 178.063 39.139C185.162 37.3751 217.674 36.9142 219.057 36.8965H219.447L220.838 47.2846L220.36 47.3112C220.102 47.3289 194.664 48.8534 178.346 52.78C178.293 52.7977 178.231 52.7977 178.178 52.7977V52.8066ZM178.275 39.9987C178.178 40.0253 177.938 40.2912 177.735 41.1244C176.972 44.2887 177.575 50.9807 178.258 51.8936C193.414 48.2684 216.247 46.6907 219.828 46.4603L218.667 37.7917C214.864 37.8538 184.861 38.3678 178.266 39.9987H178.275Z" fill="white"/>
<path d="M202.074 23.7871L213.482 25.4446L208.332 41.2395L199.619 40.9558L202.074 23.7871Z" fill="#1A278E"/>
<path d="M208.651 41.6928L199.104 41.3826L201.693 23.2832L214.066 25.0914L208.651 41.7017V41.6928ZM200.124 40.5317L208.012 40.7887L212.896 25.8093L202.446 24.2848L200.124 40.5228V40.5317Z" fill="white"/>
<path d="M119.152 84.5377C119.873 82.9394 137.205 91.2462 176.841 72.1921C177.005 72.1119 180.194 79.9368 181.541 84.4896C181.964 85.918 160.139 100.681 121.067 99.1455C119.506 99.0837 118.113 86.8457 119.152 84.5377Z" fill="#1A278E"/>
<path d="M155.389 96.6426C146.151 98.786 134.649 100.193 121.075 99.6535C120.717 99.6411 120.399 99.3653 120.112 98.838C118.702 96.2079 117.785 86.4141 118.744 84.2729C119.02 83.6577 119.795 83.7429 121.87 83.9822C128.312 84.7244 145.433 86.7095 176.638 71.7104L176.819 71.6261L177.015 71.7288C177.632 72.0734 181.048 81.2662 181.955 84.3524C182.026 84.5797 181.976 84.8351 181.815 85.0844C180.644 86.9357 171.464 92.9026 155.387 96.6326L155.389 96.6426ZM119.519 84.867C118.852 86.58 119.434 94.1088 120.51 97.4526C120.844 98.4988 121.076 98.6358 121.076 98.6358C159.688 100.15 179.965 86.1285 181.064 84.4742C179.878 80.4988 177.399 74.3218 176.689 72.8327C145.502 87.7535 128.325 85.7602 121.844 85.006C120.787 84.8803 119.797 84.7707 119.517 84.8569L119.519 84.867Z" fill="white"/>
<path d="M199.45 86.6148C209.319 86.6148 217.319 78.6146 217.319 68.7459C217.319 58.8772 209.319 50.877 199.45 50.877C189.582 50.877 181.582 58.8772 181.582 68.7459C181.582 78.6146 189.582 86.6148 199.45 86.6148Z" fill="#1A278E"/>
<path d="M199.45 87.057C198.227 87.057 196.995 86.9329 195.754 86.6848C190.968 85.7009 186.846 82.9089 184.152 78.8228C181.457 74.7367 180.518 69.8529 181.511 65.0577C183.54 55.1659 193.246 48.7842 203.129 50.8139C207.915 51.7978 212.037 54.5898 214.731 58.6759C217.426 62.762 218.356 67.6458 217.373 72.441C215.591 81.0919 207.951 87.0659 199.442 87.0659L199.45 87.057ZM199.442 51.3192C191.349 51.3192 184.072 57.0007 182.379 65.235C181.44 69.7908 182.335 74.4442 184.896 78.3264C187.458 82.2087 191.376 84.8677 195.932 85.8073C200.487 86.7468 205.141 85.8516 209.023 83.29C212.905 80.7285 215.564 76.8108 216.504 72.2549C217.443 67.699 216.548 63.0457 213.987 59.1634C211.425 55.2812 207.507 52.6221 202.952 51.6826C201.773 51.4433 200.594 51.3192 199.442 51.3192Z" fill="white"/>
<path d="M50.1925 120.936C67.1672 120.936 80.928 107.175 80.928 90.2003C80.928 73.2256 67.1672 59.4648 50.1925 59.4648C33.2178 59.4648 19.457 73.2256 19.457 90.2003C19.457 107.175 33.2178 120.936 50.1925 120.936Z" fill="#1A278E"/>
<path d="M50.2465 121.389C49.2027 121.389 48.1497 121.334 47.1058 121.235C38.8183 120.408 31.3387 116.405 26.0648 109.961C20.7819 103.516 18.331 95.4007 19.1571 87.1042C20.8636 69.9936 36.1678 57.4489 53.2874 59.1554C61.5749 59.9814 69.0545 63.9845 74.3284 70.4293C79.6114 76.8741 82.0622 84.9892 81.2362 93.2858C80.4101 101.582 76.4071 109.053 69.9623 114.327C64.3344 118.938 57.4357 121.389 50.2556 121.389H50.2465ZM50.1649 59.9088C34.8062 59.9088 21.6079 71.5912 20.0466 87.1949C19.2478 95.2464 21.6261 103.125 26.7547 109.38C31.8833 115.634 39.136 119.528 47.1875 120.327C55.239 121.126 63.118 118.747 69.3722 113.619C75.6265 108.49 79.5206 101.237 80.3194 93.1859C81.1182 85.1344 78.7399 77.2554 73.6113 71.0012C68.4827 64.747 61.23 60.8528 53.1785 60.0541C52.1618 59.9542 51.1543 59.8997 50.1558 59.8997L50.1649 59.9088Z" fill="white"/>
<path d="M68.2373 91.5344C67.8743 91.5344 67.5112 91.4799 67.1572 91.4254C66.6034 91.3528 66.0588 91.2621 65.4869 91.1713C65.2328 91.9519 64.9695 92.7326 64.7063 93.5314C64.2434 93.377 63.8077 93.2318 63.372 93.0866C63.6261 92.315 63.8621 91.5707 64.0891 90.8717C62.8273 90.3634 61.611 89.8823 60.3765 89.3831C59.9408 90.0185 59.4869 90.672 59.024 91.3437C58.6336 91.0714 58.2524 90.8082 57.8621 90.545C58.3069 89.8914 58.7335 89.2741 59.1329 88.6841C58.0255 87.8309 56.9453 86.9958 55.7925 86.1153C55.2932 86.6599 54.7486 87.2499 54.2675 87.7673C53.8772 87.3952 53.5413 87.0865 53.1964 86.7598C53.7501 86.206 54.3038 85.6523 54.8303 85.1259C54.0315 84.0547 53.2327 82.9927 52.4248 81.9125C51.8257 82.3119 51.1994 82.7204 50.564 83.147C50.2917 82.7476 50.0466 82.3664 49.7834 81.9761C50.4641 81.5222 51.1268 81.0774 51.7259 80.6689C51.2266 79.3891 50.7546 78.1727 50.2735 76.9291C49.5746 77.147 48.8484 77.3648 48.1041 77.6008C47.9588 77.147 47.8318 76.7203 47.6865 76.2574C48.4762 76.0032 49.2387 75.7672 49.9921 75.5221C49.9104 74.9594 49.8287 74.451 49.7652 73.9336C49.7017 73.4072 49.6654 72.8807 49.6109 72.3633C46.6245 72.6174 42.3491 74.1152 39.0178 77.7552C36.5125 80.4874 35.042 83.7098 34.5972 87.4224C34.933 87.4587 35.2326 87.4769 35.5321 87.5132C35.8317 87.5495 36.1312 87.5949 36.4308 87.6402C36.7485 87.6856 37.1479 87.8672 37.3476 87.7401C37.5563 87.613 37.5836 87.1773 37.6834 86.8687C37.8105 86.4965 37.9376 86.1153 38.0737 85.7249C38.5367 85.8793 38.9542 86.0154 39.399 86.1607C39.1812 86.8233 38.9724 87.4769 38.7727 88.0941C40.0435 88.6024 41.2871 89.1017 42.567 89.61C42.9391 89.0744 43.3385 88.4935 43.7561 87.9035C44.1555 88.1758 44.5276 88.439 44.918 88.7023C44.5276 89.2651 44.1555 89.8097 43.8106 90.318C44.8998 91.1622 45.9709 91.9792 47.0874 92.8506C47.5413 92.3695 48.0224 91.8521 48.449 91.3982C48.8121 91.7522 49.1479 92.079 49.5201 92.4421C49.039 92.9232 48.5489 93.4224 48.095 93.8944C48.9029 94.9746 49.7198 96.0821 50.5549 97.2076C51.0814 96.8627 51.6351 96.4905 52.207 96.1184C52.4793 96.5268 52.7244 96.899 52.9876 97.2893C52.3613 97.7069 51.7803 98.0972 51.2357 98.4603C51.7168 99.7493 52.1888 101.002 52.6699 102.273C53.3144 102.073 53.9861 101.864 54.6669 101.655C54.8121 102.118 54.9392 102.545 55.0845 102.999C54.3492 103.235 53.6503 103.453 52.9513 103.671C53.0602 104.578 53.1692 105.459 53.2872 106.385C53.9498 106.276 54.6124 106.203 55.2569 106.049C61.0028 104.66 65.0603 101.247 67.4295 95.837C67.9832 94.5752 68.31 93.25 68.5369 91.8975C68.5823 91.6433 68.5097 91.5525 68.2373 91.5434V91.5344Z" fill="white"/>
<path d="M68.3736 85.9246C67.1027 80.2332 63.8077 76.1575 58.5429 73.6976C56.2645 72.6355 53.8318 72.1907 51.3175 72.218C51.1178 72.218 51.0361 72.2815 51.0542 72.4903C51.0996 72.9169 51.1087 73.3436 51.1631 73.7611C51.2176 74.1968 51.2993 74.6325 51.3719 75.1045C51.9892 74.9139 52.552 74.7414 53.1511 74.5599C53.2963 75.0228 53.4325 75.4585 53.5686 75.9033C52.9332 76.103 52.3341 76.2936 51.6442 76.5115C52.0799 77.6552 52.4975 78.7445 52.9332 79.8791C53.5232 79.4888 54.0225 79.153 54.5489 78.808C54.8213 79.2165 55.0663 79.5887 55.3296 79.979C54.7668 80.3602 54.2222 80.7233 53.6685 81.0955C54.3311 82.1848 55.0573 83.1833 55.9741 84.1636C56.4098 83.6916 56.8183 83.2468 57.1541 82.8837C57.5354 83.2105 57.8803 83.501 58.2615 83.8277C57.7986 84.2816 57.3629 84.6901 56.8727 85.1802C57.8984 85.97 58.906 86.7415 59.9408 87.5312C60.3584 86.9321 60.7215 86.4057 61.1027 85.852C61.5021 86.1243 61.8743 86.3875 62.2555 86.6598C61.9015 87.1772 61.5656 87.6674 61.1844 88.2302C62.2192 88.6205 63.1995 88.9927 64.1799 89.3739C64.4613 89.4828 64.5974 89.4375 64.6791 89.1198C64.8062 88.6387 64.9878 88.1667 65.1511 87.6674C65.6232 87.8217 66.0498 87.967 66.4855 88.1122C66.2949 88.6931 66.1224 89.2287 65.9318 89.8006C66.0498 89.8278 66.1496 89.8641 66.2495 89.8732C66.9666 89.9639 67.6928 90.0456 68.4099 90.1455C68.664 90.1818 68.7094 90.0819 68.7094 89.855C68.7366 88.5297 68.6549 87.2135 68.3645 85.9246H68.3736Z" fill="white"/>
<path d="M49.6291 104.694C49.4838 104.231 49.3477 103.796 49.2115 103.351C49.9105 103.124 50.5822 102.915 51.3174 102.679C50.8908 101.517 50.4733 100.41 50.0466 99.239C49.3931 99.6747 48.8212 100.056 48.2403 100.437C47.968 100.029 47.7229 99.6566 47.4596 99.2662C48.095 98.8396 48.7032 98.4311 49.3295 98.0136C48.6487 96.8608 47.8863 95.826 46.9241 94.7821C46.4339 95.3358 45.98 95.8532 45.5534 96.3252C45.1722 95.9621 44.8363 95.6535 44.5005 95.3358C44.9906 94.8366 45.4808 94.3464 45.9891 93.8381C45.0632 92.9666 44.0738 92.1951 42.9755 91.5415C42.5489 92.1679 42.1313 92.767 41.6865 93.4114C41.2962 93.1391 40.924 92.885 40.5246 92.6126C40.9331 92.0135 41.3234 91.4417 41.7682 90.7972C40.6063 90.3343 39.4898 89.8986 38.3461 89.4538C38.0919 90.2163 37.865 90.897 37.629 91.596C37.1661 91.4417 36.7394 91.2964 36.2946 91.1512C36.5125 90.4795 36.7213 89.8441 36.9482 89.1451C36.1222 89.0362 35.3325 88.9273 34.4883 88.8184C34.4883 94.2284 36.3945 98.7125 40.3885 102.234C43.6381 105.094 47.4869 106.455 51.8802 106.455C51.7804 105.638 51.6896 104.885 51.5988 104.104C50.909 104.322 50.2917 104.513 49.6382 104.713L49.6291 104.694Z" fill="white"/>
<path d="M51.4992 69.6035C40.6065 69.6035 31.7744 78.4357 31.7744 89.3283C31.7744 100.221 40.6065 109.053 51.4992 109.053C62.3919 109.053 71.224 100.221 71.224 89.3283C71.224 78.4357 62.3919 69.6035 51.4992 69.6035ZM51.5809 107.982C41.2964 107.982 32.9454 99.6037 32.9454 89.2829C32.9454 79.0075 41.3418 70.6746 51.6717 70.6837C61.9199 70.6837 70.2437 79.0892 70.2437 89.41C70.2437 99.631 61.8472 107.982 51.5718 107.982H51.5809Z" fill="white"/>
<path d="M162.934 111.128L147.759 112.921L148.967 91.1463L160.232 88.517L162.934 111.128Z" fill="#1A278E"/>
<path d="M147.284 113.419L148.545 90.7817L160.613 87.9709L163.428 111.502L147.283 113.41L147.284 113.419ZM149.396 91.4991L148.225 112.43L162.44 110.743L159.849 89.0606L149.396 91.4991Z" fill="white"/>
<path d="M199.468 74.807C202.944 74.807 205.762 71.9894 205.762 68.5138C205.762 65.0382 202.944 62.2207 199.468 62.2207C195.993 62.2207 193.175 65.0382 193.175 68.5138C193.175 71.9894 195.993 74.807 199.468 74.807Z" fill="#1A278E"/>
<path d="M199.486 75.251C199.247 75.251 199.016 75.2421 198.777 75.2155C196.986 75.0294 195.382 74.1608 194.247 72.7603C193.113 71.3599 192.59 69.6049 192.776 67.8233C193.157 64.1272 196.49 61.4327 200.168 61.8227C203.864 62.2038 206.55 65.5277 206.169 69.2149C205.983 71.0053 205.114 72.6096 203.714 73.7442C202.499 74.728 201.019 75.251 199.486 75.251ZM199.468 62.6647C196.517 62.6647 193.964 64.9072 193.654 67.9119C193.494 69.4631 193.946 70.9876 194.93 72.2019C195.914 73.4162 197.314 74.1696 198.865 74.338C200.417 74.4976 201.941 74.0455 203.155 73.0617C204.37 72.0778 205.123 70.6774 205.283 69.1263C205.619 65.9176 203.279 63.037 200.071 62.7002C199.867 62.6824 199.663 62.6647 199.459 62.6647H199.468Z" fill="white"/>
<path d="M229.126 123.231C241.922 123.231 252.295 112.858 252.295 100.062C252.295 87.2658 241.922 76.8926 229.126 76.8926C216.33 76.8926 205.957 87.2658 205.957 100.062C205.957 112.858 216.33 123.231 229.126 123.231Z" fill="#1A278E"/>
<path d="M229.126 123.676C227.557 123.676 225.961 123.517 224.366 123.189C218.188 121.921 212.879 118.314 209.404 113.049C205.93 107.784 204.724 101.482 205.992 95.3038C208.615 82.5492 221.122 74.3149 233.876 76.9297C246.631 79.5533 254.874 92.0598 252.251 104.814C249.955 115.965 240.099 123.676 229.126 123.676ZM229.117 77.3285C218.56 77.3285 209.067 84.7385 206.86 95.4811C205.637 101.429 206.807 107.491 210.14 112.561C213.473 117.631 218.596 121.097 224.543 122.32C236.819 124.846 248.856 116.913 251.382 104.637C253.908 92.3611 245.975 80.3244 233.699 77.7983C232.166 77.4792 230.624 77.3285 229.117 77.3285Z" fill="white"/>
<path d="M242.713 102.773C242.465 102.747 242.226 102.684 241.986 102.622C241.614 102.534 241.251 102.427 240.861 102.33C240.63 102.844 240.4 103.358 240.161 103.881C239.859 103.748 239.576 103.615 239.283 103.482C239.513 102.968 239.726 102.481 239.93 102.029C239.106 101.594 238.308 101.178 237.501 100.752C237.156 101.151 236.801 101.568 236.438 101.993C236.19 101.78 235.95 101.577 235.702 101.364C236.057 100.947 236.385 100.557 236.704 100.185C236.012 99.5291 235.33 98.882 234.612 98.1995C234.231 98.5363 233.823 98.8997 233.46 99.2188C233.22 98.9441 233.016 98.7047 232.804 98.4566C233.22 98.1197 233.637 97.7741 234.036 97.455C233.566 96.6661 233.096 95.8861 232.626 95.0973C232.192 95.3277 231.74 95.5582 231.27 95.8064C231.12 95.5139 230.969 95.2391 230.818 94.9555C231.315 94.6896 231.793 94.4414 232.236 94.2021C231.988 93.298 231.749 92.4293 231.51 91.5518C231.013 91.6493 230.508 91.7469 229.985 91.8532C229.923 91.5341 229.861 91.2328 229.79 90.9137C230.349 90.7984 230.88 90.6832 231.412 90.5769C231.394 90.1869 231.377 89.8323 231.368 89.4778C231.368 89.1144 231.368 88.7598 231.368 88.3964C229.32 88.3521 226.298 89.0789 223.772 91.3125C221.875 92.9966 220.643 95.0884 220.076 97.5791C220.306 97.6234 220.51 97.6588 220.705 97.712C220.909 97.7563 221.104 97.8095 221.308 97.8627C221.52 97.9159 221.777 98.0666 221.928 97.9957C222.079 97.9248 222.132 97.6234 222.221 97.4284C222.336 97.1802 222.451 96.932 222.566 96.675C222.868 96.8079 223.151 96.9409 223.444 97.065C223.249 97.5082 223.063 97.9336 222.885 98.3325C223.71 98.7668 224.525 99.2011 225.358 99.6354C225.651 99.2897 225.961 98.9263 226.289 98.5541C226.537 98.7668 226.777 98.9707 227.025 99.1834C226.723 99.5379 226.431 99.8836 226.156 100.203C226.839 100.859 227.503 101.488 228.212 102.162C228.558 101.869 228.922 101.55 229.241 101.266C229.462 101.532 229.666 101.78 229.897 102.055C229.533 102.348 229.17 102.658 228.824 102.942C229.294 103.739 229.772 104.546 230.269 105.37C230.65 105.175 231.058 104.962 231.474 104.741C231.634 105.042 231.776 105.308 231.926 105.592C231.474 105.831 231.04 106.061 230.65 106.265C230.889 107.178 231.12 108.065 231.359 108.969C231.811 108.88 232.281 108.783 232.759 108.694C232.821 109.022 232.884 109.323 232.946 109.642C232.431 109.749 231.935 109.846 231.448 109.953C231.457 110.573 231.474 111.185 231.483 111.823C231.944 111.796 232.396 111.796 232.848 111.734C236.863 111.194 239.868 109.164 241.862 105.636C242.323 104.821 242.651 103.934 242.89 103.03C242.935 102.862 242.89 102.791 242.713 102.773Z" fill="white"/>
<path d="M243.201 98.9613C242.74 94.9993 240.79 91.9856 237.368 89.9382C235.888 89.0518 234.266 88.582 232.547 88.4136C232.414 88.4048 232.352 88.4314 232.352 88.582C232.352 88.8745 232.334 89.167 232.334 89.4595C232.334 89.7609 232.361 90.0623 232.378 90.3902C232.813 90.3104 233.211 90.2307 233.628 90.1509C233.69 90.4788 233.752 90.7802 233.814 91.0904C233.371 91.1791 232.946 91.2677 232.458 91.3652C232.671 92.1718 232.884 92.9518 233.096 93.7495C233.522 93.5279 233.894 93.3329 234.275 93.1379C234.426 93.4304 234.576 93.7052 234.727 93.9888C234.319 94.2104 233.921 94.4143 233.513 94.6359C233.885 95.4247 234.311 96.1515 234.869 96.8872C235.197 96.5947 235.507 96.3199 235.764 96.0983C236.003 96.3465 236.216 96.5681 236.456 96.8163C236.11 97.0911 235.782 97.3392 235.41 97.6317C236.057 98.2433 236.686 98.8372 237.333 99.4488C237.661 99.0676 237.945 98.7397 238.246 98.3851C238.494 98.5979 238.733 98.8106 238.973 99.0144C238.689 99.3424 238.432 99.6526 238.131 100.007C238.804 100.344 239.451 100.672 240.09 101C240.276 101.097 240.373 101.08 240.453 100.867C240.568 100.548 240.728 100.238 240.878 99.9097C241.189 100.051 241.463 100.176 241.756 100.309C241.588 100.69 241.428 101.044 241.26 101.416C241.339 101.443 241.401 101.479 241.472 101.487C241.96 101.603 242.438 101.709 242.926 101.833C243.094 101.877 243.13 101.806 243.156 101.656C243.272 100.761 243.307 99.8565 243.201 98.9524V98.9613Z" fill="white"/>
<path d="M229.108 110.423C229.046 110.095 228.984 109.794 228.922 109.475C229.418 109.377 229.888 109.28 230.402 109.173C230.189 108.358 229.985 107.569 229.773 106.745C229.294 106.993 228.877 107.215 228.452 107.436C228.292 107.144 228.151 106.869 228 106.585C228.461 106.337 228.904 106.107 229.356 105.867C228.975 105.034 228.532 104.272 227.947 103.501C227.574 103.838 227.229 104.157 226.91 104.449C226.67 104.174 226.475 103.944 226.263 103.705C226.635 103.403 226.998 103.102 227.379 102.792C226.812 102.136 226.192 101.542 225.491 101.01C225.155 101.409 224.827 101.781 224.481 102.189C224.233 101.976 223.994 101.772 223.745 101.56C224.064 101.178 224.375 100.815 224.72 100.407C223.958 100.008 223.231 99.6362 222.487 99.2462C222.256 99.7514 222.052 100.195 221.849 100.655C221.547 100.523 221.264 100.39 220.971 100.257C221.166 99.8135 221.352 99.3969 221.556 98.936C221.007 98.803 220.475 98.6789 219.907 98.5371C219.517 102.224 220.501 105.406 222.974 108.092C224.986 110.272 227.503 111.469 230.499 111.779C230.491 111.212 230.482 110.698 230.473 110.157C229.985 110.255 229.551 110.343 229.099 110.432L229.108 110.423Z" fill="white"/>
<path d="M227.45 37.6647C227.574 37.0088 228.168 36.7163 228.824 36.6188C231.474 36.1933 240.001 37.6824 239.983 39.136C239.939 42.5219 235.126 58.7865 235.126 58.7865L240.71 60.3908L244.344 46.5371C244.503 45.9255 245.088 45.7039 245.718 45.5798C248.882 44.986 256.966 46.8562 256.708 48.0971C253.58 63.3069 242.163 84.9606 242.163 84.9606L233.991 82.3104L238.228 68.5719L233.185 65.8685L230.277 75.2639L221.042 72.3832L227.441 37.6381L227.45 37.6647Z" fill="#1A278E"/>
<path d="M242.385 85.5095L233.442 82.6112L237.705 68.8017L233.46 66.5327L230.579 75.8394L220.545 72.7106L227.016 37.5754C227.158 36.8309 227.769 36.3257 228.753 36.1661C231.066 35.785 238.335 36.8841 239.992 38.3111C240.285 38.5593 240.426 38.834 240.426 39.1265C240.382 42.2642 236.456 55.8166 235.676 58.4757L240.391 59.8318L243.91 46.4212C244.149 45.526 245 45.2601 245.629 45.1449C248.475 44.6042 255.503 46.0135 256.851 47.3874C257.161 47.6976 257.179 47.999 257.143 48.1851C254.041 63.2797 242.678 84.9511 242.562 85.1727L242.385 85.5007V85.5095ZM234.55 82.0439L241.951 84.4371C243.387 81.6539 253.411 61.9768 256.274 48.0167C255.893 47.2101 248.794 45.464 245.798 46.0224C245 46.1731 244.832 46.4212 244.77 46.6517L241.02 60.9398L234.576 59.0873L234.701 58.6618C234.745 58.5023 239.496 42.4149 239.54 39.1265C239.265 38.2136 231.802 36.5827 228.895 37.0525C228.292 37.15 227.946 37.3804 227.884 37.7438L221.556 72.1078L229.994 74.7403L232.928 65.2474L238.769 68.3763L234.55 82.0439Z" fill="white"/>
<path d="M244.159 71.135L247.704 62.041L232.157 57.2812L228.612 63.6985L244.159 71.135Z" fill="#1A278E"/>
<path d="M244.398 71.7402L227.991 63.896L231.936 56.752L248.289 61.7599L244.398 71.7402ZM229.232 63.506L243.928 70.5348L247.128 62.336L232.379 57.8156L229.241 63.506H229.232Z" fill="white"/>
<path d="M92.3365 145.44L90.0302 138.713L93.0751 137.665C94.2968 137.249 95.3325 137.552 95.7171 138.678C95.9977 139.498 95.7958 140.076 95.1961 140.505L95.2164 140.557C96.0742 140.497 96.6802 140.901 96.9603 141.713C97.4069 143.013 96.7247 143.925 95.3287 144.403L92.3449 145.431L92.3365 145.44ZM91.8397 139.404L92.3486 140.887L93.7969 140.389C94.294 140.213 94.5242 139.846 94.3578 139.358C94.1914 138.869 93.785 138.73 93.288 138.905L91.8397 139.404ZM93.3453 143.784L94.8374 143.274C95.3783 143.087 95.6736 142.602 95.4965 142.079C95.3195 141.555 94.7848 141.333 94.2439 141.52L92.7518 142.029L93.3537 143.774L93.3453 143.784Z" fill="white"/>
<path d="M100.942 138.638C100.838 138.342 100.491 138.146 99.9243 138.343C99.3307 138.541 99.0735 138.9 99.2125 139.373L97.7815 139.861C97.4172 138.788 98.1883 137.702 99.5149 137.254C100.92 136.776 101.951 137.168 102.46 138.66L103.169 140.772C103.264 141.061 103.385 141.356 103.524 141.642L102.276 142.068C102.171 141.932 102.072 141.715 101.993 141.559L101.958 141.561C101.848 142.028 101.256 142.608 100.557 142.847C99.6151 143.169 98.6263 142.916 98.3439 142.061C98.0421 141.171 98.4011 140.363 99.3692 139.844C100.034 139.483 100.621 139.143 101.024 138.856L100.96 138.655L100.942 138.638ZM100.444 141.636C101.055 141.428 101.692 140.864 101.514 140.323L101.369 139.904C100.957 140.182 100.482 140.445 100.043 140.725C99.7502 140.899 99.6112 141.137 99.7347 141.477C99.829 141.765 100.113 141.759 100.444 141.645L100.444 141.636Z" fill="white"/>
<path d="M105.763 139.205C105.899 139.624 106.297 139.764 106.917 139.564C107.458 139.386 107.663 139.057 107.569 138.76C107.475 138.489 107.153 138.425 106.692 138.439C106.417 138.444 105.841 138.464 105.495 138.455C104.562 138.439 104.036 138.217 103.786 137.475C103.504 136.62 103.984 135.744 105.345 135.285C106.733 134.825 107.707 135.123 108.04 136.109L106.687 136.558C106.565 136.263 106.203 136.121 105.697 136.297C105.174 136.474 105.034 136.703 105.138 137.008C105.222 137.253 105.542 137.272 105.914 137.254C106.312 137.234 106.756 137.229 107.164 137.236C108.124 137.259 108.67 137.533 108.922 138.31C109.214 139.192 108.805 140.056 107.216 140.579C105.68 141.09 104.742 140.622 104.418 139.636L105.771 139.187L105.763 139.205Z" fill="white"/>
<path d="M111.198 136.803C111.525 137.487 111.958 137.794 112.578 137.595C113.189 137.395 113.458 137.107 113.365 136.659L114.719 136.219C114.918 137.362 114.253 138.274 113.031 138.681C111.372 139.226 110.173 138.318 109.682 136.825C109.2 135.349 109.65 133.88 111.283 133.346C112.916 132.812 114.063 133.758 114.545 135.233C114.588 135.373 114.631 135.522 114.665 135.68L111.207 136.811L111.198 136.803ZM112.967 135.09C112.672 134.51 112.233 134.239 111.604 134.448C110.993 134.647 110.794 135.11 110.889 135.771L112.967 135.09Z" fill="white"/>
<path d="M116.761 137.289L114.522 130.319L115.876 129.879L116.717 132.508L116.752 132.506C116.834 132.014 117.151 131.43 117.928 131.178C119.265 130.748 120.574 131.561 121.079 133.133C121.583 134.705 120.987 136.093 119.642 136.524C118.917 136.755 118.35 136.597 117.907 136.247L117.871 136.249L118.071 136.869L116.761 137.289ZM119.041 135.498C119.748 135.267 120.04 134.543 119.724 133.547C119.408 132.551 118.74 132.141 118.032 132.362C117.307 132.594 116.989 133.329 117.305 134.325C117.621 135.32 118.316 135.729 119.041 135.498Z" fill="white"/>
<path d="M125.322 130.677C125.228 130.38 124.88 130.176 124.312 130.355C123.709 130.545 123.452 130.904 123.582 131.376L122.141 131.83C121.794 130.747 122.592 129.678 123.92 129.256C125.335 128.804 126.359 129.223 126.833 130.717L127.507 132.84C127.601 133.128 127.714 133.424 127.843 133.711L126.585 134.111C126.481 133.965 126.39 133.757 126.32 133.591L126.285 133.593C126.166 134.061 125.564 134.623 124.856 134.845C123.904 135.15 122.923 134.871 122.659 134.023C122.374 133.123 122.751 132.323 123.729 131.822C124.404 131.477 125 131.146 125.403 130.868L125.34 130.667L125.322 130.677ZM124.762 133.669C125.382 133.47 126.029 132.923 125.851 132.372L125.714 131.953C125.293 132.223 124.818 132.477 124.379 132.748C124.086 132.922 123.946 133.151 124.052 133.492C124.146 133.78 124.421 133.784 124.762 133.678L124.762 133.669Z" fill="white"/>
<path d="M129.118 132.216L127.258 126.256L128.612 125.834L130.43 131.654C130.471 131.776 130.563 131.842 130.677 131.81C130.799 131.768 130.973 131.697 131.093 131.611L131.42 132.651C131.171 132.823 130.903 132.961 130.588 133.057C129.802 133.3 129.371 133.029 129.118 132.216Z" fill="white"/>
<path d="M132.15 131.275L130.308 125.305L131.671 124.882L133.471 130.712C133.513 130.834 133.605 130.9 133.718 130.868C133.841 130.826 134.014 130.755 134.134 130.67L134.453 131.71C134.204 131.882 133.935 132.011 133.621 132.115C132.834 132.359 132.404 132.087 132.15 131.275Z" fill="white"/>
<path d="M134.402 128.375L134.041 127.195L137.704 126.08L138.065 127.26L134.402 128.375Z" fill="white"/>
<path d="M140.163 123.793L138.799 124.199L138.393 122.834L139.757 122.429L140.163 123.793ZM140.491 129.829L138.98 124.802L140.344 124.397L141.855 129.424L140.491 129.829Z" fill="white"/>
<path d="M143.378 123.499L143.586 124.279L143.621 124.277C143.735 123.703 144.139 123.089 145.049 122.821C146.186 122.489 147.034 122.944 147.472 124.44L148.371 127.501L147.006 127.906L146.151 124.994C145.926 124.224 145.467 123.919 144.759 124.123C144.033 124.336 143.847 125.056 144.091 125.869L144.873 128.536L143.508 128.942L142.032 123.913L143.37 123.517L143.378 123.499Z" fill="white"/>
<path d="M153.526 120.561L154.838 125.146C155.258 126.625 154.559 127.743 153.02 128.183C151.585 128.592 150.494 128.079 150.225 127.134L151.59 126.746C151.686 127.07 152.102 127.235 152.785 127.033C153.441 126.849 153.689 126.304 153.473 125.534L153.311 124.965L153.258 124.968C153.194 125.468 152.687 125.972 151.943 126.178C150.596 126.565 149.441 125.833 149.021 124.354C148.602 122.893 149.203 121.612 150.524 121.226C151.329 120.991 152.023 121.204 152.346 121.632L152.399 121.629L152.205 120.929L153.526 120.553L153.526 120.561ZM151.188 122.249C150.479 122.453 150.119 123.057 150.376 123.949C150.634 124.841 151.254 125.165 151.962 124.961C152.689 124.757 153.075 124.143 152.817 123.25C152.559 122.349 151.914 122.035 151.188 122.249Z" fill="white"/>
<path d="M160.623 124.05L159.07 118.368L157.117 118.9L156.792 117.71L162.141 116.253L162.467 117.444L160.515 117.976L162.068 123.658L160.623 124.05Z" fill="white"/>
<path d="M167.291 118.089C167.059 118.065 166.883 118.083 166.612 118.158C165.814 118.367 165.271 119.219 165.479 120.007L166.148 122.565L164.773 122.927L163.437 117.855L164.768 117.505L164.998 118.363L165.033 118.361C165.299 117.647 165.845 117.034 166.932 116.749L167.292 118.106L167.291 118.089Z" fill="white"/>
<path d="M171.744 117.335C171.667 117.028 171.336 116.805 170.749 116.959C170.136 117.114 169.851 117.447 169.955 117.93L168.482 118.306C168.205 117.201 169.06 116.182 170.419 115.848C171.865 115.483 172.856 115.957 173.242 117.482L173.785 119.638C173.862 119.936 173.957 120.233 174.069 120.529L172.79 120.85C172.694 120.704 172.612 120.487 172.55 120.321L172.515 120.323C172.369 120.774 171.73 121.312 171.02 121.489C170.056 121.732 169.09 121.399 168.869 120.532C168.637 119.62 169.06 118.845 170.067 118.404C170.762 118.094 171.377 117.806 171.799 117.545L171.744 117.335ZM171.004 120.283C171.635 120.127 172.31 119.605 172.167 119.053L172.057 118.624C171.626 118.867 171.131 119.096 170.673 119.332C170.37 119.489 170.212 119.701 170.3 120.052C170.377 120.35 170.653 120.363 170.995 120.274L171.004 120.283Z" fill="white"/>
<path d="M173.811 115.181L175.249 114.834L177.193 118.047L177.246 118.044L177.529 114.294L178.985 113.946L178.331 119.499L176.91 119.836L173.811 115.181Z" fill="white"/>
<path d="M181.888 116.434C182.145 117.149 182.553 117.493 183.185 117.355C183.817 117.216 184.105 116.945 184.065 116.494L185.452 116.185C185.546 117.352 184.798 118.188 183.534 118.473C181.831 118.851 180.724 117.832 180.382 116.305C180.04 114.796 180.635 113.373 182.311 112.996C183.987 112.62 185.034 113.677 185.375 115.186C185.409 115.326 185.435 115.485 185.452 115.644L181.897 116.443L181.888 116.434ZM183.809 114.909C183.565 114.3 183.159 113.992 182.51 114.14C181.878 114.278 181.634 114.725 181.676 115.389L183.809 114.909Z" fill="white"/>
<path d="M187.132 116.426L185.859 110.313L187.256 110.021L188.503 115.985C188.527 116.108 188.62 116.183 188.734 116.16C188.857 116.136 189.04 116.074 189.161 116.005L189.383 117.068C189.124 117.214 188.845 117.326 188.52 117.386C187.712 117.551 187.315 117.242 187.14 116.408L187.132 116.426Z" fill="white"/>
<path d="M128.312 44.8142C150.258 38.4768 169.908 43.7417 174.198 55.4328C176.724 62.3109 173.613 71.2276 171.77 78.5578C171.566 79.3644 157.029 80.3394 157.349 78.4514C157.96 74.7997 165.858 61.0611 163.154 56.9219C158.909 50.4249 128.693 59.1289 128.693 59.1289C128.382 54.9985 128.675 49.1042 128.312 44.8142Z" fill="#1A278E"/>
<path d="M162.924 79.9406C161.009 79.9406 159.325 79.852 158.492 79.6747C158.058 79.5861 156.746 79.3113 156.905 78.3806C157.109 77.184 157.996 75.0922 159.121 72.4509C161.39 67.115 164.501 59.8026 162.773 57.1701C159.44 52.0647 137.122 57.1701 128.808 59.5633L128.285 59.714L128.241 59.1733C128.09 57.179 128.081 54.8301 128.072 52.3484C128.063 49.7513 128.046 47.0745 127.868 44.8586L127.842 44.4952L128.187 44.3977C149.699 38.1844 170.094 42.9707 174.615 55.2911C176.831 61.336 174.81 68.87 173.028 75.5177C172.736 76.5902 172.452 77.645 172.195 78.6731C171.973 79.5418 166.948 79.9495 162.924 79.9495V79.9406ZM154.955 54.0945C159.015 54.0945 162.268 54.777 163.518 56.6826C165.503 59.714 162.419 66.9732 159.937 72.7966C158.882 75.2784 157.969 77.4322 157.783 78.5224C158.501 79.5595 169.917 79.0277 171.371 78.3186C171.619 77.3347 171.894 76.3154 172.168 75.2784C173.915 68.7548 175.9 61.3626 173.782 55.5836C169.447 43.7684 149.717 39.2037 128.781 45.1423C128.941 47.3138 128.95 49.8666 128.967 52.3395C128.976 54.582 128.985 56.7092 129.1 58.5528C132.025 57.7374 145.613 54.0856 154.964 54.0856L154.955 54.0945Z" fill="white"/>
<defs>
<clipPath id="clip0_1458_3798">
<rect width="276.09" height="162.5" fill="white"/>
</clipPath>
</defs>
</svg>
