<svg width="230" height="117" viewBox="0 0 230 117" fill="none" xmlns="http://www.w3.org/2000/svg">
<path d="M15.9803 2.12479C16.3776 2.12479 16.716 2.19849 16.9956 2.34588C17.2752 2.49328 17.5033 2.6849 17.6873 2.92811C17.8638 3.17131 17.9889 3.43661 18.0625 3.72404C18.1361 4.01883 18.1729 4.29889 18.1729 4.57157C18.1729 4.84426 18.1287 5.11693 18.0478 5.40436C17.9668 5.68441 17.8418 5.94236 17.6725 6.17082C17.5033 6.39929 17.2826 6.59091 17.003 6.7383C16.7234 6.8857 16.3849 6.95939 15.9876 6.95939H8.04132C7.46006 6.95939 7.16575 7.20997 7.16575 7.71111V11.1897C7.16575 11.4845 7.23932 11.6834 7.38648 11.8014C7.53363 11.9193 7.75437 11.9709 8.04132 11.9709H17.1722C17.5695 11.9709 17.9153 12.0446 18.2023 12.192C18.4966 12.3394 18.7247 12.5236 18.8939 12.7594C19.0631 12.9879 19.1882 13.2385 19.2692 13.5112C19.3501 13.7838 19.3942 14.0565 19.3942 14.3292C19.3942 14.624 19.3501 14.9114 19.2692 15.1915C19.1882 15.4715 19.0631 15.7295 18.8939 15.9579C18.7247 16.1864 18.4966 16.378 18.2023 16.5254C17.908 16.6728 17.5695 16.7465 17.1722 16.7465H5.44405C4.56848 16.7465 3.84743 16.6728 3.28824 16.5254C2.7217 16.378 2.27288 16.1348 1.92707 15.7884C1.58126 15.4421 1.34581 14.9925 1.20601 14.4398C1.07358 13.887 1 13.2016 1 12.391V6.50246C1 5.68441 1.06622 5.00639 1.20601 4.45365C1.33845 3.90092 1.58126 3.45136 1.92707 3.10498C2.27288 2.75859 2.7217 2.51539 3.28824 2.36799C3.85479 2.2206 4.56848 2.1469 5.44405 2.1469H15.9876L15.9803 2.12479ZM2.00065 24.588C2.00065 23.7552 2.13309 22.9593 2.40532 22.2075C2.67755 21.4558 3.07487 20.7999 3.61198 20.2472C4.14174 19.6944 4.81865 19.2523 5.62799 18.928C6.4447 18.6037 7.38648 18.4416 8.47542 18.4416H21.7046C22.7714 18.4416 23.7058 18.5963 24.5226 18.9132C25.3393 19.2301 26.0162 19.6576 26.5533 20.2103C27.0977 20.7631 27.5024 21.419 27.7747 22.1707C28.0469 22.9224 28.1793 23.7257 28.1793 24.5806C28.1793 25.4355 28.0469 26.2388 27.7747 26.9906C27.5024 27.7423 27.0977 28.3982 26.5533 28.9509C26.0088 29.5037 25.3319 29.9385 24.5226 30.248C23.7132 30.5576 22.7714 30.7197 21.7046 30.7197H8.47542C7.39384 30.7197 6.4447 30.5576 5.62799 30.2333C4.81129 29.909 4.14174 29.4742 3.61198 28.9141C3.08223 28.3614 2.67755 27.7128 2.40532 26.9685C2.13309 26.2241 2.00065 25.4282 2.00065 24.5733V24.588ZM8.35034 24.588C8.35034 24.986 8.47542 25.3766 8.72558 25.7598C8.97574 26.143 9.44664 26.342 10.1309 26.342H20.0491C20.7407 26.342 21.2042 26.1504 21.4544 25.7598C21.7046 25.3766 21.8296 24.9786 21.8296 24.588C21.8296 24.1974 21.7046 23.7994 21.4544 23.4162C21.2042 23.033 20.7333 22.834 20.0491 22.834H10.1309C9.43928 22.834 8.97574 23.0256 8.72558 23.4162C8.47542 23.7994 8.35034 24.1974 8.35034 24.588ZM21.4838 4.31363C21.4838 3.28922 21.7929 2.51539 22.4035 1.99214C23.0216 1.46888 23.7426 1.21094 24.5741 1.21094C25.4055 1.21094 26.1045 1.47625 26.7299 2.00688C27.3553 2.53751 27.6716 3.30396 27.6716 4.31363V6.8857H28.6429C29.1211 6.8857 29.5184 6.96676 29.8348 7.13627C30.1512 7.30577 30.4014 7.51213 30.5853 7.76271C30.7692 8.01328 30.909 8.3007 30.99 8.62497C31.0709 8.94925 31.115 9.26615 31.115 9.58305C31.115 9.89996 31.0709 10.2168 30.99 10.5411C30.909 10.8654 30.7692 11.1602 30.5853 11.4181C30.394 11.6761 30.1438 11.8898 29.8201 12.0446C29.4964 12.1993 29.1064 12.2804 28.6502 12.2804H27.679V17.6972H21.4838V4.321V4.31363Z" fill="white" stroke="#1B1464" stroke-miterlimit="10"/>
<path d="M32.8369 13.3417C34.4041 12.7742 35.6328 11.853 36.5304 10.5706C37.4281 9.28826 37.8769 7.48265 37.8769 5.16853V4.60105C37.8769 4.0999 37.9726 3.66509 38.1565 3.30396C38.3478 2.93547 38.5906 2.63331 38.8923 2.39748C39.1939 2.15427 39.5397 1.9774 39.9223 1.86685C40.3049 1.74893 40.7096 1.69734 41.129 1.69734C41.9457 1.71945 42.6594 1.9774 43.2701 2.4638C43.8881 2.95758 44.1898 3.67246 44.1898 4.60843V5.17589C44.1898 6.09712 44.1236 6.95939 44.0059 7.77744C45.1316 7.92484 46.1543 8.22701 47.074 8.68394C47.9937 9.14086 48.7737 9.78941 49.4211 10.6296C50.0686 11.4624 50.5542 12.4941 50.878 13.7175C51.2017 14.9409 51.3341 16.3854 51.2679 18.0583H45.1684C45.3965 14.8598 44.4694 13.0469 42.3872 12.6047C41.4454 14.2776 40.2829 15.5895 38.8996 16.5549C37.509 17.513 36.0816 18.1099 34.5954 18.3384C33.8007 18.4637 33.1238 18.3531 32.5646 18.0068C31.9981 17.6604 31.6155 17.1887 31.4095 16.5844C31.1814 15.8769 31.2035 15.2136 31.4904 14.6093C31.77 14.0049 32.2262 13.5849 32.8516 13.3564L32.8369 13.3417ZM38.2521 30.6386C37.3766 30.6386 36.6482 30.5576 36.0816 30.3881C35.5077 30.2185 35.0515 29.9606 34.7205 29.6069C34.3894 29.2531 34.1539 28.7814 34.0141 28.1992C33.8817 27.617 33.8081 26.9021 33.8081 26.0693V22.8708C33.8081 21.8022 34.1245 21.021 34.7646 20.5199C35.3974 20.0187 36.1552 19.7681 37.0308 19.7681C37.9063 19.7681 38.6495 20.0187 39.2528 20.5199C39.8561 21.021 40.1578 21.8022 40.1578 22.8708V25.0007C40.1578 25.3545 40.2093 25.5756 40.3123 25.6566C40.4153 25.7377 40.6434 25.7819 40.9966 25.7819H57.9855C58.942 25.7819 59.6189 26.0251 60.0162 26.5189C60.4135 27.0127 60.6122 27.5654 60.6122 28.1919C60.6122 28.8183 60.4062 29.4079 60.0015 29.9016C59.5968 30.3954 58.9199 30.6386 57.9855 30.6386H38.2448H38.2521ZM53.4826 4.31363C53.4826 3.28922 53.799 2.51539 54.4391 1.99214C55.0718 1.46888 55.8076 1.21094 56.6464 1.21094C57.0437 1.21094 57.4337 1.27726 57.8163 1.41729C58.1989 1.54995 58.5373 1.74893 58.8316 2.01425C59.1259 2.27219 59.3614 2.59646 59.538 2.98706C59.7145 3.37029 59.8028 3.81985 59.8028 4.321V23.372H53.4826V4.321V4.31363Z" fill="white" stroke="#1B1464" stroke-miterlimit="10"/>
<path d="M81.0739 24.2165C81.5521 24.2165 81.9568 24.2902 82.2953 24.4376C82.6264 24.585 82.8986 24.784 83.112 25.0345C83.318 25.2851 83.4725 25.5652 83.5682 25.8821C83.6638 26.199 83.708 26.5085 83.708 26.8254C83.708 27.1571 83.6638 27.4813 83.5682 27.7982C83.4725 28.1151 83.318 28.3878 83.0973 28.631C82.8765 28.8742 82.6043 29.0658 82.2658 29.2132C81.9347 29.3606 81.5374 29.4343 81.0739 29.4343H65.3431C64.4014 29.4343 63.7245 29.169 63.3124 28.6384C62.893 28.1078 62.687 27.5034 62.687 26.8401C62.687 26.5232 62.7312 26.2137 62.8268 25.8968C62.9225 25.5799 63.077 25.2999 63.2977 25.0493C63.5184 24.7987 63.7907 24.5997 64.1291 24.4523C64.4602 24.3049 64.8723 24.2312 65.3505 24.2312H81.0812L81.0739 24.2165ZM63.4301 9.67584C63.4301 8.31979 63.6656 7.14062 64.1365 6.13832C64.6074 5.13603 65.2548 4.31061 66.0789 3.66206C66.903 3.01352 67.8668 2.53449 68.9705 2.21759C70.0741 1.90068 71.2734 1.74592 72.5684 1.74592C73.8634 1.74592 75.0332 1.90068 76.1516 2.21759C77.27 2.53449 78.2338 3.01352 79.0432 3.66206C79.8599 4.31061 80.5 5.13603 80.9635 6.13832C81.4344 7.14062 81.6699 8.31979 81.6699 9.67584V12.6827C81.6699 14.0388 81.4344 15.2179 80.9635 16.2202C80.4926 17.2225 79.8525 18.048 79.0432 18.6965C78.2265 19.345 77.2626 19.8241 76.1516 20.141C75.0406 20.4579 73.8413 20.6126 72.5684 20.6126C71.2955 20.6126 70.0741 20.4579 68.9705 20.141C67.8668 19.8241 66.903 19.345 66.0789 18.6965C65.2548 18.048 64.6074 17.2225 64.1365 16.2202C63.6656 15.2179 63.4301 14.0388 63.4301 12.6827V9.67584ZM69.5665 12.9038C69.5665 13.405 69.6474 13.8324 69.8166 14.1862C69.9858 14.5399 70.2066 14.8273 70.4862 15.0484C70.7658 15.2695 71.0895 15.4317 71.4574 15.5348C71.8253 15.638 72.1932 15.6896 72.5684 15.6896C72.9436 15.6896 73.3115 15.638 73.6647 15.5348C74.0179 15.4317 74.3342 15.2695 74.6212 15.0484C74.9008 14.8273 75.1289 14.5399 75.3128 14.1862C75.4894 13.8324 75.5777 13.405 75.5777 12.9038V9.45474C75.5777 8.9536 75.4894 8.52614 75.3128 8.17239C75.1362 7.81864 74.9081 7.53122 74.6212 7.31012C74.3416 7.08903 74.0252 6.9269 73.6647 6.82372C73.3115 6.72055 72.9436 6.66895 72.5684 6.66895C72.1932 6.66895 71.8253 6.72055 71.4574 6.82372C71.0895 6.9269 70.7731 7.08903 70.4862 7.31012C70.2066 7.53122 69.9785 7.81864 69.8166 8.17239C69.6474 8.52614 69.5665 8.9536 69.5665 9.45474V12.9038ZM84.8263 30.643V4.32536C84.8263 3.30095 85.1427 2.52711 85.7681 2.00386C86.3935 1.4806 87.1219 1.22266 87.9607 1.22266C88.7995 1.22266 89.5279 1.4806 90.1533 2.00386C90.7787 2.52711 91.0951 3.30095 91.0951 4.32536V30.643H84.841H84.8263Z" fill="white" stroke="#1B1464" stroke-miterlimit="10"/>
<path d="M124.962 30.6386V23.1804H120.488C120.194 25.4798 119.296 27.1969 117.781 28.3319C116.272 29.4668 114.374 30.0417 112.101 30.0417C110.85 30.0417 109.695 29.8722 108.643 29.5258C107.59 29.1794 106.685 28.6561 105.92 27.956C105.155 27.2559 104.566 26.3789 104.14 25.325C103.713 24.2711 103.5 23.0403 103.5 21.6401V10.1137C103.5 8.71342 103.713 7.49003 104.14 6.42877C104.566 5.37489 105.162 4.49787 105.92 3.79774C106.678 3.09761 107.59 2.57435 108.643 2.22797C109.695 1.88158 110.85 1.71208 112.101 1.71208C114.227 1.71208 116.03 2.21323 117.494 3.21553C118.965 4.21783 119.922 5.71389 120.356 7.69637H124.955V4.31363C124.955 3.28922 125.256 2.51539 125.86 1.99214C126.463 1.46888 127.184 1.21094 128.015 1.21094C128.847 1.21094 129.546 1.47625 130.171 2.00688C130.797 2.53751 131.113 3.30396 131.113 4.31363V30.6313H124.947L124.962 30.6386ZM109.54 21.8612C109.54 22.9445 109.783 23.7331 110.276 24.2121C110.769 24.6912 111.38 24.9344 112.108 24.9344C112.836 24.9344 113.447 24.6912 113.94 24.2121C114.433 23.7331 114.676 22.9519 114.676 21.8612V9.89258C114.676 8.82396 114.433 8.05013 113.94 7.55635C113.447 7.06258 112.836 6.81937 112.108 6.81937C111.38 6.81937 110.769 7.06258 110.276 7.55635C109.783 8.05013 109.54 8.82396 109.54 9.89258V21.8612ZM120.614 17.9773H124.962V12.8995H120.614V17.9773Z" fill="white" stroke="#1B1464" stroke-miterlimit="10"/>
<path d="M141.693 18.1348C140.751 18.1348 139.861 18.0095 139 17.759C138.147 17.5084 137.396 17.1252 136.763 16.6019C136.123 16.0787 135.623 15.4301 135.248 14.6563C134.873 13.8824 134.681 12.9612 134.681 11.9V9.70376C134.681 9.05521 134.806 8.45826 135.056 7.92026C134.49 7.81708 134.071 7.57388 133.791 7.19802C133.511 6.82216 133.372 6.39471 133.372 5.91567C133.372 5.34819 133.556 4.84705 133.916 4.41223C134.284 3.97004 134.85 3.75632 135.623 3.75632H138.875C138.875 2.81298 139.133 2.12022 139.655 1.67066C140.177 1.2211 140.854 1 141.686 1C142.517 1 143.165 1.2211 143.687 1.67066C144.209 2.12022 144.482 2.81298 144.504 3.75632H147.697C148.492 3.75632 149.058 3.97741 149.404 4.41223C149.75 4.84705 149.919 5.35556 149.919 5.91567C149.919 6.39471 149.794 6.82216 149.544 7.19802C149.294 7.57388 148.889 7.81708 148.322 7.92026C148.425 8.19294 148.514 8.473 148.587 8.7678C148.661 9.06259 148.698 9.37212 148.698 9.71113V11.9073C148.698 12.976 148.506 13.8898 148.131 14.6637C147.756 15.4375 147.248 16.086 146.615 16.6093C145.983 17.1325 145.232 17.5158 144.379 17.7663C143.525 18.0169 142.628 18.1422 141.686 18.1422L141.693 18.1348ZM142.068 30.7299C140.987 30.7299 140.038 30.5898 139.236 30.3098C138.434 30.0297 137.771 29.6391 137.249 29.138C136.727 28.6368 136.344 28.0399 136.094 27.3397C135.844 26.6396 135.719 25.8731 135.719 25.0404C135.719 24.2076 135.844 23.4337 136.094 22.7336C136.344 22.0335 136.727 21.4291 137.249 20.9133C137.771 20.4047 138.434 19.9994 139.236 19.7046C140.038 19.4098 140.979 19.2624 142.068 19.2624H156.71C157.777 19.2624 158.704 19.4024 159.506 19.6825C160.308 19.9626 160.97 20.3605 161.493 20.8764C162.015 21.3849 162.405 21.9966 162.663 22.7115C162.92 23.419 163.053 24.1928 163.053 25.033C163.053 26.7428 162.53 28.1209 161.485 29.1675C160.441 30.214 158.844 30.7372 156.703 30.7372H142.061L142.068 30.7299ZM141.693 13.7793C142.113 13.7793 142.488 13.6466 142.834 13.3739C143.179 13.1013 143.349 12.6222 143.349 11.9294V9.67428C143.349 8.98152 143.179 8.50247 142.834 8.22979C142.488 7.95711 142.113 7.82446 141.693 7.82446C141.274 7.82446 140.899 7.95711 140.553 8.22979C140.207 8.50247 140.038 8.98152 140.038 9.67428V11.9294C140.038 12.6222 140.207 13.1013 140.553 13.3739C140.899 13.6466 141.274 13.7793 141.693 13.7793ZM155.018 26.4996C155.665 26.4996 156.107 26.3595 156.35 26.0795C156.592 25.7994 156.71 25.4457 156.71 25.033C156.71 24.6203 156.592 24.2739 156.35 24.0159C156.107 23.758 155.665 23.6253 155.018 23.6253H143.761C143.113 23.6253 142.672 23.758 142.429 24.0159C142.186 24.2739 142.068 24.6203 142.068 25.033C142.068 25.4457 142.186 25.7994 142.429 26.0795C142.664 26.3595 143.113 26.4996 143.761 26.4996H155.018ZM157.431 12.1505H156.114V18.2896H150.67V3.87424C150.67 2.99723 150.942 2.33394 151.486 1.88438C152.031 1.43482 152.663 1.21373 153.392 1.21373C154.12 1.21373 154.731 1.43482 155.283 1.88438C155.835 2.33394 156.114 2.99723 156.114 3.87424V7.32331H157.431V3.87424C157.431 2.99723 157.703 2.33394 158.248 1.88438C158.792 1.43482 159.425 1.21373 160.154 1.21373C160.882 1.21373 161.5 1.43482 162.059 1.88438C162.626 2.33394 162.905 2.99723 162.905 3.87424V18.2896H157.431V12.1505Z" fill="white" stroke="#1B1464" stroke-miterlimit="10"/>
<path d="M192.278 12.7477C193.109 12.7477 193.698 12.9688 194.029 13.4036C194.36 13.8458 194.529 14.3322 194.529 14.8775C194.529 15.4229 194.36 15.9388 194.014 16.3663C193.668 16.7937 193.094 17.0074 192.278 17.0074H167.504C166.688 17.0074 166.114 16.7937 165.768 16.3663C165.422 15.9388 165.253 15.445 165.253 14.8775C165.253 14.3101 165.422 13.8458 165.753 13.4036C166.084 12.9614 166.673 12.7477 167.504 12.7477H192.278ZM170.065 30.6416C169.395 30.6416 168.814 30.531 168.314 30.31C167.813 30.0889 167.401 29.8014 167.078 29.4329C166.754 29.0645 166.511 28.6444 166.357 28.1653C166.202 27.6863 166.121 27.1704 166.121 26.6324V26.5366C166.121 25.4311 166.438 24.532 167.063 23.8393C167.688 23.1465 168.689 22.8075 170.065 22.8075H186.796V22.2105C186.796 21.8789 186.576 21.7094 186.141 21.7094H168.218C167.637 21.7094 167.188 21.5251 166.886 21.164C166.585 20.7955 166.43 20.4049 166.43 19.9922C166.43 19.5795 166.57 19.1742 166.85 18.7983C167.129 18.4224 167.585 18.2308 168.211 18.2308H189.732C191.064 18.2308 191.983 18.474 192.484 18.9678C192.984 19.4616 193.234 20.1838 193.234 21.1419V26.0281H173.435C173.207 26.0281 173.052 26.0723 172.964 26.1681C172.883 26.2639 172.839 26.3892 172.839 26.5587C172.839 26.7282 172.883 26.8609 172.964 26.964C173.045 27.0672 173.207 27.1188 173.435 27.1188H192.425C193.028 27.1188 193.462 27.3031 193.72 27.6642C193.977 28.0327 194.11 28.4307 194.11 28.8728C194.11 29.2487 193.985 29.6319 193.735 30.0299C193.484 30.4279 193.043 30.6268 192.418 30.6268H170.05L170.065 30.6416ZM193.529 6.57176C193.529 7.27926 193.411 7.94255 193.183 8.56162C192.955 9.18068 192.601 9.71131 192.138 10.1609C191.667 10.6104 191.078 10.9642 190.372 11.2295C189.666 11.4874 188.82 11.6201 187.841 11.6201H171.948C170.97 11.6201 170.124 11.4874 169.417 11.2295C168.711 10.9715 168.122 10.6104 167.652 10.1609C167.181 9.71131 166.835 9.18068 166.607 8.56162C166.379 7.94255 166.261 7.27926 166.261 6.57176C166.261 5.86425 166.379 5.20098 166.607 4.59665C166.835 3.99233 167.188 3.4617 167.652 2.9974C168.122 2.54047 168.711 2.17935 169.417 1.91404C170.124 1.65609 170.97 1.52344 171.948 1.52344H187.841C188.82 1.52344 189.666 1.65609 190.372 1.91404C191.078 2.17198 191.667 2.5331 192.138 2.9974C192.609 3.45433 192.955 3.99233 193.183 4.59665C193.411 5.20098 193.529 5.85688 193.529 6.57176ZM187.113 6.57176C187.113 6.27696 187.024 6.04114 186.848 5.86426C186.671 5.68739 186.34 5.59895 185.862 5.59895H173.913C173.435 5.59895 173.104 5.68739 172.927 5.86426C172.75 6.04114 172.662 6.27696 172.662 6.57176C172.662 6.86655 172.75 7.10239 172.927 7.27926C173.104 7.45614 173.435 7.54458 173.913 7.54458H185.862C186.34 7.54458 186.671 7.45614 186.848 7.27926C187.024 7.10239 187.113 6.86655 187.113 6.57176Z" fill="white" stroke="#1B1464" stroke-miterlimit="10"/>
<path d="M45.8156 99.6293V115.644H29.9818V99.6293H8.09265C5.76762 99.6293 4.09742 98.9808 3.08942 97.6837C2.08141 96.3866 1.57373 94.9348 1.57373 93.3281C1.57373 92.5543 1.69145 91.7878 1.9269 91.0361C2.16235 90.2844 2.53759 89.599 3.05263 88.9726C3.56767 88.3535 4.24457 87.8597 5.06864 87.4986C5.8927 87.1375 6.90806 86.9532 8.09265 86.9532H67.7047C68.8967 86.9532 69.9047 87.1375 70.7287 87.4986C71.5528 87.8597 72.2297 88.3535 72.7447 88.9726C73.2598 89.5916 73.635 90.2844 73.8705 91.0361C74.1059 91.7878 74.2163 92.5543 74.2163 93.3281C74.2163 94.9348 73.7086 96.3866 72.7006 97.6837C71.6926 98.9808 70.0224 99.6293 67.6973 99.6293H45.8082H45.8156ZM45.4256 60.444C45.2711 61.6379 45.0356 62.8318 44.7266 64.0184C48.1921 63.812 51.5325 64.0184 54.7404 64.6374C57.9484 65.2565 60.8105 66.3841 63.3195 68.0202C65.8285 69.6563 67.896 71.8304 69.5294 74.5498C71.1628 77.2693 72.1561 80.5783 72.5166 84.4622H57.2273C56.7638 82.4945 55.8956 80.8215 54.6301 79.4508C53.3646 78.08 51.8489 77.004 50.0904 76.2228C48.3319 75.449 46.3747 74.9699 44.2337 74.7857C42.0852 74.6014 39.9 74.7193 37.6779 75.132C35.9195 76.7387 33.977 78.1389 31.858 79.3329C29.739 80.5268 27.5096 81.5069 25.1846 82.2881C22.8595 83.0693 20.4757 83.6368 18.0403 83.998C15.6049 84.3591 13.2283 84.5433 10.8959 84.5433C8.72541 84.5433 6.90806 84.0274 5.46595 82.9883C4.01649 81.9491 3.2145 80.5268 3.05999 78.7138C2.85397 77.004 3.266 75.4858 4.30344 74.1666C5.34087 72.8474 6.81241 72.1325 8.72541 72.0294C11.3153 71.9262 13.7581 71.6388 16.061 71.1745C18.364 70.7102 20.4315 70.01 22.2709 69.0741C24.1104 68.1381 25.6481 66.9663 26.8916 65.5366C28.135 64.1142 29.0106 62.4117 29.533 60.444H11.0578C8.73277 60.444 7.06257 59.7955 6.05457 58.4984C5.04656 57.2013 4.53888 55.7494 4.53888 54.1428C4.53888 53.369 4.65661 52.6025 4.88469 51.8508C5.12014 51.0991 5.49538 50.4284 6.01042 49.8315C6.52546 49.2345 7.20237 48.7555 8.02643 48.3943C8.85049 48.0332 9.86585 47.849 11.0504 47.849H29.5992C29.7537 45.5717 30.5704 43.8324 32.0419 42.6385C33.5135 41.4446 35.4706 40.8477 37.906 40.8477C40.3414 40.8477 42.2176 41.4593 43.6892 42.6754C45.1607 43.8914 45.9774 45.6159 46.1319 47.849H64.7616C65.9536 47.849 66.9616 48.0332 67.7856 48.3943C68.6097 48.7555 69.2866 49.2345 69.8017 49.8315C70.3167 50.4284 70.6919 51.0991 70.9274 51.8508C71.1628 52.6025 71.2732 53.369 71.2732 54.1428C71.2732 55.7494 70.7655 57.2013 69.7575 58.4984C68.7495 59.7955 67.0793 60.444 64.7543 60.444H45.4256Z" fill="#88C9FF" stroke="#1B1464" stroke-miterlimit="10"/>
<path d="M110.004 61.8484V63.2487C110.004 63.9783 109.975 64.6489 109.923 65.268C109.872 65.8871 109.791 66.5135 109.688 67.1326C115.434 67.3905 119.687 69.1003 122.453 72.262C125.22 75.4236 126.551 80.3983 126.448 87.1859H112.086C112.241 84.179 111.711 81.8722 110.497 80.2656C109.283 78.659 107.686 77.8335 105.722 77.7746C103.441 81.0394 100.601 83.4788 97.1869 85.0854C93.7729 86.6921 90.2265 87.547 86.555 87.6501C84.642 87.7017 83.0233 87.208 81.7063 86.1762C80.3892 85.137 79.7271 83.7442 79.7271 81.9754C79.7271 80.2066 80.1759 78.7621 81.0882 77.7746C81.9932 76.787 83.222 76.168 84.7744 75.91C88.2399 75.3426 90.896 73.9423 92.7281 71.7092C94.5675 69.4835 95.4799 66.6535 95.4799 63.2339V61.8337H85.7751C84.8407 61.8337 84.0313 61.6494 83.3323 61.2883C82.6333 60.9272 82.0521 60.4482 81.5885 59.8512C81.125 59.2542 80.7571 58.6057 80.4996 57.9056C80.2421 57.2054 80.1097 56.4906 80.1097 55.7683C80.1097 55.0977 80.2127 54.3828 80.4187 53.6311C80.6247 52.8793 80.9631 52.1939 81.4267 51.5675C81.8902 50.9484 82.4862 50.4399 83.2146 50.0493C83.9357 49.6587 84.7891 49.4671 85.7751 49.4671H95.2444V49.0028C95.2444 46.674 95.8919 44.9494 97.1869 43.8292C98.4818 42.7164 100.343 42.1562 102.779 42.1562C105.214 42.1562 107.09 42.7164 108.407 43.8292C109.724 44.942 110.387 46.6666 110.387 49.0028V49.4671H120.165C121.151 49.4671 122.004 49.6587 122.725 50.0493C123.446 50.4399 124.042 50.9411 124.513 51.5675C124.977 52.1866 125.315 52.8793 125.521 53.6311C125.727 54.3828 125.83 55.0977 125.83 55.7683C125.83 56.4979 125.698 57.2054 125.44 57.9056C125.183 58.6057 124.822 59.2542 124.351 59.8512C123.888 60.4482 123.307 60.9272 122.608 61.2883C121.909 61.6494 121.092 61.8337 120.165 61.8337H109.997L110.004 61.8484ZM96.2672 115.258C94.0966 115.258 92.294 115.051 90.874 114.638C89.4539 114.226 88.3282 113.577 87.4968 112.693C86.6654 111.808 86.0841 110.644 85.753 109.192C85.4146 107.74 85.2453 105.979 85.2453 103.908V98.1521C85.2453 95.5064 86.0326 93.6197 87.6145 92.4774C89.189 91.3351 91.0653 90.7676 93.2431 90.7676C95.421 90.7676 97.2531 91.3351 98.7541 92.4774C100.255 93.6197 101.006 95.5064 101.006 98.1521V101.262C101.006 102.147 101.131 102.692 101.395 102.898C101.653 103.105 102.22 103.208 103.102 103.208H145.247C147.624 103.208 149.309 103.82 150.295 105.036C151.281 106.252 151.766 107.637 151.766 109.192C151.766 110.747 151.259 112.214 150.251 113.43C149.243 114.646 147.572 115.258 145.247 115.258H96.2672ZM134.299 73.3527H129.877C127.552 73.3527 125.933 72.7336 125.028 71.4881C124.123 70.2426 123.667 68.8203 123.667 67.2136C123.667 66.4398 123.77 65.6881 123.976 64.9585C124.182 64.2362 124.521 63.5729 124.984 62.976C125.448 62.379 126.081 61.9147 126.89 61.5757C127.692 61.2367 128.685 61.0672 129.877 61.0672H134.299V49.7914C134.299 47.3004 135.072 45.4285 136.624 44.1535C138.177 42.8859 139.965 42.2521 141.981 42.2521C142.966 42.2521 143.923 42.4216 144.85 42.7606C145.784 43.0996 146.609 43.5786 147.337 44.1977C148.058 44.8168 148.647 45.598 149.081 46.5266C149.522 47.4625 149.743 48.5459 149.743 49.7914V97.2162H134.299V73.3453V73.3527Z" fill="#88C9FF" stroke="#1B1464" stroke-miterlimit="10"/>
<path d="M175.987 84.2383C173.662 84.2383 171.433 83.9287 169.314 83.3023C167.195 82.6832 165.341 81.7252 163.766 80.4281C162.184 79.131 160.934 77.5244 159.999 75.6082C159.065 73.692 158.601 71.4074 158.601 68.769V63.3301C158.601 61.7235 158.91 60.2495 159.536 58.9008C158.138 58.6429 157.093 58.0459 156.394 57.11C155.695 56.174 155.349 55.1127 155.349 53.9188C155.349 52.5186 155.798 51.2731 156.71 50.1897C157.615 49.099 159.028 48.5536 160.941 48.5536H169.012C169.012 46.2247 169.66 44.5002 170.955 43.38C172.25 42.2671 173.927 41.707 176.002 41.707C178.077 41.707 179.674 42.2671 180.969 43.38C182.264 44.4928 182.933 46.2174 182.985 48.5536H190.902C192.866 48.5536 194.279 49.099 195.132 50.1897C195.986 51.2804 196.412 52.5186 196.412 53.9188C196.412 55.1127 196.103 56.174 195.478 57.11C194.86 58.0459 193.852 58.6429 192.454 58.9008C192.711 59.5715 192.932 60.2716 193.116 61.0012C193.3 61.7308 193.388 62.5047 193.388 63.3301V68.769C193.388 71.4148 192.925 73.692 191.99 75.6082C191.056 77.5244 189.805 79.131 188.223 80.4281C186.641 81.7252 184.795 82.6832 182.676 83.3023C180.557 83.9214 178.327 84.2383 176.002 84.2383H175.987ZM176.915 115.494C174.222 115.494 171.882 115.147 169.888 114.447C167.894 113.747 166.253 112.774 164.958 111.529C163.663 110.283 162.707 108.795 162.089 107.055C161.471 105.316 161.154 103.415 161.154 101.344C161.154 99.2727 161.463 97.3639 162.089 95.632C162.707 93.8927 163.663 92.3967 164.958 91.1217C166.253 89.8541 167.894 88.8518 169.888 88.1295C171.882 87.4073 174.222 87.0388 176.915 87.0388H213.239C215.881 87.0388 218.191 87.3852 220.185 88.0853C222.179 88.7854 223.82 89.773 225.115 91.0406C226.41 92.3082 227.381 93.8264 228.028 95.5878C228.676 97.3492 229 99.2653 229 101.344C229 105.596 227.705 109.016 225.122 111.61C222.532 114.204 218.574 115.494 213.247 115.494H176.922H176.915ZM175.987 73.4341C177.025 73.4341 177.967 73.0951 178.82 72.4244C179.674 71.7538 180.1 70.5599 180.1 68.8501V63.249C180.1 61.5392 179.674 60.3453 178.82 59.6747C177.967 59.004 177.025 58.665 175.987 58.665C174.95 58.665 174.008 59.004 173.155 59.6747C172.301 60.3453 171.875 61.5392 171.875 63.249V68.8501C171.875 70.5599 172.301 71.7538 173.155 72.4244C174.008 73.0951 174.95 73.4341 175.987 73.4341ZM209.053 104.999C210.657 104.999 211.753 104.653 212.349 103.953C212.945 103.252 213.239 102.383 213.239 101.351C213.239 100.319 212.938 99.4717 212.349 98.8231C211.753 98.1746 210.657 97.8503 209.053 97.8503H181.108C179.504 97.8503 178.401 98.1746 177.812 98.8231C177.216 99.4717 176.922 100.312 176.922 101.351C176.922 102.39 177.216 103.252 177.812 103.953C178.408 104.653 179.504 104.999 181.108 104.999H209.053ZM215.027 69.3881H211.768V84.6289H198.259V48.8631C198.259 46.689 198.929 45.0382 200.275 43.9254C201.622 42.8125 203.196 42.2524 205.014 42.2524C206.831 42.2524 208.339 42.8125 209.708 43.9254C211.076 45.0382 211.768 46.689 211.768 48.8631V57.4121H215.027V48.8631C215.027 46.689 215.697 45.0382 217.043 43.9254C218.39 42.8125 219.964 42.2524 221.782 42.2524C223.599 42.2524 225.122 42.8125 226.513 43.9254C227.911 45.0382 228.61 46.689 228.61 48.8631V84.6289H215.027V69.3881Z" fill="#88C9FF" stroke="#1B1464" stroke-miterlimit="10"/>
</svg>
