<svg width="59" height="58" viewBox="0 0 59 58" fill="none" xmlns="http://www.w3.org/2000/svg">
<circle cx="29.5119" cy="28.8991" r="28.2068" fill="white" stroke="#D1D1D1" stroke-width="1.06441"/>
<g clip-path="url(#clip0_1652_764)">
<path d="M28.9953 48.0569C18.426 48.0589 9.85232 39.4544 9.85425 28.8466C9.85617 18.2927 18.476 9.73443 29.0973 9.73828C39.6243 9.74213 48.1787 18.3716 48.1748 28.9794C48.171 39.4814 39.5492 48.0569 28.9953 48.0569ZM26.963 11.4684C23.8973 11.7263 19.5037 13.2697 16.0838 17.0033C13.5089 19.813 12.002 23.1193 11.544 26.9337C11.8923 26.9683 12.1983 26.9914 12.5043 27.028C12.8103 27.0645 13.1163 27.1107 13.4223 27.155C13.7456 27.2012 14.1555 27.3917 14.3672 27.2608C14.5847 27.1261 14.6097 26.6796 14.7155 26.3679C14.8483 25.981 14.9811 25.5942 15.1197 25.192C15.595 25.3498 16.028 25.4922 16.4841 25.6442C16.2628 26.3294 16.0473 26.9952 15.8414 27.6265C17.1423 28.148 18.4221 28.6619 19.7346 29.1892C20.1195 28.6349 20.5314 28.0441 20.9528 27.436C21.3627 27.7189 21.7457 27.9825 22.1422 28.2577C21.7457 28.8389 21.3627 29.3989 21.0086 29.9186C22.1306 30.7846 23.2237 31.6275 24.3784 32.5205C24.8422 32.0259 25.3368 31.4986 25.7795 31.0271C26.1567 31.3946 26.4954 31.7237 26.8764 32.0952C26.3857 32.5936 25.8795 33.1074 25.408 33.5847C26.2356 34.6971 27.0785 35.8325 27.9368 36.9891C28.4737 36.635 29.0472 36.2559 29.6361 35.8672C29.9152 36.2867 30.1731 36.6716 30.4367 37.07C29.794 37.4991 29.1935 37.9014 28.6354 38.2747C29.1339 39.5949 29.6188 40.8843 30.1115 42.193C30.7754 41.989 31.4606 41.7773 32.1611 41.5598C32.3073 42.0333 32.444 42.4759 32.5864 42.9397C31.8339 43.1783 31.1161 43.4054 30.3982 43.6325C30.5118 44.562 30.6234 45.4666 30.7408 46.423C31.4202 46.3076 32.1014 46.2344 32.7596 46.0766C38.664 44.6506 42.8363 41.1461 45.2688 35.5823C45.8346 34.2872 46.1753 32.9246 46.4024 31.5313C46.4447 31.2676 46.3735 31.1752 46.0964 31.1695C45.7249 31.1618 45.3516 31.1117 44.984 31.0617C44.4163 30.9847 43.8524 30.8904 43.2654 30.8C42.9998 31.6063 42.7381 32.4011 42.4668 33.221C41.9953 33.0632 41.5469 32.9131 41.0927 32.763C41.3525 31.9662 41.6007 31.2041 41.8317 30.4921C40.5326 29.9724 39.2817 29.4721 38.0154 28.964C37.5651 29.6145 37.0993 30.2881 36.624 30.977C36.2198 30.698 35.8292 30.4285 35.4308 30.1533C35.8927 29.4817 36.3295 28.8428 36.7395 28.2462C35.6021 27.3705 34.4916 26.5141 33.31 25.6058C32.7923 26.1677 32.2381 26.772 31.7454 27.307C31.3451 26.9298 31.0025 26.6046 30.6504 26.2697C31.2162 25.702 31.7877 25.1285 32.3285 24.5877C31.5048 23.4888 30.6831 22.3938 29.8536 21.2872C29.2339 21.6971 28.5969 22.1186 27.9445 22.5516C27.6693 22.1378 27.4095 21.751 27.142 21.3488C27.8425 20.8792 28.5199 20.425 29.1416 20.0074C28.6316 18.6949 28.1447 17.4401 27.6501 16.1623C26.9284 16.3855 26.1894 16.6145 25.4157 16.8531C25.2714 16.3893 25.1328 15.9467 24.9846 15.4752C25.7987 15.2173 26.582 14.9671 27.3518 14.7227C27.269 14.1473 27.1824 13.6219 27.1189 13.0927C27.0535 12.5557 27.0111 12.015 26.9592 11.4761L26.963 11.4684ZM29.0434 15.7196C29.4918 16.8916 29.9248 18.0155 30.3713 19.1799C30.9737 18.7815 31.4933 18.437 32.0321 18.081C32.3093 18.4986 32.5672 18.8854 32.8327 19.2857C32.2535 19.6745 31.6992 20.0478 31.1238 20.4346C31.7993 21.5508 32.5498 22.5766 33.4909 23.5812C33.9374 23.0981 34.3608 22.6401 34.7053 22.2687C35.0979 22.6016 35.452 22.9018 35.8484 23.2386C35.3711 23.7005 34.9304 24.1277 34.4185 24.6243C35.477 25.4325 36.5124 26.2254 37.5708 27.0357C38 26.4179 38.3734 25.8771 38.7679 25.3094C39.174 25.5923 39.5608 25.8617 39.9553 26.135C39.5896 26.6719 39.2471 27.1704 38.8506 27.7516C39.9091 28.1557 40.9233 28.5368 41.9318 28.9313C42.2224 29.0448 42.3628 29.0006 42.4475 28.6715C42.5745 28.173 42.7631 27.69 42.9306 27.1819C43.4136 27.3417 43.8505 27.4879 44.3047 27.638C44.1103 28.2346 43.9294 28.7889 43.7389 29.3701C43.8639 29.4009 43.964 29.4355 44.066 29.4471C44.805 29.5433 45.546 29.6241 46.285 29.7319C46.5467 29.7704 46.591 29.6626 46.5967 29.4374C46.6275 28.0787 46.539 26.7277 46.2426 25.3998C44.9378 19.5571 41.5565 15.3655 36.139 12.8348C33.795 11.7398 31.2989 11.2875 28.7143 11.3144C28.5084 11.3164 28.4237 11.376 28.4468 11.5916C28.4911 12.0265 28.5045 12.4653 28.5565 12.8983C28.6104 13.3486 28.6931 13.7951 28.7663 14.2762C29.3975 14.0838 29.9826 13.9048 30.5945 13.7181C30.7447 14.1973 30.8813 14.6361 31.0237 15.0942C30.3732 15.3001 29.7574 15.4945 29.0473 15.7196H29.0434ZM18.8128 33.094C18.4163 32.8188 18.0257 32.5493 17.6215 32.2703C18.043 31.6525 18.4433 31.0656 18.8975 30.4016C17.7004 29.9301 16.5573 29.4817 15.3814 29.0179C15.1177 29.8031 14.8849 30.5036 14.6443 31.2214C14.1709 31.0636 13.7321 30.9174 13.2779 30.7673C13.5012 30.0802 13.7129 29.424 13.9457 28.7023C13.0989 28.5906 12.2868 28.481 11.4189 28.3674C11.4112 33.9234 13.3742 38.5287 17.4849 42.1487C20.8258 45.0894 24.7729 46.4846 29.2859 46.4865C29.1839 45.6475 29.0915 44.8738 28.9934 44.0694C28.2832 44.2888 27.6462 44.4851 26.9842 44.691C26.8379 44.2176 26.6974 43.7691 26.555 43.3111C27.2767 43.0821 27.9618 42.8646 28.7162 42.626C28.2755 41.4367 27.8502 40.2916 27.4057 39.0945C26.7359 39.5391 26.147 39.9298 25.5466 40.3301C25.2695 39.9125 25.0116 39.5276 24.7441 39.1234C25.3965 38.6866 26.02 38.2689 26.6628 37.8379C25.9642 36.6543 25.1848 35.5881 24.1879 34.52C23.6856 35.0858 23.2141 35.617 22.783 36.102C22.3885 35.7325 22.0517 35.4149 21.6995 35.0858C22.2057 34.5758 22.706 34.0697 23.2256 33.5462C22.2788 32.6533 21.2627 31.8623 20.133 31.1829C19.6903 31.8238 19.267 32.4377 18.8109 33.0997L18.8128 33.094Z" fill="#FF0000"/>
</g>
<defs>
<clipPath id="clip0_1652_764">
<rect width="38.3186" height="38.3186" fill="white" transform="translate(9.85425 9.73828)"/>
</clipPath>
</defs>
</svg>
