<svg width="35" height="35" viewBox="0 0 35 35" fill="none" xmlns="http://www.w3.org/2000/svg">
<path d="M5.79247 29.5819C-0.720335 23.0863 -0.759731 12.4683 5.70485 5.87638C12.1366 -0.682015 22.6617 -0.702727 29.203 5.82843C35.6862 12.3016 35.6985 22.9233 29.2328 29.514C22.8315 36.039 12.2946 36.0692 5.79247 29.5819ZM26.834 5.59184C24.7881 3.86767 21.1408 2.12627 16.759 2.34464C13.4606 2.50819 10.5177 3.63688 7.91142 5.72607C8.10492 5.96171 8.27937 6.16416 8.44561 6.37498C8.61185 6.58579 8.77222 6.80259 8.93377 7.01819C9.10482 7.24564 9.24128 7.61603 9.45144 7.66481C9.6675 7.71476 9.95496 7.45264 10.2101 7.32393C10.5276 7.16513 10.8451 7.00633 11.1756 6.84151C11.3723 7.23179 11.5523 7.58647 11.7406 7.96132C11.1869 8.2511 10.6483 8.53247 10.1369 8.79823C10.6206 9.92206 11.096 11.0281 11.5833 12.1626C12.1581 12.0547 12.7718 11.9407 13.4021 11.8218C13.4822 12.2496 13.5575 12.6488 13.6341 13.0636C13.0357 13.1811 12.4585 13.2938 11.9238 13.3991C12.0873 14.627 12.2472 15.8228 12.4145 17.0876C13.0016 17.0653 13.6276 17.0416 14.1876 17.0206C14.196 17.4809 14.2042 17.8937 14.2126 18.3587C13.6066 18.3669 12.9817 18.3751 12.4004 18.3819C12.2324 19.582 12.0599 20.8058 11.884 22.0523C12.4306 22.1623 13.0149 22.2792 13.6146 22.3995C13.5309 22.8318 13.4552 23.2296 13.3749 23.6392C12.7174 23.5108 12.1024 23.3917 11.5311 23.2807C11.0338 24.4077 10.5469 25.5072 10.0531 26.6234C10.5864 26.9047 11.1375 27.1943 11.7016 27.4897C11.5032 27.8739 11.3177 28.233 11.1229 28.6088C10.5139 28.2946 9.93325 27.9945 9.35263 27.6944C8.85622 28.3419 8.37386 28.9727 7.8634 29.6393C8.3523 29.9851 8.81658 30.3585 9.31822 30.6649C13.8247 33.4079 18.5305 33.7944 23.4192 31.8317C24.557 31.3745 25.597 30.737 26.5859 30.0106C26.7726 29.8727 26.785 29.7716 26.6178 29.5976C26.3937 29.3645 26.1941 29.1039 25.9982 28.8469C25.6953 28.4501 25.4054 28.0449 25.0989 27.6278C24.4439 27.9658 23.7984 28.2989 23.1317 28.6416C22.9373 28.2537 22.7525 27.8848 22.5642 27.5123C23.2097 27.1768 23.827 26.8558 24.4032 26.5552C23.9194 25.4337 23.4536 24.3538 22.983 23.2596C22.3093 23.3871 21.6119 23.5195 20.8993 23.6555C20.8203 23.2336 20.7438 22.826 20.666 22.4101C21.3598 22.2766 22.0183 22.148 22.6343 22.0292C22.4671 20.7858 22.3048 19.5709 22.1303 18.28C21.469 18.3111 20.7593 18.346 20.1298 18.3757C20.113 17.8952 20.1001 17.4824 20.0872 17.0578C20.7817 17.0528 21.4833 17.0477 22.1459 17.044C22.308 15.8547 22.469 14.6689 22.6322 13.4713C22.0006 13.3452 21.3514 13.2156 20.6856 13.0837C20.7682 12.6573 20.8438 12.2572 20.9241 11.8428C21.6418 11.9815 22.3359 12.1157 22.9733 12.2382C23.4588 11.1089 23.9234 10.0298 24.3973 8.93152C23.8166 8.62667 23.2218 8.31475 22.5997 7.98752C22.7934 7.61053 22.9777 7.25024 23.1737 6.8661C23.8324 7.20622 24.4674 7.53218 25.0906 7.85346C25.3902 7.44495 25.657 7.06517 25.9403 6.6972C26.2272 6.32326 26.5306 5.96112 26.8269 5.59426L26.834 5.59184ZM25.5254 9.51288C25.0875 10.517 24.6695 11.4817 24.2351 12.4798C24.849 12.6024 25.379 12.7077 25.9279 12.8177C25.8442 13.2476 25.7674 13.6465 25.6871 14.0586C25.0933 13.9441 24.5244 13.8355 23.9342 13.7222C23.6702 14.8312 23.5076 15.93 23.4753 17.1329C24.0447 17.1071 24.5847 17.0827 25.0232 17.0636C25.0622 17.5118 25.0975 17.9161 25.1365 18.3691C24.561 18.3628 24.0292 18.3574 23.4113 18.3514C23.5709 19.5044 23.7257 20.6336 23.8841 21.7878C24.5249 21.6677 25.0844 21.561 25.6734 21.4507C25.7512 21.8761 25.8254 22.2814 25.9019 22.6937C25.3495 22.8027 24.8347 22.9019 24.2364 23.0195C24.6422 23.9213 25.0349 24.7815 25.4158 25.6466C25.5256 25.8958 25.6392 25.9546 25.8919 25.8022C26.2738 25.5704 26.6843 25.3861 27.097 25.1733C27.2973 25.5695 27.4773 25.9289 27.6657 26.3014C27.1824 26.5527 26.7333 26.786 26.2618 27.0301C26.3201 27.1262 26.3606 27.2092 26.4164 27.2791C26.8131 27.7931 27.2203 28.2988 27.61 28.8201C27.7477 29.0049 27.8407 28.9651 27.9814 28.8287C28.8283 28.0031 29.5969 27.109 30.2234 26.1015C32.9795 21.668 33.4503 16.9844 31.6546 12.0815C30.8777 9.96001 29.6155 8.14462 28.0067 6.57265C27.8787 6.44727 27.7902 6.4323 27.673 6.58046C27.4353 6.87799 27.1763 7.15899 26.9444 7.46006C26.7032 7.77308 26.4822 8.10145 26.2341 8.44543C26.7402 8.71383 27.2097 8.96221 27.7005 9.22237C27.501 9.61247 27.3178 9.96918 27.1265 10.3414C26.6003 10.0695 26.1024 9.81181 25.5277 9.51524L25.5254 9.51288ZM8.63615 14.0229C8.55958 13.6082 8.48306 13.2006 8.4041 12.7787C9.04016 12.6538 9.64442 12.5351 10.3288 12.4016C9.8786 11.3727 9.44753 10.3914 9.00569 9.3803C8.36483 9.70626 7.79454 9.99851 7.20895 10.2968C7.01344 9.90771 6.83223 9.54709 6.64387 9.17461C7.20003 8.88481 7.73031 8.60706 8.3135 8.30165C7.85982 7.71177 7.42631 7.14438 6.96076 6.54029C3.57071 9.98879 1.97405 14.0578 2.30094 18.8345C2.56751 22.7158 4.14915 26.0092 6.92835 28.7845C7.37677 28.2003 7.79124 27.6626 8.22092 27.1023C7.64974 26.8022 7.13768 26.5326 6.60434 26.2537C6.80269 25.8695 6.98936 25.5045 7.1807 25.1322C7.76486 25.4335 8.31946 25.7195 8.92964 26.0349C9.38279 25.0248 9.81846 24.0516 10.2739 23.0344C9.59045 22.899 8.9896 22.7798 8.37577 22.6596C8.45949 22.2297 8.53514 21.8319 8.61658 21.4163C9.2847 21.5458 9.92331 21.6695 10.582 21.7967C10.8727 20.6316 11.0422 19.4899 11.0788 18.2133C10.4246 18.2562 9.81046 18.2965 9.24938 18.3329C9.23146 17.8608 9.21745 17.4564 9.20099 17.0354C9.82356 17.0295 10.4402 17.0225 11.0793 17.0165C11.04 15.8795 10.896 14.7633 10.6139 13.6467C9.95072 13.7729 9.31582 13.8942 8.63144 14.0253L8.63615 14.0229Z" fill="white"/>
</svg>
