<svg width="58" height="58" viewBox="0 0 58 58" fill="none" xmlns="http://www.w3.org/2000/svg">
<circle cx="29.0322" cy="28.8991" r="28.2068" fill="#FF0000" stroke="#D1D1D1" stroke-width="1.06441"/>
<g clip-path="url(#clip0_1654_765)">
<path d="M29.0138 48.0569C18.4445 48.0589 9.87088 39.4544 9.8728 28.8466C9.87473 18.2927 18.4945 9.73443 29.1158 9.73828C39.6428 9.74213 48.1972 18.3716 48.1934 28.9794C48.1895 39.4814 39.5678 48.0569 29.0138 48.0569ZM26.9816 11.4684C23.9159 11.7263 19.5222 13.2697 16.1024 17.0033C13.5274 19.813 12.0205 23.1193 11.5625 26.9337C11.9108 26.9683 12.2168 26.9914 12.5228 27.028C12.8288 27.0645 13.1348 27.1107 13.4408 27.155C13.7641 27.2012 14.1741 27.3917 14.3857 27.2608C14.6032 27.1261 14.6282 26.6796 14.7341 26.3679C14.8669 25.981 14.9997 25.5942 15.1382 25.192C15.6136 25.3498 16.0466 25.4922 16.5027 25.6442C16.2814 26.3294 16.0658 26.9952 15.8599 27.6265C17.1609 28.148 18.4407 28.6619 19.7532 29.1892C20.1381 28.6349 20.5499 28.0441 20.9714 27.436C21.3813 27.7189 21.7643 27.9825 22.1607 28.2577C21.7643 28.8389 21.3813 29.3989 21.0272 29.9186C22.1492 30.7846 23.2423 31.6275 24.397 32.5205C24.8608 32.0259 25.3554 31.4986 25.798 31.0271C26.1752 31.3946 26.5139 31.7237 26.895 32.0952C26.4042 32.5936 25.8981 33.1074 25.4266 33.5847C26.2541 34.6971 27.097 35.8325 27.9554 36.9891C28.4923 36.635 29.0658 36.2559 29.6547 35.8672C29.9338 36.2867 30.1916 36.6716 30.4553 37.07C29.8125 37.4991 29.2121 37.9014 28.654 38.2747C29.1524 39.5949 29.6374 40.8843 30.1301 42.193C30.794 41.989 31.4791 41.7773 32.1796 41.5598C32.3259 42.0333 32.4625 42.4759 32.605 42.9397C31.8525 43.1783 31.1346 43.4054 30.4168 43.6325C30.5303 44.562 30.642 45.4666 30.7594 46.423C31.4387 46.3076 32.12 46.2344 32.7782 46.0766C38.6825 44.6506 42.8548 41.1461 45.2874 35.5823C45.8532 34.2872 46.1938 32.9246 46.4209 31.5313C46.4633 31.2676 46.392 31.1752 46.1149 31.1695C45.7435 31.1618 45.3701 31.1117 45.0026 31.0617C44.4348 30.9847 43.871 30.8904 43.284 30.8C43.0184 31.6063 42.7567 32.4011 42.4853 33.221C42.0138 33.0632 41.5654 32.9131 41.1112 32.763C41.371 31.9662 41.6193 31.2041 41.8502 30.4921C40.5512 29.9724 39.3003 29.4721 38.034 28.964C37.5836 29.6145 37.1179 30.2881 36.6425 30.977C36.2384 30.698 35.8477 30.4285 35.4494 30.1533C35.9112 29.4817 36.3481 28.8428 36.758 28.2462C35.6206 27.3705 34.5102 26.5141 33.3286 25.6058C32.8109 26.1677 32.2566 26.772 31.7639 27.307C31.3637 26.9298 31.0211 26.6046 30.6689 26.2697C31.2347 25.702 31.8063 25.1285 32.3471 24.5877C31.5234 23.4888 30.7016 22.3938 29.8722 21.2872C29.2525 21.6971 28.6155 22.1186 27.9631 22.5516C27.6879 22.1378 27.4281 21.751 27.1606 21.3488C27.8611 20.8792 28.5385 20.425 29.1601 20.0074C28.6501 18.6949 28.1632 17.4401 27.6686 16.1623C26.9469 16.3855 26.2079 16.6145 25.4343 16.8531C25.2899 16.3893 25.1514 15.9467 25.0032 15.4752C25.8173 15.2173 26.6005 14.9671 27.3703 14.7227C27.2876 14.1473 27.201 13.6219 27.1375 13.0927C27.072 12.5557 27.0297 12.015 26.9777 11.4761L26.9816 11.4684ZM29.062 15.7196C29.5104 16.8916 29.9434 18.0155 30.3899 19.1799C30.9922 18.7815 31.5118 18.437 32.0507 18.081C32.3278 18.4986 32.5857 18.8854 32.8513 19.2857C32.272 19.6745 31.7178 20.0478 31.1423 20.4346C31.8178 21.5508 32.5684 22.5766 33.5095 23.5812C33.9559 23.0981 34.3793 22.6401 34.7238 22.2687C35.1164 22.6016 35.4705 22.9018 35.867 23.2386C35.3897 23.7005 34.949 24.1277 34.4371 24.6243C35.4955 25.4325 36.5309 26.2254 37.5894 27.0357C38.0186 26.4179 38.3919 25.8771 38.7864 25.3094C39.1925 25.5923 39.5793 25.8617 39.9739 26.135C39.6082 26.6719 39.2656 27.1704 38.8692 27.7516C39.9277 28.1557 40.9419 28.5368 41.9503 28.9313C42.2409 29.0448 42.3814 29.0006 42.4661 28.6715C42.5931 28.173 42.7817 27.69 42.9491 27.1819C43.4322 27.3417 43.869 27.4879 44.3232 27.638C44.1288 28.2346 43.9479 28.7889 43.7574 29.3701C43.8825 29.4009 43.9826 29.4355 44.0846 29.4471C44.8236 29.5433 45.5645 29.6241 46.3035 29.7319C46.5653 29.7704 46.6095 29.6626 46.6153 29.4374C46.6461 28.0787 46.5576 26.7277 46.2612 25.3998C44.9564 19.5571 41.575 15.3655 36.1576 12.8348C33.8135 11.7398 31.3175 11.2875 28.7329 11.3144C28.5269 11.3164 28.4423 11.376 28.4654 11.5916C28.5096 12.0265 28.5231 12.4653 28.5751 12.8983C28.6289 13.3486 28.7117 13.7951 28.7848 14.2762C29.4161 14.0838 30.0011 13.9048 30.6131 13.7181C30.7632 14.1973 30.8998 14.6361 31.0423 15.0942C30.3918 15.3001 29.7759 15.4945 29.0658 15.7196H29.062ZM18.8313 33.094C18.4349 32.8188 18.0442 32.5493 17.6401 32.2703C18.0615 31.6525 18.4618 31.0656 18.916 30.4016C17.719 29.9301 16.5758 29.4817 15.4 29.0179C15.1363 29.8031 14.9034 30.5036 14.6629 31.2214C14.1894 31.0636 13.7507 30.9174 13.2965 30.7673C13.5197 30.0802 13.7314 29.424 13.9643 28.7023C13.1175 28.5906 12.3054 28.481 11.4374 28.3674C11.4297 33.9234 13.3927 38.5287 17.5034 42.1487C20.8444 45.0894 24.7915 46.4846 29.3044 46.4865C29.2024 45.6475 29.1101 44.8738 29.0119 44.0694C28.3018 44.2888 27.6648 44.4851 27.0027 44.691C26.8565 44.2176 26.716 43.7691 26.5736 43.3111C27.2953 43.0821 27.9804 42.8646 28.7348 42.626C28.2941 41.4367 27.8688 40.2916 27.4242 39.0945C26.7545 39.5391 26.1656 39.9298 25.5651 40.3301C25.288 39.9125 25.0301 39.5276 24.7626 39.1234C25.415 38.6866 26.0386 38.2689 26.6814 37.8379C25.9828 36.6543 25.2033 35.5881 24.2065 34.52C23.7042 35.0858 23.2327 35.617 22.8016 36.102C22.407 35.7325 22.0703 35.4149 21.7181 35.0858C22.2242 34.5758 22.7246 34.0697 23.2442 33.5462C22.2974 32.6533 21.2812 31.8623 20.1515 31.1829C19.7089 31.8238 19.2855 32.4377 18.8294 33.0997L18.8313 33.094Z" fill="white"/>
</g>
<defs>
<clipPath id="clip0_1654_765">
<rect width="38.3186" height="38.3186" fill="white" transform="translate(9.8728 9.73828)"/>
</clipPath>
</defs>
</svg>
