<svg width="57" height="34" viewBox="0 0 57 34" fill="none" xmlns="http://www.w3.org/2000/svg">
<path d="M36.6946 14.855C38.6392 15.3341 40.3802 16.4321 41.6517 17.9889C43.0096 19.6516 43.7478 21.7343 43.74 23.881C43.74 23.8813 43.74 23.8816 43.74 23.8819L43.24 23.88L36.6946 14.855ZM36.6946 14.855C36.6423 13.5461 36.1468 12.289 35.2829 11.2934C34.4051 10.2819 33.2062 9.60891 31.8933 9.38311C31.2431 6.89359 29.8014 4.67881 27.781 3.07555C25.6705 1.40076 23.0536 0.492648 20.3593 0.500045C13.7756 0.500429 8.42 5.8563 8.42 12.44C8.42 12.6501 8.42647 12.8619 8.43933 13.0767L36.6946 14.855Z" fill="white" stroke="white"/>
<path d="M52.1642 12.9C52.1936 11.9757 51.877 11.0742 51.2777 10.3758C50.6785 9.67733 49.8408 9.23333 48.9319 9.13252C48.5341 7.38577 47.5614 5.82756 46.1732 4.71334C44.785 3.59912 43.0638 2.995 41.2916 3.00003C36.961 3.00003 33.4375 6.56403 33.4375 10.9445C33.4375 11.1791 33.4496 11.4181 33.4737 11.6656C30.3575 12.2315 28 15.02 28 18.2778C28 21.9842 30.9816 25 34.6458 25H50.9583C54.2897 25 57 22.2586 57 18.8889C57.0052 17.4784 56.5257 16.1099 55.6436 15.0175C54.7615 13.9251 53.5316 13.1766 52.1642 12.9ZM50.9583 23.7778H34.6458C31.6473 23.7778 29.2083 21.3101 29.2083 18.2778C29.2083 15.4355 31.4021 13.0296 34.203 12.801L34.8621 12.7472L34.7497 12.0885C34.6831 11.7108 34.6483 11.3281 34.6458 10.9445C34.6458 7.23808 37.6274 4.22225 41.2916 4.22225C44.5499 4.22225 47.3031 6.58236 47.8384 9.83347L47.926 10.3657L48.4589 10.3437C48.4868 10.3441 48.5147 10.3406 48.5416 10.3334C49.8744 10.3334 50.9583 11.4297 50.9583 12.7778C50.9583 12.944 50.9402 13.1157 50.9033 13.2881L50.7613 13.9578L51.435 14.0245C52.6302 14.1394 53.7398 14.7021 54.5459 15.6022C55.3519 16.5022 55.7963 17.6745 55.7916 18.8889C55.7916 21.5845 53.6233 23.7778 50.9583 23.7778Z" fill="white"/>
</svg>
