<svg width="53" height="53" viewBox="0 0 53 53" fill="none" xmlns="http://www.w3.org/2000/svg">
<g clip-path="url(#clip0_1849_1074)">
<path d="M3.7435e-05 19.3586C0.247095 18.8038 0.6791 18.5636 1.27811 18.5926C1.41475 18.5995 1.55691 18.5498 1.68941 18.5705C2.80324 18.7486 3.59686 18.2517 4.23176 17.3946C4.33389 17.2579 4.46501 17.1406 4.59061 17.0233C5.21999 16.4353 6.01223 16.5927 6.34762 17.3794C6.48978 17.7107 6.64988 18.046 6.72165 18.3952C6.87624 19.1488 7.33861 19.5739 8.03147 19.8279C8.36824 19.9521 8.68983 20.1288 9.00314 20.3068C9.69324 20.6988 9.78572 21.5062 9.18809 22.0321C8.74918 22.4185 8.2592 22.7484 7.82582 23.1418C7.65329 23.2977 7.51527 23.5434 7.4642 23.7712C7.35241 24.2735 7.30824 24.7911 7.23095 25.3018C7.08051 26.3052 6.31725 26.6558 5.46704 26.1147C5.38009 26.0595 5.28209 26.014 5.21032 25.9422C4.30353 25.0589 3.25595 24.9402 2.08277 25.2977C1.79017 25.3874 1.42165 25.3736 1.12629 25.2825C0.61561 25.1265 0.401678 24.5896 0.552121 24.0058C0.694282 23.4565 0.883371 22.9182 1.00345 22.3633C1.049 22.1522 1.02001 21.883 0.926157 21.6884C0.643215 21.1046 0.310584 20.5456 -0.00134277 19.977C-0.00134277 19.7699 -0.00134277 19.5629 -0.00134277 19.3559L3.7435e-05 19.3586ZM2.99785 23.0893C3.90879 22.7332 4.6679 22.932 5.42288 23.6442C5.37871 22.5911 5.78173 21.9189 6.71613 21.4179C5.67269 21.1377 5.1703 20.5332 4.97431 19.469C4.4167 20.4407 3.66587 20.6836 2.7715 20.5953C3.08158 21.4805 3.15703 22.3118 2.99785 23.0893Z" fill="white"/>
<path d="M52.9999 19.9767C52.6549 20.6061 52.2988 21.23 51.9758 21.8704C51.9096 22.0015 51.9482 22.2058 51.9883 22.3631C52.1235 22.8973 52.2891 23.4217 52.4299 23.9545C52.6659 24.8544 52.1456 25.4603 51.2167 25.354C50.7378 25.2988 50.2575 25.2326 49.791 25.1153C49.37 25.009 49.0332 25.0697 48.6882 25.3361C48.2948 25.6411 47.8683 25.9075 47.4418 26.167C46.7103 26.6155 45.9636 26.2912 45.7953 25.4479C45.6986 24.9593 45.6076 24.4624 45.5786 23.9669C45.5523 23.528 45.3798 23.2354 45.0223 22.9911C44.611 22.7095 44.2246 22.388 43.8464 22.0622C43.1977 21.5032 43.2529 20.584 44.0479 20.3025C45.4875 19.7904 46.3018 18.8532 46.6717 17.3819C46.8773 16.5649 47.8738 16.3578 48.3873 17.0341C49.3175 18.2584 50.4783 18.7566 51.98 18.6145C52.4975 18.5648 52.7819 18.9388 52.9999 19.3556V19.9767ZM50.0008 23.0173C49.595 22.1478 49.7537 21.3735 50.3486 20.5426C49.2955 20.7441 48.6109 20.3508 47.9898 19.5199C47.8545 20.5854 47.2693 21.1154 46.3018 21.4425C47.2541 21.9104 47.5978 22.6171 47.5964 23.684C48.3335 22.8766 49.0967 22.7689 50.0021 23.0173H50.0008Z" fill="white"/>
<path d="M26.1894 53C25.629 52.695 25.4524 52.2299 25.4537 51.5936C25.4703 44.4386 25.4648 37.2836 25.4648 30.1272C25.4648 29.3336 25.814 28.8906 26.4475 28.8643C27.0051 28.8409 27.4481 29.208 27.5227 29.7656C27.5434 29.9188 27.5351 30.0748 27.5351 30.2307C27.5351 37.3512 27.5296 44.4717 27.5461 51.5936C27.5475 52.2299 27.3695 52.695 26.8105 53H26.1894Z" fill="white"/>
<path d="M10.2481 0C10.4054 0.0607292 10.5628 0.125599 10.7215 0.182187C12.1762 0.705286 12.9974 2.12414 12.738 3.67135C12.4978 5.10401 11.1825 6.20404 9.70427 6.20818C8.22883 6.21232 6.90935 5.13023 6.64159 3.6962C6.36003 2.18487 7.19781 0.716328 8.64151 0.187708C8.79886 0.1325 8.95344 0.0634896 9.1094 0C9.48896 0 9.86852 0 10.2481 0ZM8.67326 3.11789C8.68016 3.68792 9.13011 4.13786 9.69185 4.13786C10.2453 4.13786 10.7146 3.67411 10.7229 3.11789C10.7311 2.5451 10.2398 2.05927 9.66563 2.07445C9.10112 2.08964 8.66636 2.54648 8.67326 3.11927V3.11789Z" fill="white"/>
<path d="M43.8907 0C44.0301 0.0579687 44.1681 0.121458 44.3102 0.172526C45.7705 0.690104 46.6138 2.11448 46.3654 3.64789C46.1294 5.09987 44.7933 6.21508 43.2944 6.20956C41.8162 6.20542 40.5023 5.10539 40.2607 3.67135C39.9985 2.10758 40.8418 0.674922 42.3255 0.162865C42.469 0.113177 42.6098 0.0538281 42.7506 0C43.1302 0 43.5097 0 43.8893 0L43.8907 0ZM44.3254 3.08753C44.3171 2.5175 43.8672 2.07031 43.3027 2.07307C42.7478 2.07583 42.28 2.54234 42.2744 3.09581C42.2689 3.66997 42.7644 4.15443 43.3372 4.13648C43.9031 4.11854 44.3337 3.66169 44.3254 3.08753Z" fill="white"/>
<path d="M21.0674 22.6866C21.113 22.0159 21.1765 21.3451 21.1917 20.6743C21.1958 20.4755 21.1089 20.2368 20.9833 20.0794C20.1731 19.0719 19.338 18.0836 18.5182 17.0844C17.8226 16.2369 18.071 15.4723 19.1324 15.1962C20.3152 14.8885 21.4967 14.5765 22.685 14.2895C23.0577 14.1997 23.3199 14.0369 23.5256 13.696C24.1674 12.6346 24.8437 11.5939 25.5117 10.5477C26.0817 9.65747 26.9099 9.64919 27.4785 10.5325C28.1686 11.6049 28.8325 12.6953 29.5405 13.7553C29.6841 13.9706 29.9546 14.1666 30.2058 14.237C31.4314 14.5834 32.6722 14.8733 33.9034 15.2032C34.9289 15.4778 35.1704 16.2466 34.4955 17.0733C33.677 18.0754 32.8392 19.0608 32.0318 20.0698C31.8979 20.2381 31.8027 20.499 31.8124 20.7102C31.8731 21.9841 31.9642 23.2567 32.058 24.5292C32.1395 25.6306 31.459 26.1482 30.4308 25.7452C29.2452 25.2801 28.0679 24.7928 26.874 24.3457C26.6587 24.2656 26.3619 24.2642 26.148 24.3457C24.9541 24.7901 23.7754 25.2745 22.5898 25.7397C21.5326 26.1551 20.8577 25.6375 20.9501 24.4961C20.9984 23.8943 21.0302 23.2926 21.0702 22.6894L21.0674 22.6866ZM21.0122 16.847C21.6554 17.6254 22.2254 18.3514 22.8355 19.0429C23.1916 19.4459 23.3406 19.8738 23.2951 20.4093C23.2137 21.3506 23.1695 22.2947 23.106 23.2995C24.0501 22.9296 24.9527 22.5997 25.8347 22.2215C26.2984 22.0228 26.7139 22.0283 27.1735 22.2215C28.0541 22.5928 28.9512 22.924 29.8856 23.2898C29.8552 22.7225 29.8304 22.2256 29.8014 21.7288C29.651 19.1409 29.408 20.0518 31.074 17.9594C31.3569 17.6047 31.6509 17.2583 31.9877 16.8497C31.3031 16.6703 30.7317 16.455 30.1437 16.3805C28.8905 16.2217 28.0361 15.6034 27.502 14.4551C27.248 13.9085 26.8574 13.4241 26.4972 12.8609C25.9451 13.7291 25.4289 14.5006 24.9555 15.2998C24.6794 15.7663 24.3068 16.023 23.7865 16.1417C22.8879 16.3487 21.9977 16.593 21.0109 16.847H21.0122Z" fill="white"/>
<path d="M34.6943 42.7667C34.8613 39.0981 35.3471 35.4916 36.6348 32.0301C37.6272 29.3635 39.0212 26.9523 41.1633 25.0283C41.6671 24.5769 42.2702 24.5756 42.6843 25.0145C43.0832 25.4382 43.0804 26.0593 42.6125 26.4913C40.0039 28.8984 38.6458 31.9859 37.7859 35.3412C37.0682 38.1458 36.8253 41.0083 36.7687 43.893C36.766 44.0475 36.7687 44.2035 36.7632 44.3581C36.7439 45.0592 36.3174 45.5285 35.7142 45.5133C35.1263 45.4981 34.7108 45.0413 34.697 44.3691C34.686 43.835 34.6943 43.3008 34.6943 42.7667Z" fill="white"/>
<path d="M18.3057 42.758C18.3057 43.2922 18.314 43.8263 18.3029 44.3605C18.2891 45.0547 17.8461 45.5295 17.2429 45.5157C16.6563 45.5019 16.2464 45.0478 16.2381 44.3687C16.2036 41.4675 15.9869 38.5843 15.3148 35.7535C14.615 32.8067 13.5219 30.038 11.5399 27.6903C11.2073 27.2969 10.8305 26.9381 10.4647 26.5751C9.95681 26.0699 9.89194 25.4764 10.3088 25.0237C10.727 24.5696 11.3398 24.5807 11.867 25.0582C14.1513 27.1272 15.5798 29.7316 16.5694 32.6052C17.7012 35.8929 18.1456 39.2992 18.3043 42.758H18.3057Z" fill="white"/>
<path d="M19.8612 12.1495C19.8639 12.7154 19.4789 13.1708 18.9737 13.244C18.4244 13.3226 17.9758 12.9638 17.8005 12.3882C17.5521 11.5684 17.3285 10.7306 16.9683 9.95908C16.3706 8.67963 15.5177 7.5865 14.2989 6.80806C13.7579 6.46301 13.6461 5.86952 13.9704 5.37265C14.2755 4.90476 14.8593 4.75017 15.3741 5.07314C15.8379 5.36437 16.292 5.69147 16.6812 6.07379C18.3195 7.68726 19.3726 9.62783 19.8156 11.89C19.835 11.9907 19.8529 12.0929 19.8626 12.1508L19.8612 12.1495Z" fill="white"/>
<path d="M39.2076 6.11517C39.1096 6.25733 38.9785 6.61204 38.7232 6.78457C36.7564 8.12475 35.7171 10.0419 35.205 12.3013C35.0587 12.9444 34.6253 13.3088 34.0567 13.2439C33.5474 13.1874 33.1389 12.7443 33.1416 12.224C33.1416 12.0376 33.183 11.8472 33.2258 11.6636C33.811 9.15163 35.0353 7.03025 37.078 5.41954C37.3181 5.23046 37.5914 5.06069 37.8771 4.95993C38.523 4.73358 39.1993 5.24288 39.2063 6.11379L39.2076 6.11517Z" fill="white"/>
<path d="M8.69673 37.8671C8.15017 37.8561 7.67538 37.373 7.67676 36.8279C7.67814 36.2523 8.1695 35.7886 8.7547 35.8093C9.32197 35.83 9.75121 36.2882 9.73603 36.861C9.72085 37.4213 9.24882 37.8782 8.69673 37.8671Z" fill="white"/>
<path d="M44.2067 36.8093C44.2178 37.371 43.7747 37.8445 43.2185 37.8679C42.6582 37.8914 42.1447 37.3945 42.1475 36.8286C42.1489 36.2752 42.6126 35.8142 43.173 35.8086C43.7458 35.8031 44.1957 36.2393 44.2067 36.8079V36.8093Z" fill="white"/>
<path d="M33.3444 30.3661C33.3361 30.9375 32.8903 31.3751 32.3189 31.3723C31.7613 31.3696 31.2934 30.9086 31.2879 30.3565C31.2824 29.792 31.793 29.2937 32.3548 29.313C32.9152 29.3324 33.3541 29.7989 33.3458 30.3661H33.3444Z" fill="white"/>
<path d="M26.4061 6.33133C25.843 6.32857 25.3806 5.8731 25.3778 5.31687C25.3737 4.77031 25.8457 4.29 26.395 4.27758C26.9692 4.26516 27.4495 4.74961 27.4385 5.33068C27.4288 5.9007 26.9816 6.33271 26.4061 6.32995V6.33133Z" fill="white"/>
<path d="M41.9308 15.9562C41.3676 15.9521 40.9067 15.4939 40.9053 14.939C40.9039 14.3925 41.3759 13.9121 41.9253 13.9025C42.4994 13.8928 42.977 14.3787 42.9659 14.9597C42.9549 15.5284 42.5063 15.9604 41.9308 15.9562Z" fill="white"/>
<path d="M13.0458 16.2687C12.484 16.2618 12.023 15.8022 12.0244 15.2473C12.0244 14.7008 12.4992 14.2232 13.0485 14.2149C13.6227 14.2067 14.0989 14.6939 14.0851 15.2763C14.0713 15.845 13.6213 16.2756 13.0458 16.2687Z" fill="white"/>
<path d="M16.2423 47.4386C16.2602 46.8672 16.7102 46.4449 17.2885 46.4573C17.853 46.4683 18.3085 46.9321 18.3002 47.4869C18.2919 48.057 17.7812 48.5373 17.2153 48.5069C16.655 48.4765 16.2257 48.0045 16.2423 47.4386Z" fill="white"/>
<path d="M36.7577 47.4729C36.7591 48.0346 36.3064 48.4998 35.7502 48.5094C35.1843 48.5191 34.6833 48.0153 34.6985 47.4536C34.7123 46.896 35.1774 46.4529 35.7447 46.4571C36.3202 46.4612 36.7563 46.8987 36.7577 47.4743V47.4729Z" fill="white"/>
<path d="M20.7735 29.7931C21.3422 29.8014 21.7811 30.2499 21.7783 30.8186C21.7756 31.3803 21.3187 31.8441 20.7639 31.8482C20.1883 31.8537 19.7191 31.3679 19.7342 30.7827C19.7494 30.214 20.1994 29.7848 20.7735 29.7931Z" fill="white"/>
</g>
<defs>
<clipPath id="clip0_1849_1074">
<rect width="53" height="53" fill="white"/>
</clipPath>
</defs>
</svg>
