<svg width="277" height="163" viewBox="0 0 277 163" fill="none" xmlns="http://www.w3.org/2000/svg">
<g clip-path="url(#clip0_2379_1150)">
<path d="M268.92 99.8719C266.96 97.0019 264.01 94.8119 259.96 93.2419C258.92 88.4519 256.72 83.9619 253.55 80.2019C257.72 71.4119 263.35 58.3519 265.54 47.6919C266 45.4419 265.29 43.1019 263.63 41.4119C261.16 38.9019 255.48 37.5619 251.03 37.2519C252.39 36.2719 253.43 34.9019 254.01 33.2719C255.58 28.8719 257.14 24.4619 258.72 20.0619C258.86 19.9919 259 19.9319 259.14 19.8619L261.91 18.5219C262.74 18.1219 263.61 17.7019 264.51 17.2119C266.59 16.0719 268.22 14.3519 269.21 12.2519C270.27 10.0119 270.32 7.58187 269.37 5.41187C268.77 4.06187 267.53 2.20187 264.98 1.05187C263.62 0.441871 262.14 0.101871 260.47 0.0218707C256.37 -0.178129 253.12 0.991871 250.22 3.60187L247.81 4.10187L246.01 3.48187C243.94 2.77187 241.88 2.05187 239.79 1.35187C238.69 0.981871 236.48 0.511871 234.14 1.50187C233.16 1.91187 232.29 2.36187 231.53 2.77187L231 3.04187C229.13 4.02187 227.84 5.77187 227.46 7.85187C227.39 8.25187 227.36 8.64187 227.36 9.04187C226.24 9.04187 225.32 9.31187 224.67 9.60187C224.23 9.79187 223.79 10.0019 223.34 10.2119L221.41 11.1019C218.69 12.3619 217.68 15.7219 219.25 18.2719L197.35 15.0819L195.15 30.4819C182.83 31.0619 178.87 31.7319 176.97 32.2019C172.96 33.2019 171.39 36.9019 170.9 40.8319C160.63 33.5819 143.31 31.6919 125.01 36.7819L119.81 38.2319L120.33 44.1819L107.8 49.9519C107.37 46.7219 106.94 44.2119 106.5 42.3719C105.71 39.0719 103.16 36.5719 99.5 35.4919C92.78 33.5219 79.73 36.4419 75.01 40.9819C72.74 43.1619 71.83 46.0119 72.52 48.7919C73.39 52.2619 74.17 55.8519 74.89 59.4819C69.16 54.8219 62.2 51.9319 54.69 51.1819C32.74 48.9919 13.22 66.0119 12.86 88.5319C12.72 97.0119 15.49 105.362 20.63 112.112C27.11 120.602 36.59 125.892 47.15 126.942C48.43 127.072 49.69 127.132 50.95 127.132C51.74 127.132 52.52 127.102 53.29 127.052C34.64 132.212 19.78 136.562 11.71 138.922C10.31 139.332 7.15996 140.232 4.31996 141.042C1.33996 141.892 -0.480036 144.892 0.139964 147.932L0.169964 148.092C0.759964 150.972 3.15996 153.112 6.07996 153.362C25.13 154.982 49.5 157.872 63.96 159.782C78.94 161.762 85.21 162.532 88.48 162.532C90.32 162.532 91.21 162.282 92.17 161.862C128.5 146.052 178.96 131.512 212.63 123.472C216.17 126.142 220.26 128.002 224.64 128.902C236.39 131.322 248.4 126.412 255.17 116.802C256.36 116.862 257.34 116.952 258.13 117.072C257.9 117.292 257.64 117.522 257.36 117.762C252.65 121.842 256.14 127.112 257.82 129.642C258.69 130.952 262.41 136.852 262.41 136.852C264.61 140.762 267.49 140.632 269.81 139.532C272.41 138.302 274.16 135.812 274.84 133.022C277.7 121.192 275.68 109.802 268.94 99.8819L268.92 99.8719ZM201.36 93.3119C192.1 94.6419 181.81 96.4019 170.63 98.5719C175.76 96.7519 179.54 94.9319 182.02 93.5819C184.1 92.4419 186.95 90.8819 188.8 88.7119C191 89.9519 193.4 90.8619 195.95 91.3819C197.62 91.7219 199.28 91.8919 200.91 91.8919C201.18 91.8919 201.44 91.8619 201.71 91.8519C201.58 92.3319 201.47 92.8119 201.36 93.3019V93.3119ZM113.92 96.2819C114.88 101.252 116.9 105.012 121.57 105.222C128.17 105.512 134.68 105.372 141 104.802C131.38 106.962 121.73 109.242 112.27 111.572C112.13 108.492 111.86 102.972 111.49 96.3519L113.92 96.2819ZM227.29 27.3519C227.62 27.6519 227.99 27.9119 228.38 28.1519C227.15 28.4419 226.06 28.9619 225.14 29.6719L220.05 29.7419C220.05 29.7419 219.85 29.7419 219.47 29.7419L222 21.9819C223.61 23.7919 225.35 25.6319 227.29 27.3519ZM81.3 111.922C81.58 116.292 81.68 118.922 81.69 119.022V119.352C77.05 120.572 72.52 121.782 68.13 122.972C73.29 120.342 77.81 116.552 81.31 111.922H81.3Z" fill="white"/>
</g>
<path d="M225.704 17.4064C226.209 17.176 226.697 16.9455 227.193 16.7328C227.264 16.7062 227.371 16.7328 227.45 16.7594C229.489 17.4153 231.528 18.0801 233.566 18.7448C233.717 18.7892 233.832 18.7803 233.974 18.7182C240.719 15.483 247.464 12.2567 254.218 9.03037C255.317 8.50742 256.487 8.3922 257.675 8.44538C258.366 8.48083 259.04 8.58719 259.678 8.87083C260.13 9.07469 260.494 9.35832 260.698 9.82809C260.91 10.2979 260.822 10.7322 260.618 11.1576C260.228 11.9819 259.598 12.5935 258.81 13.0278C257.897 13.5242 256.957 13.9496 256.018 14.4017C254.564 15.1019 253.101 15.7933 251.648 16.4935C251.559 16.5378 251.462 16.6442 251.426 16.7328C249.707 21.4837 248.005 26.2434 246.294 31.0031C246.135 31.4463 245.86 31.7654 245.426 31.9604C244.628 32.3238 243.83 32.7049 243.041 33.0861C242.917 33.1481 242.829 33.0949 242.793 32.9886C242.758 32.8645 242.731 32.7315 242.74 32.6074C243.024 29.8775 243.307 27.1564 243.6 24.4264C243.742 23.0703 243.892 21.723 244.034 20.3669C244.034 20.296 244.043 20.2162 244.052 20.1098C243.919 20.1719 243.804 20.225 243.697 20.2782C242.368 20.9164 241.047 21.5812 239.638 22.0509C237.741 22.6803 235.809 23.2121 233.814 23.4425C233.158 23.5223 232.494 23.5843 231.847 23.4159C231.616 23.3627 231.377 23.2475 231.2 23.088C229.223 21.3596 227.459 19.4273 225.731 17.4596C225.722 17.4419 225.713 17.4242 225.687 17.3976L225.704 17.4064Z" fill="#D3D3D3"/>
<path d="M242.953 33.5589C242.873 33.5589 242.793 33.5412 242.722 33.5146C242.563 33.4437 242.448 33.3107 242.386 33.1334C242.323 32.9296 242.297 32.7434 242.315 32.575C242.598 29.845 242.882 27.1239 243.174 24.394L243.547 20.8663L243.298 20.9904C242.173 21.531 241.012 22.0894 239.788 22.4972C237.511 23.2506 235.631 23.7026 233.876 23.9065C233.159 23.9862 232.458 24.0483 231.749 23.871C231.43 23.7912 231.138 23.6406 230.916 23.4456C228.895 21.6728 227.078 19.6697 225.412 17.7729L225.341 17.6665L225.102 17.2499L225.864 16.8599C226.254 16.6827 226.635 16.5054 227.025 16.337C227.229 16.2483 227.433 16.2927 227.592 16.3458C229.631 17.0017 231.669 17.6665 233.708 18.3313C240.533 15.0872 247.278 11.8609 254.032 8.63455C255.069 8.13819 256.239 7.94319 257.702 8.0141C258.535 8.04955 259.244 8.2091 259.864 8.48387C260.467 8.74977 260.875 9.13977 261.114 9.67158C261.354 10.2034 261.318 10.7618 261.034 11.3734C260.618 12.2509 259.944 12.9511 259.04 13.4386C258.331 13.8197 257.604 14.1654 256.895 14.5022L254.307 15.7431C253.492 16.1331 252.676 16.5231 251.869 16.9131C250.159 21.664 248.448 26.4237 246.746 31.1746C246.542 31.7418 246.17 32.1496 245.647 32.3889C244.956 32.6991 244.273 33.0271 243.591 33.355L243.263 33.5146C243.165 33.5589 243.068 33.5855 242.971 33.5855L242.953 33.5589ZM244.557 19.4038L244.504 20.2458C244.504 20.3167 244.504 20.3699 244.495 20.4231L244.061 24.4826C243.777 27.1594 243.493 29.845 243.219 32.5218C243.901 32.1939 244.575 31.8748 245.266 31.5646C245.576 31.4228 245.78 31.2012 245.904 30.8555C247.615 26.0958 249.326 21.336 251.036 16.5852C251.107 16.3813 251.285 16.1863 251.479 16.0888C252.295 15.6988 253.11 15.3088 253.917 14.9188L256.514 13.6779C257.214 13.35 257.932 13.0043 258.615 12.632C259.35 12.2332 259.9 11.6747 260.237 10.9657C260.414 10.5845 260.441 10.3009 260.308 10.0084C260.166 9.68045 259.918 9.45 259.51 9.27272C258.987 9.04227 258.402 8.91818 257.666 8.88273C256.346 8.82068 255.317 8.98909 254.422 9.4234C247.677 12.6497 240.923 15.8849 234.178 19.1113C233.93 19.2265 233.699 19.2442 233.442 19.1645C231.404 18.4997 229.365 17.8349 227.326 17.179C227.317 17.179 227.309 17.179 227.309 17.179C227.016 17.3031 226.724 17.4361 226.431 17.5779C227.964 19.3151 229.657 21.1499 231.519 22.7808C231.634 22.8783 231.802 22.9669 231.98 23.0112C232.547 23.1531 233.159 23.0999 233.788 23.029C235.507 22.8251 237.271 22.4085 239.523 21.6551C240.693 21.2651 241.827 20.7156 242.926 20.1926L244.566 19.4126L244.557 19.4038Z" fill="white"/>
<path d="M244.486 11.9479C244.229 12.072 243.999 12.1783 243.768 12.2847C242.2 13.0204 240.631 13.7472 239.071 14.4917C238.929 14.5626 238.831 14.5538 238.699 14.4651C236.997 13.3572 235.286 12.2581 233.575 11.159C233.504 11.1147 233.434 11.0704 233.38 11.0083C233.239 10.8577 233.256 10.6183 233.442 10.5297C234.249 10.1131 235.047 9.6788 235.88 9.33312C236.164 9.2179 236.58 9.25335 236.89 9.35971C239.363 10.184 241.836 11.0349 244.3 11.877C244.353 11.8947 244.398 11.9213 244.486 11.9567V11.9479Z" fill="#D3D3D3"/>
<path d="M238.894 14.9906C238.743 14.9906 238.601 14.9463 238.45 14.8488C237.174 14.0156 235.889 13.1913 234.612 12.367L233.327 11.5427C233.247 11.4895 233.141 11.4186 233.044 11.3211C232.884 11.1438 232.804 10.8956 232.849 10.6652C232.893 10.4436 233.026 10.2575 233.23 10.1511L233.708 9.90291C234.347 9.56609 235.011 9.22041 235.703 8.93678C236.226 8.71519 236.846 8.89246 237.023 8.94564C238.938 9.58382 240.852 10.2309 242.767 10.8868L244.442 11.4629C244.442 11.4629 244.531 11.4983 244.584 11.5161L245.497 11.9061L243.955 12.6949L243.29 13.0052C241.943 13.6345 240.604 14.2638 239.257 14.902C239.133 14.964 239.009 14.9906 238.894 14.9906ZM233.859 10.8159L235.1 11.6136C236.367 12.4379 237.644 13.2533 238.911 14.0776C240.258 13.4395 241.588 12.819 242.918 12.1986L243.325 12.0036L242.483 11.7199C240.578 11.064 238.663 10.417 236.749 9.77882C236.491 9.69905 236.199 9.68132 236.048 9.74336C235.401 10.0093 234.754 10.3461 234.125 10.674L233.85 10.8159H233.859Z" fill="white"/>
<path d="M10.141 146.776C10.3047 146.728 10.476 146.678 10.6547 146.625C11.523 146.37 12.5706 146.061 13.7848 145.703C15.1491 145.3 16.7238 144.835 18.491 144.315C25.1748 142.348 34.6326 139.585 45.9841 136.372C68.6878 129.948 98.9641 121.726 129.77 114.481C160.581 107.235 191.904 100.97 216.706 98.4521C229.11 97.1931 239.858 96.8741 248.086 97.8294C252.2 98.307 255.662 99.1009 258.379 100.242C261.044 101.362 262.958 102.801 264.086 104.571L264.086 104.578L264.154 104.687C270.269 114.634 271.16 125.247 268.113 135.884C267.977 135.297 267.791 134.707 267.573 134.124C267.001 132.594 266.192 131.067 265.406 129.699C265.045 129.072 264.696 128.489 264.375 127.952C263.981 127.294 263.629 126.705 263.346 126.188C263.093 125.723 262.922 125.361 262.842 125.103C262.815 125.017 262.803 124.957 262.798 124.918C265.987 122.058 267.666 119.551 267.855 117.411C267.952 116.308 267.651 115.323 266.992 114.48C266.342 113.649 265.362 112.98 264.129 112.45C261.67 111.394 258.076 110.844 253.644 110.77C249.2 110.696 243.869 111.101 237.907 111.987L237.98 112.481L237.907 111.987C217.193 115.066 142.706 133.014 91.6373 155.515C91.6206 155.523 91.5527 155.544 91.4016 155.565C91.2595 155.584 91.0728 155.598 90.8388 155.605C90.3713 155.621 89.7453 155.611 88.9683 155.576C87.4158 155.506 85.2936 155.339 82.6984 155.094C77.5096 154.602 70.4572 153.798 62.3477 152.84C58.6117 152.398 54.6518 151.924 50.5475 151.432C37.6813 149.891 23.396 148.18 10.141 146.776Z" fill="#9D9B9B" stroke="white"/>
<path d="M101.806 46.5556C100.698 40.9178 81.5906 45.4245 82.344 49.0719C88.6526 79.6457 88.9794 118.286 88.9794 118.286L105.164 114.735C105.164 114.735 104.42 59.7863 101.815 46.5556H101.806Z" fill="#D3D3D3"/>
<path d="M88.5257 118.831V118.287C88.5257 117.901 88.1263 79.331 81.8902 49.1519C81.745 48.4592 82.0899 47.7665 82.9069 47.0739C85.8933 44.5487 95.2247 42.4707 99.6362 43.9437C101.116 44.4347 102.014 45.3115 102.241 46.4601C104.828 59.5769 105.6 114.166 105.6 114.718V115.078L88.5166 118.831H88.5257ZM95.9509 44.3383C91.5121 44.3383 85.6573 45.9428 83.5151 47.749C83.1338 48.0734 82.6981 48.5469 82.798 48.994C88.6437 77.2969 89.3608 112.938 89.4334 117.752L104.71 114.403C104.638 109.65 103.83 59.1385 101.37 46.653C101.207 45.8113 100.526 45.1888 99.3548 44.803C98.4289 44.4961 97.2489 44.3558 95.9509 44.3558V44.3383Z" fill="white"/>
<path d="M125.975 75L124.277 90.0682L101.675 90.6854L97.4268 78.5946L125.975 75Z" fill="#D3D3D3"/>
<path d="M101.357 91.1514L96.8188 78.2164L126.492 74.4766L124.686 90.516L101.357 91.1514ZM98.0443 78.9789L101.993 90.2255L123.869 89.6264L125.457 75.5204L98.0443 78.9789Z" fill="white"/>
<path d="M127.359 67.4108L122.076 52.3789L97.604 63.6347L100.037 75.3897L127.359 67.4108Z" fill="#D3D3D3"/>
<path d="M99.6914 75.9642L97.0771 63.3832L122.33 51.7734L127.94 67.7221L99.6823 75.9733L99.6914 75.9642ZM98.121 63.9006L100.39 74.8114L126.778 67.1049L121.822 52.9989L98.1301 63.8915L98.121 63.9006Z" fill="white"/>
<path d="M178.17 39.5667C176.167 40.0631 176.938 52.667 178.241 52.348C194.789 48.3682 220.334 46.8614 220.334 46.8614L219.057 37.3242C219.057 37.3242 185.305 37.7851 178.17 39.5578V39.5667Z" fill="#D3D3D3"/>
<path d="M178.178 52.8085C177.478 52.8085 177.186 51.6385 177.079 51.1776C176.423 48.492 175.892 39.6727 178.063 39.1409C185.163 37.3771 217.674 36.9162 219.057 36.8984H219.447L220.839 47.2865L220.36 47.3131C220.103 47.3308 194.665 48.8554 178.347 52.7819C178.294 52.7997 178.231 52.7997 178.178 52.7997V52.8085ZM178.276 40.0007C178.178 40.0273 177.939 40.2932 177.735 41.1264C176.973 44.2906 177.576 50.9826 178.258 51.8956C193.415 48.2704 216.247 46.6927 219.828 46.4622L218.667 37.7937C214.865 37.8557 184.861 38.3698 178.267 40.0007H178.276Z" fill="white"/>
<path d="M202.074 23.7891L213.482 25.4465L208.332 41.2414L199.619 40.9578L202.074 23.7891Z" fill="#D3D3D3"/>
<path d="M208.651 41.6948L199.104 41.3845L201.693 23.2852L214.066 25.0933L208.651 41.7036V41.6948ZM200.124 40.5336L208.012 40.7907L212.896 25.8113L202.446 24.2867L200.124 40.5248V40.5336Z" fill="white"/>
<path d="M119.152 84.5396C119.873 82.9413 137.205 91.2482 176.842 72.1941C177.005 72.1138 180.194 79.9387 181.542 84.4916C181.964 85.92 160.14 100.683 121.067 99.1475C119.506 99.0857 118.114 86.8476 119.152 84.5396Z" fill="#D3D3D3"/>
<path d="M155.39 96.6426C146.151 98.786 134.649 100.193 121.076 99.6535C120.718 99.6411 120.399 99.3653 120.113 98.838C118.702 96.2079 117.786 86.4141 118.745 84.2729C119.02 83.6577 119.795 83.7429 121.871 83.9822C128.312 84.7244 145.433 86.7095 176.639 71.7104L176.819 71.6261L177.016 71.7288C177.633 72.0734 181.048 81.2662 181.955 84.3524C182.026 84.5797 181.976 84.8351 181.816 85.0844C180.644 86.9357 171.464 92.9026 155.388 96.6326L155.39 96.6426ZM119.519 84.867C118.852 86.58 119.434 94.1088 120.51 97.4526C120.844 98.4988 121.076 98.6358 121.076 98.6358C159.689 100.15 179.965 86.1285 181.065 84.4742C179.879 80.4988 177.399 74.3218 176.69 72.8327C145.502 87.7535 128.325 85.7602 121.845 85.006C120.787 84.8803 119.797 84.7707 119.517 84.8569L119.519 84.867Z" fill="white"/>
<path d="M199.451 86.6129C209.32 86.6129 217.32 78.6127 217.32 68.7439C217.32 58.8752 209.32 50.875 199.451 50.875C189.582 50.875 181.582 58.8752 181.582 68.7439C181.582 78.6127 189.582 86.6129 199.451 86.6129Z" fill="#D3D3D3"/>
<path d="M199.451 87.057C198.228 87.057 196.996 86.9329 195.755 86.6848C190.968 85.7009 186.847 82.9089 184.152 78.8228C181.458 74.7367 180.518 69.8529 181.511 65.0577C183.541 55.1659 193.246 48.7842 203.129 50.8139C207.916 51.7978 212.037 54.5898 214.732 58.6759C217.426 62.762 218.357 67.6458 217.373 72.441C215.591 81.0919 207.951 87.0659 199.442 87.0659L199.451 87.057ZM199.442 51.3192C191.35 51.3192 184.073 57.0007 182.38 65.235C181.44 69.7908 182.335 74.4442 184.897 78.3264C187.459 82.2087 191.376 84.8677 195.932 85.8073C200.488 86.7468 205.141 85.8516 209.024 83.29C212.906 80.7285 215.565 76.8108 216.504 72.2549C217.444 67.699 216.549 63.0457 213.987 59.1634C211.426 55.2812 207.508 52.6221 202.952 51.6826C201.773 51.4433 200.594 51.3192 199.442 51.3192Z" fill="white"/>
<path d="M50.1925 120.936C67.1672 120.936 80.928 107.175 80.928 90.2003C80.928 73.2256 67.1672 59.4648 50.1925 59.4648C33.2178 59.4648 19.457 73.2256 19.457 90.2003C19.457 107.175 33.2178 120.936 50.1925 120.936Z" fill="#D3D3D3"/>
<path d="M50.2465 121.389C49.2027 121.389 48.1497 121.334 47.1058 121.235C38.8183 120.408 31.3387 116.405 26.0648 109.961C20.7819 103.516 18.331 95.4007 19.1571 87.1042C20.8636 69.9936 36.1678 57.4489 53.2874 59.1554C61.5749 59.9814 69.0545 63.9845 74.3284 70.4293C79.6114 76.8741 82.0622 84.9892 81.2362 93.2858C80.4101 101.582 76.4071 109.053 69.9623 114.327C64.3344 118.938 57.4357 121.389 50.2556 121.389H50.2465ZM50.1649 59.9088C34.8062 59.9088 21.6079 71.5912 20.0466 87.1949C19.2478 95.2464 21.6261 103.125 26.7547 109.38C31.8833 115.634 39.136 119.528 47.1875 120.327C55.239 121.126 63.118 118.747 69.3722 113.619C75.6265 108.49 79.5206 101.237 80.3194 93.1859C81.1182 85.1344 78.7399 77.2554 73.6113 71.0012C68.4827 64.747 61.23 60.8528 53.1785 60.0541C52.1618 59.9542 51.1543 59.8997 50.1558 59.8997L50.1649 59.9088Z" fill="white"/>
<path d="M68.2373 91.5344C67.8743 91.5344 67.5112 91.4799 67.1572 91.4254C66.6034 91.3528 66.0588 91.2621 65.4869 91.1713C65.2328 91.9519 64.9695 92.7326 64.7063 93.5314C64.2434 93.377 63.8077 93.2318 63.372 93.0866C63.6261 92.315 63.8621 91.5707 64.0891 90.8717C62.8273 90.3634 61.611 89.8823 60.3765 89.3831C59.9408 90.0185 59.4869 90.672 59.024 91.3437C58.6336 91.0714 58.2524 90.8082 57.8621 90.545C58.3069 89.8914 58.7335 89.2741 59.1329 88.6841C58.0255 87.8309 56.9453 86.9958 55.7925 86.1153C55.2932 86.6599 54.7486 87.2499 54.2675 87.7673C53.8772 87.3952 53.5413 87.0865 53.1964 86.7598C53.7501 86.206 54.3038 85.6523 54.8303 85.1259C54.0315 84.0547 53.2327 82.9927 52.4248 81.9125C51.8257 82.3119 51.1994 82.7204 50.564 83.147C50.2917 82.7476 50.0466 82.3664 49.7834 81.9761C50.4641 81.5222 51.1268 81.0774 51.7259 80.6689C51.2266 79.3891 50.7546 78.1727 50.2735 76.9291C49.5746 77.147 48.8484 77.3648 48.1041 77.6008C47.9588 77.147 47.8318 76.7203 47.6865 76.2574C48.4762 76.0032 49.2387 75.7672 49.9921 75.5221C49.9104 74.9594 49.8287 74.451 49.7652 73.9336C49.7017 73.4072 49.6654 72.8807 49.6109 72.3633C46.6245 72.6174 42.3491 74.1152 39.0178 77.7552C36.5125 80.4874 35.042 83.7098 34.5972 87.4224C34.933 87.4587 35.2326 87.4769 35.5321 87.5132C35.8317 87.5495 36.1312 87.5949 36.4308 87.6402C36.7485 87.6856 37.1479 87.8672 37.3476 87.7401C37.5563 87.613 37.5836 87.1773 37.6834 86.8687C37.8105 86.4965 37.9376 86.1153 38.0737 85.725C38.5367 85.8793 38.9542 86.0154 39.399 86.1607C39.1812 86.8233 38.9724 87.4769 38.7727 88.0941C40.0435 88.6024 41.2871 89.1017 42.567 89.61C42.9391 89.0744 43.3385 88.4935 43.7561 87.9035C44.1555 88.1758 44.5276 88.439 44.918 88.7023C44.5276 89.2651 44.1555 89.8097 43.8106 90.318C44.8998 91.1622 45.9709 91.9792 47.0874 92.8506C47.5413 92.3695 48.0224 91.8521 48.449 91.3982C48.8121 91.7522 49.1479 92.079 49.5201 92.4421C49.039 92.9232 48.5489 93.4224 48.095 93.8944C48.9029 94.9746 49.7198 96.0821 50.5549 97.2076C51.0814 96.8627 51.6351 96.4905 52.207 96.1184C52.4793 96.5268 52.7244 96.899 52.9876 97.2893C52.3613 97.7069 51.7803 98.0972 51.2357 98.4603C51.7168 99.7493 52.1888 101.002 52.6699 102.273C53.3144 102.073 53.9861 101.864 54.6669 101.655C54.8121 102.118 54.9392 102.545 55.0845 102.999C54.3492 103.235 53.6503 103.453 52.9513 103.671C53.0602 104.578 53.1692 105.459 53.2872 106.385C53.9498 106.276 54.6124 106.203 55.2569 106.049C61.0028 104.66 65.0603 101.247 67.4295 95.837C67.9832 94.5752 68.31 93.25 68.5369 91.8975C68.5823 91.6433 68.5097 91.5525 68.2373 91.5434V91.5344Z" fill="white"/>
<path d="M68.3736 85.9226C67.1027 80.2312 63.8077 76.1555 58.5429 73.6956C56.2645 72.6336 53.8318 72.1888 51.3175 72.216C51.1178 72.216 51.0361 72.2796 51.0542 72.4883C51.0996 72.915 51.1087 73.3416 51.1631 73.7592C51.2176 74.1949 51.2993 74.6306 51.3719 75.1026C51.9892 74.912 52.552 74.7395 53.1511 74.5579C53.2963 75.0209 53.4325 75.4566 53.5686 75.9014C52.9332 76.1011 52.3341 76.2917 51.6442 76.5095C52.0799 77.6533 52.4975 78.7425 52.9332 79.8772C53.5232 79.4869 54.0225 79.151 54.5489 78.8061C54.8213 79.2146 55.0663 79.5867 55.3296 79.977C54.7668 80.3583 54.2222 80.7214 53.6685 81.0935C54.3311 82.1828 55.0573 83.1813 55.9741 84.1616C56.4098 83.6896 56.8183 83.2448 57.1541 82.8818C57.5354 83.2085 57.8803 83.499 58.2615 83.8258C57.7986 84.2796 57.3629 84.6881 56.8727 85.1783C57.8984 85.968 58.906 86.7396 59.9408 87.5293C60.3584 86.9302 60.7215 86.4037 61.1027 85.85C61.5021 86.1223 61.8743 86.3856 62.2555 86.6579C61.9015 87.1753 61.5656 87.6654 61.1844 88.2282C62.2192 88.6186 63.1995 88.9907 64.1799 89.372C64.4613 89.4809 64.5974 89.4355 64.6791 89.1178C64.8062 88.6367 64.9878 88.1647 65.1511 87.6655C65.6232 87.8198 66.0498 87.965 66.4855 88.1102C66.2949 88.6912 66.1224 89.2267 65.9318 89.7986C66.0498 89.8258 66.1496 89.8621 66.2495 89.8712C66.9666 89.962 67.6928 90.0437 68.4099 90.1435C68.664 90.1798 68.7094 90.08 68.7094 89.8531C68.7366 88.5278 68.6549 87.2116 68.3645 85.9226H68.3736Z" fill="white"/>
<path d="M49.6291 104.692C49.4838 104.23 49.3477 103.794 49.2115 103.349C49.9105 103.122 50.5822 102.913 51.3174 102.677C50.8908 101.515 50.4733 100.408 50.0466 99.2371C49.3931 99.6728 48.8212 100.054 48.2403 100.435C47.968 100.027 47.7229 99.6546 47.4596 99.2643C48.095 98.8377 48.7032 98.4292 49.3295 98.0116C48.6487 96.8588 47.8863 95.824 46.9241 94.7801C46.4339 95.3338 45.98 95.8513 45.5534 96.3233C45.1722 95.9602 44.8363 95.6516 44.5005 95.3339C44.9906 94.8346 45.4808 94.3444 45.9891 93.8361C45.0632 92.9647 44.0738 92.1931 42.9755 91.5396C42.5489 92.1659 42.1313 92.765 41.6865 93.4095C41.2962 93.1372 40.924 92.883 40.5246 92.6107C40.9331 92.0116 41.3234 91.4397 41.7682 90.7952C40.6063 90.3323 39.4898 89.8966 38.3461 89.4518C38.0919 90.2143 37.865 90.8951 37.629 91.594C37.1661 91.4397 36.7394 91.2945 36.2946 91.1493C36.5125 90.4775 36.7213 89.8421 36.9482 89.1432C36.1222 89.0343 35.3325 88.9253 34.4883 88.8164C34.4883 94.2264 36.3945 98.7106 40.3885 102.233C43.6381 105.092 47.4869 106.453 51.8802 106.453C51.7804 105.636 51.6896 104.883 51.5988 104.102C50.909 104.32 50.2917 104.511 49.6382 104.711L49.6291 104.692Z" fill="white"/>
<path d="M51.4992 69.6016C40.6065 69.6016 31.7744 78.4337 31.7744 89.3264C31.7744 100.219 40.6065 109.051 51.4992 109.051C62.3919 109.051 71.224 100.219 71.224 89.3264C71.224 78.4337 62.3919 69.6016 51.4992 69.6016ZM51.5809 107.98C41.2964 107.98 32.9454 99.6018 32.9454 89.281C32.9454 79.0056 41.3418 70.6727 51.6717 70.6818C61.9199 70.6818 70.2437 79.0873 70.2437 89.4081C70.2437 99.629 61.8472 107.98 51.5718 107.98H51.5809Z" fill="white"/>
<path d="M162.934 111.13L147.759 112.923L148.967 91.1483L160.232 88.5189L162.934 111.13Z" fill="#D3D3D3"/>
<path d="M147.284 113.421L148.545 90.7836L160.613 87.9729L163.428 111.504L147.283 113.412L147.284 113.421ZM149.396 91.501L148.225 112.432L162.44 110.745L159.849 89.0626L149.396 91.501Z" fill="white"/>
<path d="M199.468 74.805C202.944 74.805 205.762 71.9875 205.762 68.5119C205.762 65.0363 202.944 62.2188 199.468 62.2188C195.993 62.2188 193.175 65.0363 193.175 68.5119C193.175 71.9875 195.993 74.805 199.468 74.805Z" fill="#D3D3D3"/>
<path d="M199.486 75.251C199.247 75.251 199.016 75.2421 198.777 75.2155C196.986 75.0294 195.382 74.1608 194.247 72.7603C193.113 71.3599 192.59 69.6049 192.776 67.8233C193.157 64.1272 196.49 61.4327 200.168 61.8227C203.864 62.2038 206.55 65.5277 206.169 69.2149C205.983 71.0053 205.114 72.6096 203.714 73.7442C202.499 74.728 201.019 75.251 199.486 75.251ZM199.468 62.6647C196.517 62.6647 193.964 64.9072 193.654 67.9119C193.494 69.4631 193.946 70.9876 194.93 72.2019C195.914 73.4162 197.314 74.1696 198.865 74.338C200.417 74.4976 201.941 74.0455 203.155 73.0617C204.37 72.0778 205.123 70.6774 205.283 69.1263C205.619 65.9176 203.279 63.037 200.071 62.7002C199.867 62.6824 199.663 62.6647 199.459 62.6647H199.468Z" fill="white"/>
<path d="M229.126 123.229C241.922 123.229 252.296 112.856 252.296 100.06C252.296 87.2639 241.922 76.8906 229.126 76.8906C216.33 76.8906 205.957 87.2639 205.957 100.06C205.957 112.856 216.33 123.229 229.126 123.229Z" fill="#D3D3D3"/>
<path d="M229.126 123.676C227.557 123.676 225.962 123.517 224.366 123.189C218.188 121.921 212.879 118.314 209.405 113.049C205.93 107.784 204.725 101.482 205.992 95.3038C208.616 82.5492 221.122 74.3149 233.877 76.9297C246.632 79.5533 254.875 92.0598 252.251 104.814C249.955 115.965 240.099 123.676 229.126 123.676ZM229.117 77.3285C218.561 77.3285 209.068 84.7385 206.861 95.4811C205.638 101.429 206.808 107.491 210.14 112.561C213.473 117.631 218.596 121.097 224.544 122.32C236.82 124.846 248.856 116.913 251.382 104.637C253.909 92.3611 245.976 80.3244 233.7 77.7983C232.166 77.4792 230.624 77.3285 229.117 77.3285Z" fill="white"/>
<path d="M242.713 102.773C242.465 102.747 242.226 102.684 241.986 102.622C241.614 102.534 241.251 102.427 240.861 102.33C240.63 102.844 240.4 103.358 240.161 103.881C239.859 103.748 239.576 103.615 239.283 103.482C239.513 102.968 239.726 102.481 239.93 102.029C239.106 101.594 238.308 101.178 237.501 100.752C237.156 101.151 236.801 101.568 236.438 101.993C236.19 101.78 235.95 101.577 235.702 101.364C236.057 100.947 236.385 100.557 236.704 100.185C236.012 99.5291 235.33 98.882 234.612 98.1995C234.231 98.5363 233.823 98.8997 233.46 99.2188C233.22 98.9441 233.016 98.7047 232.804 98.4566C233.22 98.1197 233.637 97.7741 234.036 97.455C233.566 96.6661 233.096 95.8861 232.626 95.0973C232.192 95.3277 231.74 95.5582 231.27 95.8064C231.12 95.5139 230.969 95.2391 230.818 94.9555C231.315 94.6896 231.793 94.4414 232.236 94.2021C231.988 93.298 231.749 92.4293 231.51 91.5518C231.013 91.6493 230.508 91.7469 229.985 91.8532C229.923 91.5341 229.861 91.2328 229.79 90.9137C230.349 90.7984 230.88 90.6832 231.412 90.5769C231.394 90.1869 231.377 89.8323 231.368 89.4778C231.368 89.1144 231.368 88.7598 231.368 88.3964C229.32 88.3521 226.298 89.0789 223.772 91.3125C221.875 92.9966 220.643 95.0884 220.076 97.5791C220.306 97.6234 220.51 97.6588 220.705 97.712C220.909 97.7563 221.104 97.8095 221.308 97.8627C221.52 97.9159 221.777 98.0666 221.928 97.9957C222.079 97.9248 222.132 97.6234 222.221 97.4284C222.336 97.1802 222.451 96.932 222.566 96.675C222.868 96.8079 223.151 96.9409 223.444 97.065C223.249 97.5082 223.063 97.9336 222.885 98.3325C223.71 98.7668 224.525 99.2011 225.358 99.6354C225.651 99.2897 225.961 98.9263 226.289 98.5541C226.537 98.7668 226.777 98.9707 227.025 99.1834C226.723 99.5379 226.431 99.8836 226.156 100.203C226.839 100.859 227.503 101.488 228.212 102.162C228.558 101.869 228.922 101.55 229.241 101.266C229.462 101.532 229.666 101.78 229.897 102.055C229.533 102.348 229.17 102.658 228.824 102.942C229.294 103.739 229.772 104.546 230.269 105.37C230.65 105.175 231.058 104.962 231.474 104.741C231.634 105.042 231.776 105.308 231.926 105.592C231.474 105.831 231.04 106.061 230.65 106.265C230.889 107.178 231.12 108.065 231.359 108.969C231.811 108.88 232.281 108.783 232.759 108.694C232.821 109.022 232.884 109.323 232.946 109.642C232.431 109.749 231.935 109.846 231.448 109.953C231.457 110.573 231.474 111.185 231.483 111.823C231.944 111.796 232.396 111.796 232.848 111.734C236.863 111.194 239.868 109.164 241.862 105.636C242.323 104.821 242.651 103.934 242.89 103.03C242.935 102.862 242.89 102.791 242.713 102.773Z" fill="white"/>
<path d="M243.201 98.9593C242.74 94.9973 240.79 91.9837 237.368 89.9362C235.888 89.0499 234.266 88.5801 232.547 88.4117C232.414 88.4028 232.352 88.4294 232.352 88.5801C232.352 88.8726 232.334 89.1651 232.334 89.4576C232.334 89.7589 232.361 90.0603 232.378 90.3883C232.813 90.3085 233.211 90.2287 233.628 90.1489C233.69 90.4769 233.752 90.7783 233.814 91.0885C233.371 91.1771 232.946 91.2657 232.458 91.3632C232.671 92.1698 232.884 92.9498 233.096 93.7475C233.522 93.526 233.894 93.331 234.275 93.136C234.426 93.4285 234.576 93.7032 234.727 93.9869C234.319 94.2084 233.921 94.4123 233.513 94.6339C233.885 95.4228 234.311 96.1496 234.869 96.8852C235.197 96.5927 235.507 96.318 235.764 96.0964C236.003 96.3446 236.216 96.5662 236.456 96.8143C236.11 97.0891 235.782 97.3373 235.41 97.6298C236.057 98.2414 236.686 98.8352 237.333 99.4468C237.661 99.0657 237.945 98.7377 238.246 98.3832C238.494 98.5959 238.733 98.8086 238.973 99.0125C238.689 99.3404 238.432 99.6507 238.131 100.005C238.804 100.342 239.451 100.67 240.09 100.998C240.276 101.095 240.373 101.078 240.453 100.865C240.568 100.546 240.728 100.236 240.878 99.9077C241.189 100.05 241.463 100.174 241.756 100.307C241.588 100.688 241.428 101.042 241.26 101.415C241.339 101.441 241.401 101.477 241.472 101.485C241.96 101.601 242.438 101.707 242.926 101.831C243.094 101.875 243.13 101.805 243.156 101.654C243.272 100.759 243.307 99.8545 243.201 98.9504V98.9593Z" fill="white"/>
<path d="M229.108 110.425C229.046 110.097 228.984 109.796 228.922 109.477C229.418 109.379 229.888 109.282 230.402 109.175C230.189 108.36 229.985 107.571 229.773 106.747C229.294 106.995 228.877 107.216 228.452 107.438C228.292 107.146 228.151 106.871 228 106.587C228.461 106.339 228.904 106.109 229.356 105.869C228.975 105.036 228.532 104.274 227.947 103.503C227.574 103.839 227.229 104.159 226.91 104.451C226.67 104.176 226.475 103.946 226.263 103.707C226.635 103.405 226.998 103.104 227.379 102.794C226.812 102.138 226.192 101.544 225.491 101.012C225.155 101.411 224.827 101.783 224.481 102.191C224.233 101.978 223.994 101.774 223.745 101.562C224.064 101.18 224.375 100.817 224.72 100.409C223.958 100.01 223.231 99.6381 222.487 99.2481C222.256 99.7534 222.052 100.197 221.849 100.657C221.547 100.524 221.264 100.392 220.971 100.259C221.166 99.8154 221.352 99.3988 221.556 98.9379C221.007 98.805 220.475 98.6809 219.907 98.5391C219.517 102.226 220.501 105.408 222.974 108.094C224.986 110.274 227.503 111.471 230.499 111.781C230.491 111.214 230.482 110.7 230.473 110.159C229.985 110.257 229.551 110.345 229.099 110.434L229.108 110.425Z" fill="white"/>
<path d="M227.45 37.6666C227.574 37.0107 228.168 36.7182 228.824 36.6207C231.474 36.1953 240.001 37.6843 239.983 39.138C239.939 42.5238 235.126 58.7885 235.126 58.7885L240.71 60.3928L244.344 46.539C244.503 45.9275 245.088 45.7059 245.718 45.5818C248.882 44.9879 256.966 46.8581 256.708 48.099C253.58 63.3089 242.163 84.9626 242.163 84.9626L233.991 82.3124L238.228 68.5738L233.185 65.8705L230.277 75.2658L221.042 72.3852L227.441 37.64L227.45 37.6666Z" fill="#D3D3D3"/>
<path d="M242.385 85.5095L233.442 82.6112L237.705 68.8017L233.46 66.5327L230.579 75.8394L220.545 72.7106L227.016 37.5754C227.158 36.8309 227.769 36.3257 228.753 36.1661C231.066 35.785 238.335 36.8841 239.992 38.3111C240.285 38.5593 240.426 38.834 240.426 39.1265C240.382 42.2642 236.456 55.8166 235.676 58.4757L240.391 59.8318L243.91 46.4212C244.149 45.526 245 45.2601 245.629 45.1449C248.475 44.6042 255.503 46.0135 256.851 47.3874C257.161 47.6976 257.179 47.999 257.143 48.1851C254.041 63.2797 242.678 84.9511 242.562 85.1727L242.385 85.5007V85.5095ZM234.55 82.0439L241.951 84.4371C243.387 81.6539 253.411 61.9768 256.274 48.0167C255.893 47.2101 248.794 45.464 245.798 46.0224C245 46.1731 244.832 46.4212 244.77 46.6517L241.02 60.9398L234.576 59.0873L234.701 58.6618C234.745 58.5023 239.496 42.4149 239.54 39.1265C239.265 38.2136 231.802 36.5827 228.895 37.0525C228.292 37.15 227.946 37.3804 227.884 37.7438L221.556 72.1078L229.994 74.7403L232.928 65.2474L238.769 68.3763L234.55 82.0439Z" fill="white"/>
<path d="M244.159 71.135L247.704 62.041L232.158 57.2812L228.612 63.6985L244.159 71.135Z" fill="#D3D3D3"/>
<path d="M244.398 71.7383L227.992 63.894L231.936 56.75L248.289 61.7579L244.398 71.7383ZM229.233 63.504L243.928 70.5328L247.128 62.334L232.379 57.8136L229.241 63.504H229.233Z" fill="white"/>
<path d="M92.3365 145.44L90.0302 138.713L93.0751 137.665C94.2968 137.249 95.3325 137.552 95.7171 138.678C95.9977 139.498 95.7958 140.076 95.1961 140.505L95.2164 140.557C96.0742 140.497 96.6802 140.901 96.9603 141.713C97.4069 143.013 96.7247 143.925 95.3287 144.403L92.3449 145.431L92.3365 145.44ZM91.8397 139.404L92.3486 140.887L93.7969 140.389C94.294 140.213 94.5242 139.846 94.3578 139.358C94.1914 138.869 93.785 138.73 93.288 138.905L91.8397 139.404ZM93.3453 143.784L94.8374 143.274C95.3783 143.087 95.6736 142.602 95.4965 142.079C95.3195 141.555 94.7848 141.333 94.2439 141.52L92.7518 142.029L93.3537 143.774L93.3453 143.784Z" fill="white"/>
<path d="M100.942 138.638C100.838 138.342 100.491 138.146 99.9243 138.343C99.3307 138.541 99.0735 138.9 99.2125 139.373L97.7815 139.861C97.4172 138.788 98.1883 137.702 99.5149 137.254C100.92 136.776 101.951 137.168 102.46 138.66L103.169 140.772C103.264 141.061 103.385 141.356 103.524 141.642L102.276 142.068C102.171 141.932 102.072 141.715 101.993 141.559L101.958 141.561C101.848 142.028 101.256 142.608 100.557 142.847C99.6151 143.169 98.6263 142.916 98.3439 142.061C98.0421 141.171 98.4011 140.363 99.3692 139.844C100.034 139.483 100.621 139.143 101.024 138.856L100.96 138.655L100.942 138.638ZM100.444 141.636C101.055 141.428 101.692 140.864 101.514 140.323L101.369 139.904C100.957 140.182 100.482 140.445 100.043 140.725C99.7502 140.899 99.6112 141.137 99.7347 141.477C99.829 141.765 100.113 141.759 100.444 141.645L100.444 141.636Z" fill="white"/>
<path d="M105.763 139.205C105.899 139.624 106.297 139.764 106.917 139.564C107.458 139.386 107.663 139.057 107.569 138.76C107.475 138.489 107.153 138.425 106.692 138.439C106.417 138.444 105.841 138.464 105.495 138.455C104.562 138.439 104.036 138.217 103.786 137.475C103.504 136.62 103.984 135.744 105.345 135.285C106.733 134.825 107.707 135.123 108.04 136.109L106.687 136.558C106.565 136.263 106.203 136.121 105.697 136.297C105.174 136.474 105.034 136.703 105.138 137.008C105.222 137.253 105.542 137.272 105.914 137.254C106.312 137.234 106.756 137.229 107.164 137.236C108.124 137.259 108.67 137.533 108.922 138.31C109.214 139.192 108.805 140.056 107.216 140.579C105.68 141.09 104.742 140.622 104.418 139.636L105.771 139.187L105.763 139.205Z" fill="white"/>
<path d="M111.198 136.803C111.525 137.487 111.958 137.794 112.578 137.595C113.189 137.395 113.458 137.107 113.365 136.659L114.719 136.219C114.918 137.362 114.253 138.274 113.031 138.681C111.372 139.226 110.173 138.318 109.682 136.825C109.2 135.349 109.65 133.88 111.283 133.346C112.916 132.812 114.063 133.758 114.545 135.233C114.588 135.373 114.631 135.522 114.665 135.68L111.207 136.811L111.198 136.803ZM112.967 135.09C112.672 134.51 112.233 134.239 111.604 134.448C110.993 134.647 110.794 135.11 110.889 135.771L112.967 135.09Z" fill="white"/>
<path d="M116.761 137.291L114.522 130.321L115.876 129.881L116.717 132.51L116.752 132.508C116.834 132.016 117.151 131.432 117.928 131.18C119.265 130.75 120.574 131.563 121.079 133.135C121.583 134.707 120.987 136.095 119.642 136.526C118.917 136.757 118.35 136.599 117.907 136.249L117.871 136.251L118.071 136.871L116.761 137.291ZM119.041 135.5C119.748 135.269 120.04 134.545 119.724 133.549C119.408 132.553 118.74 132.143 118.032 132.364C117.307 132.596 116.989 133.331 117.305 134.326C117.621 135.322 118.316 135.731 119.041 135.5Z" fill="white"/>
<path d="M125.322 130.679C125.228 130.382 124.88 130.178 124.312 130.357C123.709 130.547 123.452 130.906 123.582 131.378L122.141 131.832C121.794 130.749 122.592 129.68 123.92 129.258C125.335 128.806 126.359 129.225 126.833 130.719L127.507 132.842C127.601 133.13 127.714 133.426 127.843 133.713L126.585 134.113C126.481 133.967 126.39 133.759 126.32 133.593L126.285 133.595C126.166 134.063 125.564 134.625 124.856 134.847C123.904 135.152 122.923 134.872 122.659 134.025C122.374 133.125 122.751 132.325 123.729 131.824C124.404 131.479 125 131.148 125.403 130.87L125.34 130.669L125.322 130.679ZM124.762 133.671C125.382 133.472 126.029 132.925 125.851 132.374L125.714 131.955C125.293 132.225 124.818 132.479 124.379 132.75C124.086 132.924 123.946 133.153 124.052 133.494C124.146 133.782 124.421 133.786 124.762 133.68L124.762 133.671Z" fill="white"/>
<path d="M129.118 132.216L127.258 126.256L128.612 125.834L130.43 131.654C130.471 131.776 130.563 131.842 130.677 131.81C130.799 131.768 130.973 131.697 131.093 131.611L131.42 132.651C131.171 132.823 130.903 132.961 130.588 133.057C129.802 133.3 129.371 133.029 129.118 132.216Z" fill="white"/>
<path d="M132.15 131.277L130.308 125.307L131.671 124.884L133.471 130.714C133.513 130.836 133.605 130.902 133.718 130.87C133.841 130.828 134.014 130.757 134.134 130.672L134.453 131.712C134.204 131.884 133.935 132.013 133.621 132.117C132.834 132.361 132.404 132.089 132.15 131.277Z" fill="white"/>
<path d="M134.402 128.375L134.041 127.195L137.704 126.08L138.065 127.26L134.402 128.375Z" fill="white"/>
<path d="M140.163 123.795L138.799 124.201L138.393 122.836L139.757 122.431L140.163 123.795ZM140.491 129.831L138.98 124.804L140.344 124.398L141.855 129.426L140.491 129.831Z" fill="white"/>
<path d="M143.378 123.499L143.586 124.279L143.621 124.277C143.735 123.703 144.139 123.089 145.049 122.821C146.186 122.489 147.034 122.944 147.472 124.44L148.371 127.501L147.006 127.906L146.151 124.994C145.926 124.224 145.467 123.919 144.759 124.123C144.033 124.336 143.847 125.056 144.091 125.869L144.873 128.536L143.508 128.942L142.032 123.913L143.37 123.517L143.378 123.499Z" fill="white"/>
<path d="M153.526 120.559L154.838 125.144C155.258 126.623 154.559 127.741 153.02 128.181C151.585 128.59 150.494 128.077 150.225 127.132L151.59 126.744C151.686 127.068 152.102 127.233 152.785 127.031C153.441 126.847 153.689 126.302 153.473 125.532L153.311 124.963L153.258 124.966C153.194 125.466 152.687 125.971 151.943 126.176C150.596 126.563 149.441 125.831 149.021 124.352C148.602 122.891 149.203 121.61 150.524 121.224C151.329 120.989 152.023 121.203 152.346 121.63L152.399 121.627L152.205 120.927L153.526 120.551L153.526 120.559ZM151.188 122.247C150.479 122.451 150.119 123.055 150.376 123.947C150.634 124.84 151.254 125.164 151.962 124.96C152.689 124.755 153.075 124.141 152.817 123.248C152.559 122.347 151.914 122.033 151.188 122.247Z" fill="white"/>
<path d="M160.623 124.05L159.07 118.368L157.117 118.9L156.792 117.71L162.141 116.253L162.467 117.444L160.515 117.976L162.068 123.658L160.623 124.05Z" fill="white"/>
<path d="M167.291 118.089C167.059 118.065 166.883 118.083 166.612 118.158C165.814 118.367 165.271 119.219 165.479 120.007L166.148 122.565L164.773 122.927L163.437 117.855L164.768 117.505L164.998 118.363L165.033 118.361C165.299 117.647 165.845 117.034 166.932 116.749L167.292 118.106L167.291 118.089Z" fill="white"/>
<path d="M171.744 117.335C171.667 117.028 171.336 116.805 170.749 116.959C170.136 117.114 169.851 117.447 169.955 117.93L168.482 118.306C168.205 117.201 169.06 116.182 170.419 115.848C171.865 115.483 172.856 115.957 173.242 117.482L173.785 119.638C173.862 119.936 173.957 120.233 174.069 120.529L172.79 120.85C172.694 120.704 172.612 120.487 172.55 120.321L172.515 120.323C172.369 120.774 171.73 121.312 171.02 121.489C170.056 121.732 169.09 121.399 168.869 120.532C168.637 119.62 169.06 118.845 170.067 118.404C170.762 118.094 171.377 117.806 171.799 117.545L171.744 117.335ZM171.004 120.283C171.635 120.127 172.31 119.605 172.167 119.053L172.057 118.624C171.626 118.867 171.131 119.096 170.673 119.332C170.37 119.489 170.212 119.701 170.3 120.052C170.377 120.35 170.653 120.363 170.995 120.274L171.004 120.283Z" fill="white"/>
<path d="M173.811 115.181L175.249 114.834L177.193 118.047L177.246 118.044L177.529 114.294L178.985 113.946L178.331 119.499L176.91 119.836L173.811 115.181Z" fill="white"/>
<path d="M181.888 116.436C182.145 117.151 182.553 117.495 183.185 117.356C183.817 117.218 184.105 116.947 184.065 116.496L185.452 116.187C185.546 117.354 184.798 118.19 183.534 118.475C181.831 118.853 180.724 117.834 180.382 116.307C180.04 114.798 180.635 113.375 182.311 112.998C183.987 112.622 185.034 113.679 185.375 115.188C185.409 115.328 185.435 115.487 185.452 115.646L181.897 116.445L181.888 116.436ZM183.809 114.911C183.565 114.302 183.159 113.994 182.51 114.142C181.878 114.28 181.634 114.727 181.676 115.391L183.809 114.911Z" fill="white"/>
<path d="M187.132 116.424L185.859 110.311L187.256 110.02L188.503 115.983C188.527 116.106 188.62 116.181 188.734 116.158C188.857 116.134 189.04 116.072 189.161 116.003L189.383 117.066C189.124 117.212 188.845 117.324 188.52 117.384C187.712 117.549 187.315 117.241 187.14 116.406L187.132 116.424Z" fill="white"/>
<path d="M128.312 44.8142C150.258 38.4768 169.908 43.7417 174.198 55.4328C176.724 62.3109 173.613 71.2276 171.77 78.5578C171.566 79.3644 157.029 80.3394 157.349 78.4514C157.96 74.7997 165.858 61.0611 163.154 56.9219C158.909 50.4249 128.693 59.1289 128.693 59.1289C128.382 54.9985 128.675 49.1042 128.312 44.8142Z" fill="#D3D3D3"/>
<path d="M162.924 79.9387C161.009 79.9387 159.325 79.85 158.492 79.6728C158.058 79.5841 156.746 79.3093 156.905 78.3787C157.109 77.1821 157.996 75.0903 159.121 72.449C161.39 67.1131 164.501 59.8007 162.773 57.1682C159.44 52.0628 137.122 57.1682 128.808 59.5613L128.285 59.712L128.241 59.1713C128.09 57.177 128.081 54.8282 128.072 52.3464C128.063 49.7494 128.046 47.0726 127.868 44.8567L127.842 44.4933L128.187 44.3958C149.699 38.1824 170.094 42.9688 174.615 55.2891C176.831 61.334 174.81 68.8681 173.028 75.5157C172.736 76.5882 172.452 77.643 172.195 78.6712C171.973 79.5398 166.948 79.9475 162.924 79.9475V79.9387ZM154.955 54.0925C159.015 54.0925 162.268 54.775 163.518 56.6807C165.503 59.712 162.419 66.9713 159.937 72.7946C158.882 75.2764 157.969 77.4303 157.783 78.5205C158.501 79.5575 169.917 79.0257 171.371 78.3166C171.619 77.3328 171.894 76.3135 172.168 75.2764C173.915 68.7528 175.9 61.3606 173.782 55.5816C169.447 43.7665 149.717 39.2017 128.781 45.1403C128.941 47.3119 128.95 49.8646 128.967 52.3375C128.976 54.58 128.985 56.7073 129.1 58.5509C132.025 57.7354 145.613 54.0837 154.964 54.0837L154.955 54.0925Z" fill="white"/>
<defs>
<clipPath id="clip0_2379_1150">
<rect width="276.09" height="162.5" fill="white"/>
</clipPath>
</defs>
</svg>
