<svg width="52" height="37" viewBox="0 0 52 37" fill="none" xmlns="http://www.w3.org/2000/svg">
<path d="M42.2857 0C41.6057 0 41.0714 0.534286 41.0714 1.21429C41.0714 1.89429 41.6057 2.42857 42.2857 2.42857C42.9657 2.42857 43.5 1.89429 43.5 1.21429C43.5 0.534286 42.9657 0 42.2857 0ZM36.2143 2.42857C35.5343 2.42857 35 2.96286 35 3.64286C35 4.32286 35.5343 4.85714 36.2143 4.85714C36.8943 4.85714 37.4286 4.32286 37.4286 3.64286C37.4286 2.96286 36.8943 2.42857 36.2143 2.42857ZM48.3571 2.42857C47.6771 2.42857 47.1429 2.96286 47.1429 3.64286C47.1429 4.32286 47.6771 4.85714 48.3571 4.85714C49.0371 4.85714 49.5714 4.32286 49.5714 3.64286C49.5714 2.96286 49.0371 2.42857 48.3571 2.42857ZM42.2857 4.85714C39.6143 4.85714 37.4286 7.04286 37.4286 9.71429C37.4286 12.3857 39.6143 14.5714 42.2857 14.5714C44.9571 14.5714 47.1429 12.3857 47.1429 9.71429C47.1429 7.04286 44.9571 4.85714 42.2857 4.85714ZM50.7857 8.5C50.1057 8.5 49.5714 9.03429 49.5714 9.71429C49.5714 10.3943 50.1057 10.9286 50.7857 10.9286C51.4657 10.9286 52 10.3943 52 9.71429C52 9.03429 51.4657 8.5 50.7857 8.5ZM48.3571 14.5714C47.6771 14.5714 47.1429 15.1057 47.1429 15.7857C47.1429 16.4657 47.6771 17 48.3571 17C49.0371 17 49.5714 16.4657 49.5714 15.7857C49.5714 15.1057 49.0371 14.5714 48.3571 14.5714Z" fill="white"/>
<path d="M35.2829 14.2934C36.1468 15.289 36.6423 16.5461 36.6946 17.855C38.6392 18.3341 40.3802 19.4321 41.6517 20.9889C43.0096 22.6516 43.7478 24.7343 43.74 26.881C43.74 26.8813 43.74 26.8816 43.74 26.8819L43.24 26.88L35.2829 14.2934ZM35.2829 14.2934C34.4051 13.2819 33.2062 12.6089 31.8933 12.3831M35.2829 14.2934L31.8933 12.3831M31.8933 12.3831C31.2431 9.89359 29.8014 7.67881 27.781 6.07555C25.6705 4.40076 23.0536 3.49265 20.3593 3.50004C13.7756 3.50043 8.42 8.8563 8.42 15.44C8.42 15.6501 8.42647 15.8619 8.43933 16.0767L31.8933 12.3831ZM11.0352 18.5344L11.5808 18.4904L11.4878 17.951L11.3241 17.0024L11.3241 17.0024L11.3236 16.9995C11.2316 16.4841 11.1835 15.9619 11.18 15.4383C11.1809 10.3781 15.2995 6.26005 20.36 6.26005C24.8613 6.26005 28.6629 9.48177 29.4025 13.9223C29.4025 13.9223 29.4025 13.9223 29.4025 13.9223L29.5301 14.6888L29.6026 15.1243L30.0437 15.1063L30.8087 15.075C30.8631 15.0749 30.9174 15.07 30.9709 15.0605C32.6127 15.0877 33.94 16.4319 33.94 18.08C33.94 18.2829 33.9176 18.4947 33.8712 18.7091L33.871 18.71L33.6642 19.6745L33.5467 20.2224L34.1045 20.277L35.0857 20.3729L35.087 20.373C36.7037 20.5267 38.2046 21.2793 39.2949 22.4828C40.3852 23.6864 40.9863 25.2541 40.98 26.8781V26.88C40.98 30.4856 38.0455 33.42 34.44 33.42H10.68C6.58874 33.42 3.26 30.0905 3.26 26C3.26 22.1676 6.25528 18.92 10.0752 18.6119L11.0352 18.5344Z" fill="white" stroke="white"/>
</svg>
