<svg width="21" height="20" viewBox="0 0 21 20" fill="none" xmlns="http://www.w3.org/2000/svg">
<path d="M0.742501 15.0068L0.706055 19.1253C0.706055 19.344 0.778948 19.5991 0.96118 19.7449C1.14341 19.8907 1.36209 20 1.58077 20L5.69922 19.9636C5.9179 19.9636 6.13658 19.8542 6.31881 19.7084L20.46 5.5672C20.7881 5.23918 20.7881 4.65604 20.46 4.32802L16.378 0.246014C16.05 -0.0820045 15.4669 -0.0820045 15.1389 0.246014L12.296 3.08884L0.997627 14.3872C0.815395 14.5695 0.742501 14.7882 0.742501 15.0068ZM18.6013 4.94761L16.9976 6.55125L14.1548 3.70843L15.7584 2.10478L18.6013 4.94761ZM2.49193 15.3713L12.9156 4.94761L15.7584 7.79043L5.33476 18.2141H2.49193V15.3713Z" fill="white"/>
</svg>
