<svg width="24" height="24" viewBox="0 0 24 24" fill="none" xmlns="http://www.w3.org/2000/svg">
<path d="M23.3684 5.64706H17.6526C17.3368 2.47059 14.9368 0 12 0C9.06316 0 6.66316 2.47059 6.34737 5.64706H0.631579C0.284211 5.64706 0 5.96471 0 6.35294V23.2941C0 23.6824 0.284211 24 0.631579 24H23.3684C23.7158 24 24 23.6824 24 23.2941V6.35294C24 5.96471 23.7158 5.64706 23.3684 5.64706ZM17.0526 10.5882C17.4 10.5882 17.6842 10.9059 17.6842 11.2941C17.6842 11.6824 17.4 12 17.0526 12C16.7053 12 16.4211 11.6824 16.4211 11.2941C16.4211 10.9059 16.7053 10.5882 17.0526 10.5882ZM12 1.41176C14.2105 1.41176 16.0737 3.24706 16.3579 5.64706H7.64211C7.92632 3.24706 9.78947 1.41176 12 1.41176ZM6.94737 10.5882C7.29474 10.5882 7.57895 10.9059 7.57895 11.2941C7.57895 11.6824 7.29474 12 6.94737 12C6.6 12 6.31579 11.6824 6.31579 11.2941C6.31579 10.9059 6.6 10.5882 6.94737 10.5882ZM22.7368 22.5882H1.26316V7.05882H6.31579V9.28235C5.58947 9.56471 5.05263 10.3412 5.05263 11.2941C5.05263 12.4588 5.90526 13.4118 6.94737 13.4118C7.98947 13.4118 8.8421 12.4588 8.8421 11.2941C8.8421 10.3765 8.30526 9.6 7.57895 9.28235V7.05882H16.4211V9.28235C15.6947 9.56471 15.1579 10.3412 15.1579 11.2941C15.1579 12.4588 16.0105 13.4118 17.0526 13.4118C18.0947 13.4118 18.9474 12.4588 18.9474 11.2941C18.9474 10.3765 18.4105 9.6 17.6842 9.28235V7.05882H22.7368V22.5882Z" fill="black"/>
</svg>
