<svg width="45" height="47" viewBox="0 0 45 47" fill="none" xmlns="http://www.w3.org/2000/svg">
<path d="M16.0663 43.2357V36.3355C16.0663 34.5804 17.5055 33.1544 19.2886 33.1426H25.8203C27.6119 33.1426 29.0643 34.5721 29.0643 36.3355V43.2571C29.0639 44.7472 30.2723 45.9651 31.7858 46H36.1403C40.4811 46 44 42.5365 44 38.2641V18.6351C43.9768 16.9544 43.175 15.376 41.8228 14.3493L26.9306 2.54193C24.3217 0.486024 20.613 0.486024 18.0041 2.54193L3.17722 14.3708C1.81985 15.3933 1.01672 16.9742 1 18.6566V38.2641C1 42.5365 4.51893 46 8.85975 46H13.2142C14.7653 46 16.0228 44.7624 16.0228 43.2357" stroke="white" stroke-width="2" stroke-linecap="round" stroke-linejoin="round"/>
</svg>
