<svg width="48" height="52" viewBox="0 0 48 52" fill="none" xmlns="http://www.w3.org/2000/svg">
<g filter="url(#filter0_d_1832_2548)">
<path d="M15.9999 25.461C15.4695 25.461 14.9608 25.6673 14.5857 26.0345C14.2106 26.4018 13.9999 26.8999 13.9999 27.4193V37.2109C13.9999 37.7303 14.2106 38.2284 14.5857 38.5957C14.9608 38.963 15.4695 39.1693 15.9999 39.1693C16.5303 39.1693 17.0391 38.963 17.4141 38.5957C17.7892 38.2284 17.9999 37.7303 17.9999 37.2109V27.4193C17.9999 26.8999 17.7892 26.4018 17.4141 26.0345C17.0391 25.6673 16.5303 25.461 15.9999 25.461ZM23.9999 21.5443C23.4695 21.5443 22.9608 21.7506 22.5857 22.1179C22.2106 22.4851 21.9999 22.9832 21.9999 23.5026V41.1276C21.9999 41.647 22.2106 42.1451 22.5857 42.5124C22.9608 42.8796 23.4695 43.0859 23.9999 43.0859C24.5303 43.0859 25.0391 42.8796 25.4141 42.5124C25.7892 42.1451 25.9999 41.647 25.9999 41.1276V23.5026C25.9999 22.9832 25.7892 22.4851 25.4141 22.1179C25.0391 21.7506 24.5303 21.5443 23.9999 21.5443ZM36.8399 12.1835C35.6179 9.43396 33.5089 7.15265 30.8361 5.68909C28.1632 4.22553 25.074 3.66046 22.0418 4.08048C19.0097 4.5005 16.2018 5.88243 14.0484 8.01451C11.8951 10.1466 10.5151 12.9112 10.1199 15.8847C8.37475 16.2978 6.82224 17.2738 5.71218 18.6556C4.60211 20.0373 3.99901 21.7446 3.99992 23.5026C3.99635 24.6119 4.23341 25.7092 4.69542 26.722C5.15743 27.7348 5.83385 28.64 6.67992 29.3776C6.87463 29.5607 7.10519 29.7034 7.35771 29.7969C7.61023 29.8904 7.87948 29.933 8.14922 29.9219C8.41897 29.9108 8.68363 29.8463 8.92726 29.7324C9.17088 29.6185 9.38843 29.4574 9.56679 29.259C9.74515 29.0605 9.88062 28.8288 9.96505 28.5777C10.0495 28.3266 10.0811 28.0613 10.058 27.7979C10.035 27.5345 9.95769 27.2785 9.83083 27.0451C9.70398 26.8117 9.53018 26.6059 9.31992 26.4401C8.90052 26.0695 8.56606 25.6161 8.33854 25.1098C8.11102 24.6035 7.99562 24.0558 7.99992 23.5026C7.99992 22.4639 8.42134 21.4676 9.17149 20.7331C9.92164 19.9986 10.9391 19.586 11.9999 19.586C12.5303 19.586 13.0391 19.3796 13.4141 19.0124C13.7892 18.6451 13.9999 18.147 13.9999 17.6276C14.005 15.3115 14.8485 13.0721 16.3805 11.3073C17.9124 9.54247 20.0337 8.36657 22.3674 7.98846C24.7011 7.61035 27.0962 8.05452 29.1271 9.24205C31.1579 10.4296 32.6931 12.2836 33.4599 14.4747C33.5742 14.8112 33.7797 15.111 34.0545 15.3421C34.3292 15.5732 34.6629 15.7269 35.0199 15.7868C36.4082 16.0213 37.668 16.7267 38.5785 17.7793C39.4891 18.832 39.9922 20.1648 39.9999 21.5443C40.0305 22.9862 39.5016 24.3858 38.5199 25.461C38.2006 25.8503 38.0452 26.3443 38.0856 26.8421C38.1259 27.3399 38.359 27.8037 38.737 28.1389C39.115 28.474 39.6095 28.6551 40.1193 28.6451C40.6292 28.6351 41.1159 28.4348 41.4799 28.0851C42.5815 26.8525 43.3497 25.3689 43.7142 23.7703C44.0786 22.1716 44.0277 20.509 43.5661 18.9347C43.1044 17.3603 42.2467 15.9245 41.0717 14.7587C39.8966 13.5929 38.4416 12.7344 36.8399 12.2618V12.1835ZM31.9999 25.461C31.4695 25.461 30.9608 25.6673 30.5857 26.0345C30.2106 26.4018 29.9999 26.8999 29.9999 27.4193V37.2109C29.9999 37.7303 30.2106 38.2284 30.5857 38.5957C30.9608 38.963 31.4695 39.1693 31.9999 39.1693C32.5303 39.1693 33.0391 38.963 33.4141 38.5957C33.7892 38.2284 33.9999 37.7303 33.9999 37.2109V27.4193C33.9999 26.8999 33.7892 26.4018 33.4141 26.0345C33.0391 25.6673 32.5303 25.461 31.9999 25.461Z" fill="white"/>
</g>
<defs>
<filter id="filter0_d_1832_2548" x="-4" y="0" width="56" height="55" filterUnits="userSpaceOnUse" color-interpolation-filters="sRGB">
<feFlood flood-opacity="0" result="BackgroundImageFix"/>
<feColorMatrix in="SourceAlpha" type="matrix" values="0 0 0 0 0 0 0 0 0 0 0 0 0 0 0 0 0 0 127 0" result="hardAlpha"/>
<feOffset dy="4"/>
<feGaussianBlur stdDeviation="2"/>
<feComposite in2="hardAlpha" operator="out"/>
<feColorMatrix type="matrix" values="0 0 0 0 0 0 0 0 0 0 0 0 0 0 0 0 0 0 0.25 0"/>
<feBlend mode="normal" in2="BackgroundImageFix" result="effect1_dropShadow_1832_2548"/>
<feBlend mode="normal" in="SourceGraphic" in2="effect1_dropShadow_1832_2548" result="shape"/>
</filter>
</defs>
</svg>
