<svg width="40" height="50" viewBox="0 0 40 50" fill="none" xmlns="http://www.w3.org/2000/svg">
<path d="M35.2783 16.5654L35.5 16.4169V16.15V2.5C35.5 1.96957 35.7107 1.46086 36.0858 1.08579C36.4609 0.710714 36.9696 0.5 37.5 0.5C38.0304 0.5 38.5391 0.710714 38.9142 1.08579C39.2893 1.46086 39.5 1.96957 39.5 2.5V17.4988C39.4981 17.8277 39.415 18.1511 39.2582 18.4403C39.1012 18.7299 38.8751 18.9762 38.6 19.1574L38.5965 19.1597L32.2215 23.4347L32 23.5833V23.85V47.5C32 48.0304 31.7893 48.5391 31.4142 48.9142C31.0391 49.2893 30.5304 49.5 30 49.5C29.4696 49.5 28.9609 49.2893 28.5858 48.9142C28.2107 48.5391 28 48.0304 28 47.5V23.85V23.5833L27.7785 23.4347L21.4035 19.1597L21.4035 19.1597L21.4 19.1574C21.1249 18.9762 20.8988 18.7299 20.7418 18.4403C20.585 18.1511 20.5019 17.8277 20.5 17.4988V2.5C20.5 1.96957 20.7107 1.46086 21.0858 1.08579C21.4609 0.710713 21.9696 0.5 22.5 0.5C23.0304 0.5 23.5391 0.710713 23.9142 1.08579C24.2893 1.46086 24.5 1.96957 24.5 2.5V16.15V16.4169L24.7217 16.5654L27.2217 18.2404L28 18.7619V17.825V2.5C28 1.96957 28.2107 1.46086 28.5858 1.08579C28.9609 0.710713 29.4696 0.5 30 0.5C30.5304 0.5 31.0391 0.710714 31.4142 1.08579C31.7893 1.46086 32 1.96957 32 2.5V17.825V18.7619L32.7783 18.2404L35.2783 16.5654ZM10.5 30V29.5H10H2.5C1.96957 29.5 1.46086 29.2893 1.08579 28.9142C0.710714 28.5391 0.5 28.0304 0.5 27.5V12.5C0.5 9.3174 1.76428 6.26516 4.01472 4.01472C6.26516 1.76428 9.3174 0.5 12.5 0.5C13.0304 0.5 13.5391 0.710714 13.9142 1.08579C14.2893 1.46086 14.5 1.96957 14.5 2.5V47.5C14.5 48.0304 14.2893 48.5391 13.9142 48.9142C13.5391 49.2893 13.0304 49.5 12.5 49.5C11.9696 49.5 11.4609 49.2893 11.0858 48.9142C10.7107 48.5391 10.5 48.0304 10.5 47.5V30ZM10 25.5H10.5L5 12.5H4.5V12.5003V25V25.5H5H10Z" stroke="white"/>
</svg>
