<svg width="45" height="45" viewBox="0 0 45 45" fill="none" xmlns="http://www.w3.org/2000/svg">
<path d="M43.8158 10.5882H33.0987C32.5066 4.63235 28.0066 0 22.5 0C16.9934 0 12.4934 4.63235 11.9013 10.5882H1.18421C0.532895 10.5882 0 11.1838 0 11.9118V43.6765C0 44.4044 0.532895 45 1.18421 45H43.8158C44.4671 45 45 44.4044 45 43.6765V11.9118C45 11.1838 44.4671 10.5882 43.8158 10.5882ZM31.9737 19.8529C32.625 19.8529 33.1579 20.4485 33.1579 21.1765C33.1579 21.9044 32.625 22.5 31.9737 22.5C31.3224 22.5 30.7895 21.9044 30.7895 21.1765C30.7895 20.4485 31.3224 19.8529 31.9737 19.8529ZM22.5 2.64706C26.6447 2.64706 30.1382 6.08823 30.6711 10.5882H14.3289C14.8618 6.08823 18.3553 2.64706 22.5 2.64706ZM13.0263 19.8529C13.6776 19.8529 14.2105 20.4485 14.2105 21.1765C14.2105 21.9044 13.6776 22.5 13.0263 22.5C12.375 22.5 11.8421 21.9044 11.8421 21.1765C11.8421 20.4485 12.375 19.8529 13.0263 19.8529ZM42.6316 42.3529H2.36842V13.2353H11.8421V17.4044C10.4803 17.9338 9.47368 19.3897 9.47368 21.1765C9.47368 23.3603 11.0724 25.1471 13.0263 25.1471C14.9803 25.1471 16.5789 23.3603 16.5789 21.1765C16.5789 19.4559 15.5724 18 14.2105 17.4044V13.2353H30.7895V17.4044C29.4276 17.9338 28.4211 19.3897 28.4211 21.1765C28.4211 23.3603 30.0197 25.1471 31.9737 25.1471C33.9276 25.1471 35.5263 23.3603 35.5263 21.1765C35.5263 19.4559 34.5197 18 33.1579 17.4044V13.2353H42.6316V42.3529Z" fill="white"/>
</svg>
