<svg width="38" height="45" viewBox="0 0 38 45" fill="none" xmlns="http://www.w3.org/2000/svg">
<mask id="path-1-outside-1_1914_1055" maskUnits="userSpaceOnUse" x="-0.433105" y="4.76562" width="38" height="41" fill="black">
<rect fill="white" x="-0.433105" y="4.76562" width="38" height="41"/>
<path fill-rule="evenodd" clip-rule="evenodd" d="M18.525 9.03747C18.5388 9.03805 18.5528 9.03835 18.5669 9.03835C18.5809 9.03835 18.5949 9.03806 18.6086 9.03747C22.4031 9.08813 25.6566 16.0366 25.9787 24.347C24.6912 23.2934 22.7667 22.5384 20.5486 22.2533V19.7438C20.5486 19.2975 20.2198 19 19.7266 19C19.2334 19 18.9047 19.2975 18.9047 19.7438V22.1317C18.7925 22.1293 18.6799 22.1281 18.5669 22.1281C15.527 22.1281 12.8106 23.0987 11.1524 24.3972C11.4589 15.9412 14.72 9.0874 18.525 9.03747ZM18.9047 23.6201C18.7926 23.6172 18.68 23.6157 18.5669 23.6157C14.9966 23.6157 11.8727 24.9545 11.2776 26.7397C11.2077 26.8796 11.1048 26.9867 10.9845 27.0608C10.8549 27.2336 10.6452 27.3347 10.385 27.3347C10.1139 27.3347 9.89771 27.2249 9.76975 27.0387C9.6841 26.9421 9.64127 26.8195 9.64127 26.7397C9.04623 24.657 7.26111 23.1694 5.0297 23.1694C3.83962 23.1694 2.7983 23.6157 1.90574 24.3595C1.60822 24.5083 1.3107 24.657 1.01318 24.5083C0.715654 24.3595 0.566895 24.062 0.566895 23.7645C1.5801 14.7904 8.93085 7.92883 17.8231 7.56479V6.50943C17.8231 6.06315 18.1206 5.76562 18.5669 5.76562C19.0131 5.76562 19.3107 6.06315 19.3107 6.50943V7.56479C28.2029 7.92879 35.5537 14.7904 36.5669 23.7645C36.5669 24.062 36.4181 24.3595 36.1206 24.5083C35.8231 24.657 35.5256 24.657 35.2281 24.3595C34.3355 23.6157 33.2942 23.1694 32.1041 23.1694C30.0214 23.1694 28.0876 24.657 27.4925 26.7397C27.4925 26.8686 27.4366 26.9696 27.3612 27.0427C27.2487 27.2038 27.0696 27.3068 26.8459 27.3298C26.8288 27.3347 26.7964 27.3347 26.7487 27.3347H26.7487H26.6C26.3024 27.3347 26.0049 27.186 25.8562 26.8884C25.3747 25.4441 23.2379 24.1946 20.5486 23.7701L20.5486 40.2727C20.5486 42.5041 18.5759 44.2893 16.2743 44.2893C13.8084 44.2893 12 42.5041 12 40.4215V39.8264C12 39.3802 12.3288 39.0826 12.822 39.0826C13.3152 39.0826 13.644 39.3802 13.644 39.8264V40.2727C13.644 41.6116 14.7947 42.6529 16.2743 42.6529C17.7539 42.6529 18.9047 41.6116 18.9047 40.2727L18.9047 23.6201ZM14.3903 9.57685C11.7709 12.3278 9.96791 17.6293 9.6813 23.926C8.57539 22.5299 6.77528 21.6818 4.88094 21.6818C3.98838 21.6818 3.09582 21.9793 2.35202 22.2769C3.56879 16.0713 8.36846 11.1596 14.3903 9.57685ZM34.7818 22.2769C33.5674 16.0838 28.7846 11.1793 22.7797 9.58641C25.3918 12.3297 27.184 17.6115 27.4564 23.9927C28.5987 22.5569 30.3285 21.6818 32.2528 21.6818C33.1454 21.6818 34.038 21.8306 34.7818 22.2769Z"/>
</mask>
<path fill-rule="evenodd" clip-rule="evenodd" d="M18.525 9.03747C18.5388 9.03805 18.5528 9.03835 18.5669 9.03835C18.5809 9.03835 18.5949 9.03806 18.6086 9.03747C22.4031 9.08813 25.6566 16.0366 25.9787 24.347C24.6912 23.2934 22.7667 22.5384 20.5486 22.2533V19.7438C20.5486 19.2975 20.2198 19 19.7266 19C19.2334 19 18.9047 19.2975 18.9047 19.7438V22.1317C18.7925 22.1293 18.6799 22.1281 18.5669 22.1281C15.527 22.1281 12.8106 23.0987 11.1524 24.3972C11.4589 15.9412 14.72 9.0874 18.525 9.03747ZM18.9047 23.6201C18.7926 23.6172 18.68 23.6157 18.5669 23.6157C14.9966 23.6157 11.8727 24.9545 11.2776 26.7397C11.2077 26.8796 11.1048 26.9867 10.9845 27.0608C10.8549 27.2336 10.6452 27.3347 10.385 27.3347C10.1139 27.3347 9.89771 27.2249 9.76975 27.0387C9.6841 26.9421 9.64127 26.8195 9.64127 26.7397C9.04623 24.657 7.26111 23.1694 5.0297 23.1694C3.83962 23.1694 2.7983 23.6157 1.90574 24.3595C1.60822 24.5083 1.3107 24.657 1.01318 24.5083C0.715654 24.3595 0.566895 24.062 0.566895 23.7645C1.5801 14.7904 8.93085 7.92883 17.8231 7.56479V6.50943C17.8231 6.06315 18.1206 5.76562 18.5669 5.76562C19.0131 5.76562 19.3107 6.06315 19.3107 6.50943V7.56479C28.2029 7.92879 35.5537 14.7904 36.5669 23.7645C36.5669 24.062 36.4181 24.3595 36.1206 24.5083C35.8231 24.657 35.5256 24.657 35.2281 24.3595C34.3355 23.6157 33.2942 23.1694 32.1041 23.1694C30.0214 23.1694 28.0876 24.657 27.4925 26.7397C27.4925 26.8686 27.4366 26.9696 27.3612 27.0427C27.2487 27.2038 27.0696 27.3068 26.8459 27.3298C26.8288 27.3347 26.7964 27.3347 26.7487 27.3347H26.7487H26.6C26.3024 27.3347 26.0049 27.186 25.8562 26.8884C25.3747 25.4441 23.2379 24.1946 20.5486 23.7701L20.5486 40.2727C20.5486 42.5041 18.5759 44.2893 16.2743 44.2893C13.8084 44.2893 12 42.5041 12 40.4215V39.8264C12 39.3802 12.3288 39.0826 12.822 39.0826C13.3152 39.0826 13.644 39.3802 13.644 39.8264V40.2727C13.644 41.6116 14.7947 42.6529 16.2743 42.6529C17.7539 42.6529 18.9047 41.6116 18.9047 40.2727L18.9047 23.6201ZM14.3903 9.57685C11.7709 12.3278 9.96791 17.6293 9.6813 23.926C8.57539 22.5299 6.77528 21.6818 4.88094 21.6818C3.98838 21.6818 3.09582 21.9793 2.35202 22.2769C3.56879 16.0713 8.36846 11.1596 14.3903 9.57685ZM34.7818 22.2769C33.5674 16.0838 28.7846 11.1793 22.7797 9.58641C25.3918 12.3297 27.184 17.6115 27.4564 23.9927C28.5987 22.5569 30.3285 21.6818 32.2528 21.6818C33.1454 21.6818 34.038 21.8306 34.7818 22.2769Z" fill="white"/>
<path d="M18.525 9.03747L18.5463 8.53792L18.5324 8.53732L18.5184 8.53751L18.525 9.03747ZM18.6086 9.03747L18.6153 8.53751L18.6013 8.53733L18.5873 8.53792L18.6086 9.03747ZM25.9787 24.347L25.6621 24.7339L26.5213 25.437L26.4783 24.3276L25.9787 24.347ZM20.5486 22.2533H20.0486V22.6932L20.4849 22.7492L20.5486 22.2533ZM18.9047 22.1317L18.8941 22.6315L19.4047 22.6423V22.1317H18.9047ZM11.1524 24.3972L10.6527 24.3791L10.6137 25.4541L11.4606 24.7909L11.1524 24.3972ZM18.9047 23.6201H19.4047V23.1331L18.9178 23.1203L18.9047 23.6201ZM11.2776 26.7397L11.7249 26.9633L11.7407 26.9315L11.752 26.8978L11.2776 26.7397ZM10.9845 27.0608L10.7222 26.6351L10.6414 26.6849L10.5844 26.7608L10.9845 27.0608ZM9.76975 27.0387L10.1819 26.7555L10.1643 26.73L10.1438 26.7068L9.76975 27.0387ZM9.64127 26.7397H10.1413V26.6696L10.122 26.6023L9.64127 26.7397ZM1.90574 24.3595L2.12934 24.8067L2.18125 24.7808L2.22583 24.7436L1.90574 24.3595ZM1.01318 24.5083L1.23678 24.0611L1.23678 24.0611L1.01318 24.5083ZM0.566895 23.7645L0.0700512 23.7084L0.0668945 23.7363V23.7645H0.566895ZM17.8231 7.56479L17.8435 8.06437L18.3231 8.04474V7.56479H17.8231ZM19.3107 7.56479H18.8107V8.04474L19.2902 8.06437L19.3107 7.56479ZM36.5669 23.7645H37.0669V23.7363L37.0637 23.7084L36.5669 23.7645ZM36.1206 24.5083L35.897 24.0611L35.897 24.0611L36.1206 24.5083ZM35.2281 24.3595L35.5816 24.006L35.5656 23.9899L35.5481 23.9754L35.2281 24.3595ZM27.4925 26.7397L27.0118 26.6023L26.9925 26.6696V26.7397H27.4925ZM27.3612 27.0427L27.0133 26.6835L26.9787 26.717L26.9512 26.7565L27.3612 27.0427ZM26.8459 27.3298L26.7948 26.8324L26.7509 26.8369L26.7085 26.8491L26.8459 27.3298ZM25.8562 26.8884L25.3818 27.0465L25.393 27.0803L25.4089 27.112L25.8562 26.8884ZM20.5486 23.7701L20.6266 23.2762L20.0486 23.185V23.7701H20.5486ZM9.6813 23.926L9.28936 24.2365L10.12 25.2851L10.1808 23.9488L9.6813 23.926ZM14.3903 9.57685L14.7524 9.92163L15.9677 8.64525L14.2632 9.09327L14.3903 9.57685ZM2.35202 22.2769L1.86136 22.1807L1.68456 23.0824L2.53771 22.7411L2.35202 22.2769ZM22.7797 9.58641L22.9079 9.10312L21.197 8.64928L22.4176 9.9312L22.7797 9.58641ZM34.7818 22.2769L34.5245 22.7056L35.4888 23.2842L35.2724 22.1807L34.7818 22.2769ZM27.4564 23.9927L26.9568 24.0141L27.0139 25.352L27.8476 24.304L27.4564 23.9927ZM18.5669 8.53835C18.5598 8.53835 18.5529 8.5382 18.5463 8.53792L18.5037 9.53701C18.5247 9.53791 18.5457 9.53835 18.5669 9.53835V8.53835ZM18.5873 8.53792C18.5807 8.5382 18.5739 8.53835 18.5669 8.53835V9.53835C18.5879 9.53835 18.609 9.53791 18.6299 9.53702L18.5873 8.53792ZM26.4783 24.3276C26.3152 20.1193 25.41 16.2352 24.047 13.3794C23.3658 11.9521 22.5603 10.7611 21.6571 9.91699C20.7525 9.0717 19.7241 8.55232 18.6153 8.53751L18.6019 9.53742C19.3904 9.54795 20.1915 9.91612 20.9743 10.6476C21.7584 11.3803 22.4978 12.4553 23.1446 13.8102C24.4374 16.519 25.3201 20.2642 25.4791 24.3663L26.4783 24.3276ZM20.4849 22.7492C22.6374 23.0259 24.4656 23.755 25.6621 24.7339L26.2953 23.96C24.9167 22.8319 22.896 22.0509 20.6124 21.7574L20.4849 22.7492ZM20.0486 19.7438V22.2533H21.0486V19.7438H20.0486ZM19.7266 19.5C19.8737 19.5 19.9518 19.5434 19.9871 19.5753C20.0178 19.6031 20.0486 19.6503 20.0486 19.7438H21.0486C21.0486 19.3911 20.915 19.0663 20.6581 18.8338C20.4056 18.6054 20.0728 18.5 19.7266 18.5V19.5ZM19.4047 19.7438C19.4047 19.6503 19.4354 19.6031 19.4662 19.5753C19.5014 19.5434 19.5796 19.5 19.7266 19.5V18.5C19.3805 18.5 19.0476 18.6054 18.7952 18.8338C18.5383 19.0663 18.4047 19.3911 18.4047 19.7438H19.4047ZM19.4047 22.1317V19.7438H18.4047V22.1317H19.4047ZM18.5669 22.6281C18.6764 22.6281 18.7855 22.6293 18.8941 22.6315L18.9152 21.6318C18.7996 21.6293 18.6835 21.6281 18.5669 21.6281V22.6281ZM11.4606 24.7909C13.0187 23.5708 15.6222 22.6281 18.5669 22.6281V21.6281C15.4317 21.6281 12.6024 22.6267 10.8441 24.0036L11.4606 24.7909ZM18.5184 8.53751C17.4095 8.55206 16.3791 9.06318 15.4715 9.90221C14.5655 10.7397 13.758 11.9239 13.0758 13.3492C11.7108 16.2006 10.8079 20.0984 10.6527 24.3791L11.652 24.4153C11.8034 20.2401 12.6843 16.4829 13.9778 13.781C14.6247 12.4295 15.3651 11.3624 16.1503 10.6365C16.9339 9.91217 17.738 9.54784 18.5316 9.53742L18.5184 8.53751ZM18.5669 24.1157C18.6756 24.1157 18.7838 24.1171 18.8915 24.12L18.9178 23.1203C18.8013 23.1173 18.6843 23.1157 18.5669 23.1157V24.1157ZM11.752 26.8978C11.982 26.2077 12.75 25.5051 14.0035 24.9678C15.2345 24.4403 16.8397 24.1157 18.5669 24.1157V23.1157C16.7239 23.1157 14.9819 23.4606 13.6096 24.0487C12.2598 24.6272 11.1683 25.4865 10.8033 26.5816L11.752 26.8978ZM11.2467 27.4865C11.4431 27.3655 11.6116 27.1898 11.7249 26.9633L10.8304 26.5161C10.8037 26.5695 10.7664 26.6078 10.7222 26.6351L11.2467 27.4865ZM10.385 27.8347C10.7799 27.8347 11.1476 27.6766 11.3845 27.3607L10.5844 26.7608C10.5621 26.7906 10.5105 26.8347 10.385 26.8347V27.8347ZM9.35764 27.3218C9.59144 27.6621 9.97273 27.8347 10.385 27.8347V26.8347C10.2551 26.8347 10.204 26.7877 10.1819 26.7555L9.35764 27.3218ZM9.14127 26.7397C9.14127 26.9577 9.24016 27.1951 9.39574 27.3705L10.1438 26.7068C10.1434 26.7064 10.1421 26.7048 10.1404 26.702C10.1387 26.6992 10.1374 26.6965 10.1366 26.6947C10.1358 26.6927 10.1364 26.6937 10.1375 26.6986C10.1381 26.7012 10.139 26.7057 10.1397 26.7121C10.1405 26.7183 10.1413 26.7276 10.1413 26.7397H9.14127ZM5.0297 23.6694C7.01912 23.6694 8.62149 24.9905 9.16051 26.877L10.122 26.6023C9.47097 24.3236 7.5031 22.6694 5.0297 22.6694V23.6694ZM2.22583 24.7436C3.04377 24.062 3.97499 23.6694 5.0297 23.6694V22.6694C3.70425 22.6694 2.55283 23.1694 1.58565 23.9754L2.22583 24.7436ZM0.789567 24.9555C1.07301 25.0972 1.35056 25.0881 1.58072 25.0305C1.79266 24.9775 1.99201 24.8754 2.12934 24.8067L1.68213 23.9123C1.52195 23.9924 1.42378 24.039 1.33819 24.0604C1.27083 24.0772 1.25086 24.0681 1.23678 24.0611L0.789567 24.9555ZM0.0668945 23.7645C0.0668945 24.2236 0.299199 24.7103 0.789569 24.9555L1.23678 24.0611C1.13211 24.0087 1.06689 23.9003 1.06689 23.7645H0.0668945ZM17.8026 7.06521C8.66102 7.43946 1.1106 14.4921 0.0700512 23.7084L1.06374 23.8206C2.0496 15.0887 9.20068 8.4182 17.8435 8.06437L17.8026 7.06521ZM17.3231 6.50943V7.56479H18.3231V6.50943H17.3231ZM18.5669 5.26562C18.2301 5.26562 17.9106 5.38006 17.674 5.61662C17.4375 5.85317 17.3231 6.17266 17.3231 6.50943H18.3231C18.3231 6.39991 18.3574 6.3475 18.3812 6.32372C18.4049 6.29995 18.4573 6.26562 18.5669 6.26562V5.26562ZM19.8107 6.50943C19.8107 6.17266 19.6962 5.85317 19.4597 5.61662C19.2231 5.38006 18.9036 5.26562 18.5669 5.26562V6.26562C18.6764 6.26562 18.7288 6.29995 18.7526 6.32372C18.7763 6.3475 18.8107 6.39991 18.8107 6.50943H19.8107ZM19.8107 7.56479V6.50943H18.8107V7.56479H19.8107ZM37.0637 23.7084C36.0232 14.4921 28.4727 7.43942 19.3311 7.0652L19.2902 8.06437C27.9331 8.41816 35.0842 15.0886 36.07 23.8206L37.0637 23.7084ZM36.3442 24.9555C36.8346 24.7103 37.0669 24.2236 37.0669 23.7645H36.0669C36.0669 23.9003 36.0017 24.0087 35.897 24.0611L36.3442 24.9555ZM34.8745 24.7131C35.0844 24.923 35.331 25.0622 35.6123 25.0974C35.8882 25.1319 36.1378 25.0587 36.3442 24.9555L35.897 24.0611C35.8059 24.1066 35.758 24.1078 35.7364 24.1051C35.7202 24.1031 35.6692 24.0936 35.5816 24.006L34.8745 24.7131ZM32.1041 23.6694C33.1588 23.6694 34.09 24.062 34.908 24.7436L35.5481 23.9754C34.581 23.1694 33.4295 22.6694 32.1041 22.6694V23.6694ZM27.9733 26.877C28.5097 24.9996 30.2543 23.6694 32.1041 23.6694V22.6694C29.7886 22.6694 27.6654 24.3144 27.0118 26.6023L27.9733 26.877ZM27.709 27.4019C27.8637 27.252 27.9925 27.0271 27.9925 26.7397H26.9925C26.9925 26.7297 26.9951 26.7156 27.0015 26.7019C27.0072 26.6896 27.0129 26.6839 27.0133 26.6835L27.709 27.4019ZM26.897 27.8272C27.2505 27.7909 27.5673 27.621 27.7711 27.3289L26.9512 26.7565C26.9302 26.7866 26.8888 26.8228 26.7948 26.8324L26.897 27.8272ZM26.7487 27.8347C26.7691 27.8347 26.7999 27.8348 26.8276 27.8337C26.846 27.833 26.9116 27.8311 26.9833 27.8106L26.7085 26.8491C26.7259 26.8441 26.7404 26.8411 26.7507 26.8393C26.7611 26.8374 26.7694 26.8363 26.7749 26.8357C26.7853 26.8346 26.7913 26.8344 26.7899 26.8345C26.789 26.8345 26.7855 26.8346 26.7778 26.8347C26.7701 26.8347 26.7611 26.8347 26.7487 26.8347V27.8347ZM26.7487 27.8347H26.7487V26.8347H26.7487V27.8347ZM26.6 27.8347H26.7487V26.8347H26.6V27.8347ZM25.4089 27.112C25.6541 27.6024 26.1408 27.8347 26.6 27.8347V26.8347C26.4641 26.8347 26.3557 26.7695 26.3034 26.6648L25.4089 27.112ZM20.4707 24.264C21.7644 24.4682 22.9094 24.8689 23.7773 25.3781C24.6563 25.8938 25.1951 26.4864 25.3818 27.0465L26.3305 26.7303C26.0358 25.8462 25.2655 25.0918 24.2834 24.5156C23.2901 23.9328 22.0221 23.4965 20.6266 23.2762L20.4707 24.264ZM20.0486 23.7701L20.0486 40.2727H21.0486L21.0486 23.7701H20.0486ZM20.0486 40.2727C20.0486 42.1938 18.3352 43.7893 16.2743 43.7893V44.7893C18.8165 44.7893 21.0486 42.8145 21.0486 40.2727H20.0486ZM16.2743 43.7893C14.0494 43.7893 12.5 42.1941 12.5 40.4215H11.5C11.5 42.8141 13.5674 44.7893 16.2743 44.7893V43.7893ZM12.5 40.4215V39.8264H11.5V40.4215H12.5ZM12.5 39.8264C12.5 39.7329 12.5308 39.6857 12.5615 39.6579C12.5968 39.626 12.6749 39.5826 12.822 39.5826V38.5826C12.4759 38.5826 12.143 38.688 11.8906 38.9164C11.6336 39.149 11.5 39.4737 11.5 39.8264H12.5ZM12.822 39.5826C12.969 39.5826 13.0472 39.626 13.0824 39.6579C13.1132 39.6857 13.144 39.7329 13.144 39.8264H14.144C14.144 39.4737 14.0104 39.149 13.7534 38.9164C13.501 38.688 13.1681 38.5826 12.822 38.5826V39.5826ZM13.144 39.8264V40.2727H14.144V39.8264H13.144ZM13.144 40.2727C13.144 41.9336 14.5668 43.1529 16.2743 43.1529V42.1529C15.0227 42.1529 14.144 41.2896 14.144 40.2727H13.144ZM16.2743 43.1529C17.9818 43.1529 19.4047 41.9336 19.4047 40.2727H18.4047C18.4047 41.2896 17.5259 42.1529 16.2743 42.1529V43.1529ZM19.4047 40.2727L19.4047 23.6201H18.4047L18.4047 40.2727H19.4047ZM10.1808 23.9488C10.4649 17.7068 12.2523 12.5473 14.7524 9.92163L14.0282 9.23206C11.2894 12.1084 9.47092 17.5518 9.18181 23.9033L10.1808 23.9488ZM4.88094 22.1818C6.63178 22.1818 8.28388 22.9671 9.28936 24.2365L10.0732 23.6156C8.8669 22.0926 6.91879 21.1818 4.88094 21.1818V22.1818ZM2.53771 22.7411C3.27025 22.4481 4.08861 22.1818 4.88094 22.1818V21.1818C3.88815 21.1818 2.92139 21.5106 2.16632 21.8126L2.53771 22.7411ZM14.2632 9.09327C8.06302 10.7229 3.11642 15.7799 1.86136 22.1807L2.84268 22.3731C4.02117 16.3628 8.67391 11.5963 14.5174 10.0604L14.2632 9.09327ZM22.6515 10.0697C28.4785 11.6154 33.115 16.3748 34.2911 22.3731L35.2724 22.1807C34.0199 15.7927 29.0906 10.7432 22.9079 9.10312L22.6515 10.0697ZM27.9559 23.9714C27.6813 17.5359 25.8741 12.1111 23.1418 9.24162L22.4176 9.9312C24.9095 12.5483 26.6868 17.6871 26.9568 24.0141L27.9559 23.9714ZM32.2528 21.1818C30.1726 21.1818 28.3 22.1292 27.0651 23.6814L27.8476 24.304C28.8973 22.9847 30.4844 22.1818 32.2528 22.1818V21.1818ZM35.039 21.8481C34.1876 21.3373 33.1933 21.1818 32.2528 21.1818V22.1818C33.0975 22.1818 33.8883 22.3239 34.5245 22.7056L35.039 21.8481Z" fill="white" mask="url(#path-1-outside-1_1914_1055)"/>
<path d="M32 4C32 5.10457 31.1046 6 30 6C28.8954 6 28 5.10457 28 4C28 2.89543 28.8954 0 30 0C31.1046 0 32 2.89543 32 4Z" fill="white"/>
</svg>
