<svg width="48" height="47" viewBox="0 0 48 47" fill="none" xmlns="http://www.w3.org/2000/svg">
<g clip-path="url(#clip0_1832_2558)">
<path d="M36.8399 12.1835C35.6179 9.43396 33.5089 7.15265 30.8361 5.68909C28.1632 4.22553 25.074 3.66046 22.0419 4.08048C19.0097 4.5005 16.2018 5.88243 14.0484 8.01451C11.8951 10.1466 10.5151 12.9112 10.1199 15.8847C8.37475 16.2978 6.82224 17.2738 5.71218 18.6556C4.60211 20.0373 3.99901 21.7446 3.99992 23.5026C3.99635 24.6119 4.23341 25.7092 4.69542 26.722C5.15743 27.7348 5.83385 28.64 6.67992 29.3776C6.87463 29.5607 7.10519 29.7034 7.35771 29.7969C7.61023 29.8904 7.87948 29.933 8.14922 29.9219C8.41897 29.9108 8.68363 29.8463 8.92726 29.7324C9.17088 29.6185 9.38843 29.4574 9.56679 29.259C9.74515 29.0605 9.88062 28.8288 9.96505 28.5777C10.0495 28.3266 10.0811 28.0613 10.058 27.7979C10.035 27.5345 9.95769 27.2785 9.83083 27.0451C9.70398 26.8117 9.53018 26.6059 9.31992 26.4401C8.90052 26.0695 8.56606 25.6161 8.33854 25.1098C8.11102 24.6035 7.99562 24.0558 7.99992 23.5026C7.99992 22.4639 8.42134 21.4676 9.17149 20.7331C9.92164 19.9986 10.9391 19.586 11.9999 19.586C12.5304 19.586 13.0391 19.3796 13.4141 19.0124C13.7892 18.6451 13.9999 18.147 13.9999 17.6276C14.005 15.3115 14.8485 13.0721 16.3805 11.3073C17.9124 9.54247 20.0337 8.36657 22.3674 7.98846C24.7011 7.61035 27.0962 8.05452 29.1271 9.24205C31.1579 10.4296 32.6931 12.2836 33.4599 14.4747C33.5742 14.8112 33.7797 15.111 34.0545 15.3421C34.3292 15.5732 34.6629 15.7269 35.0199 15.7868C36.4082 16.0213 37.668 16.7267 38.5785 17.7793C39.4891 18.832 39.9922 20.1648 39.9999 21.5443C40.0305 22.9862 39.5016 24.3858 38.5199 25.461C38.2006 25.8503 38.0453 26.3443 38.0856 26.8421C38.1259 27.3399 38.359 27.8037 38.737 28.1389C39.115 28.474 39.6095 28.6551 40.1193 28.6451C40.6292 28.6351 41.1159 28.4348 41.4799 28.0851C42.5815 26.8525 43.3497 25.3689 43.7142 23.7703C44.0787 22.1717 44.0277 20.509 43.5661 18.9347C43.1044 17.3603 42.2468 15.9245 41.0717 14.7587C39.8966 13.5929 38.4416 12.7344 36.8399 12.2618V12.1835Z" fill="white"/>
<path d="M18.2951 35.1656L18.4188 32.4178L16.1007 33.9089L15.391 32.6717L17.8523 31.415L15.391 30.1583L16.1007 28.9211L18.4188 30.4122L18.2951 27.6643H19.7081L19.5844 30.4122L21.9025 28.9211L22.6123 30.1583L20.1509 31.415L22.6123 32.6717L21.9025 33.9089L19.5844 32.4178L19.7081 35.1656H18.2951Z" fill="white"/>
<path d="M29.1753 32.1738L29.32 28.9588L26.6079 30.7034L25.7774 29.2559L28.6572 27.7855L25.7774 26.3152L26.6079 24.8676L29.32 26.6123L29.1753 23.3973H30.8285L30.6838 26.6123L33.396 24.8676L34.2264 26.3152L31.3466 27.7855L34.2264 29.2559L33.396 30.7034L30.6838 28.9588L30.8285 32.1738H29.1753Z" fill="white"/>
<path d="M26.4234 42.2273L26.5246 39.9794L24.6283 41.1992L24.0477 40.1871L26.0612 39.1591L24.0477 38.131L24.6283 37.119L26.5246 38.3388L26.4234 36.0909H27.5793L27.4781 38.3388L29.3744 37.119L29.955 38.131L27.9415 39.1591L29.955 40.1871L29.3744 41.1992L27.4781 39.9794L27.5793 42.2273H26.4234Z" fill="white"/>
</g>
<defs>
<clipPath id="clip0_1832_2558">
<rect width="48" height="47" fill="white"/>
</clipPath>
</defs>
</svg>
