<svg width="44" height="44" viewBox="0 0 44 44" fill="none" xmlns="http://www.w3.org/2000/svg">
<path d="M22 0C20.46 0 19.25 1.21 19.25 2.75C19.25 4.29 20.46 5.5 22 5.5C23.54 5.5 24.75 4.29 24.75 2.75C24.75 1.21 23.54 0 22 0ZM8.25 5.5C6.71 5.5 5.5 6.71 5.5 8.25C5.5 9.79 6.71 11 8.25 11C9.79 11 11 9.79 11 8.25C11 6.71 9.79 5.5 8.25 5.5ZM35.75 5.5C34.21 5.5 33 6.71 33 8.25C33 9.79 34.21 11 35.75 11C37.29 11 38.5 9.79 38.5 8.25C38.5 6.71 37.29 5.5 35.75 5.5ZM22 11C15.95 11 11 15.95 11 22C11 28.05 15.95 33 22 33C28.05 33 33 28.05 33 22C33 15.95 28.05 11 22 11ZM2.75 19.25C1.21 19.25 0 20.46 0 22C0 23.54 1.21 24.75 2.75 24.75C4.29 24.75 5.5 23.54 5.5 22C5.5 20.46 4.29 19.25 2.75 19.25ZM41.25 19.25C39.71 19.25 38.5 20.46 38.5 22C38.5 23.54 39.71 24.75 41.25 24.75C42.79 24.75 44 23.54 44 22C44 20.46 42.79 19.25 41.25 19.25ZM8.25 33C6.71 33 5.5 34.21 5.5 35.75C5.5 37.29 6.71 38.5 8.25 38.5C9.79 38.5 11 37.29 11 35.75C11 34.21 9.79 33 8.25 33ZM35.75 33C34.21 33 33 34.21 33 35.75C33 37.29 34.21 38.5 35.75 38.5C37.29 38.5 38.5 37.29 38.5 35.75C38.5 34.21 37.29 33 35.75 33ZM22 38.5C20.46 38.5 19.25 39.71 19.25 41.25C19.25 42.79 20.46 44 22 44C23.54 44 24.75 42.79 24.75 41.25C24.75 39.71 23.54 38.5 22 38.5Z" fill="white"/>
</svg>
