<svg width="145" height="145" viewBox="0 0 145 145" fill="none" xmlns="http://www.w3.org/2000/svg">
<circle cx="72.4873" cy="72.4881" r="52.5985" transform="rotate(116.345 72.4873 72.4881)" fill="#FF0000" stroke="#D1D1D1" stroke-width="3"/>
<g clip-path="url(#clip0_1800_1312)">
<path d="M40.1865 56.4531C49.0124 38.622 70.6893 31.3469 88.582 40.2115C106.384 49.0311 113.62 70.7211 104.741 88.6349C95.9408 106.39 74.2377 113.611 56.3466 104.744C38.634 95.9642 31.3701 74.2565 40.1865 56.4531ZM103.605 83.5894C105.731 78.2024 106.798 69.5014 103.357 60.6137C100.768 53.9228 96.4493 48.6189 90.3975 44.6599C90.0481 45.2186 89.7535 45.7154 89.4362 46.2011C89.1189 46.6867 88.7854 47.1643 88.4551 47.6435C88.1071 48.1503 87.4433 48.6827 87.4872 49.1491C87.5328 49.6285 88.265 50.0437 88.7025 50.4827C89.2441 51.0298 89.7858 51.5769 90.3485 52.1467C89.6852 52.8167 89.0833 53.4282 88.4458 54.0706C87.4749 53.1249 86.5317 52.2051 85.6389 51.3304C83.6723 53.0893 81.7365 54.819 79.7505 56.5926C80.364 57.7048 81.0166 58.8931 81.6904 60.1121C80.8707 60.5673 80.1061 60.9931 79.3106 61.432C78.6614 60.2777 78.0366 59.1638 77.4559 58.1324C75.0577 59.3016 72.7226 60.4415 70.2517 61.6434C70.6986 62.8389 71.1749 64.1138 71.6006 65.2543C70.6654 65.5836 69.8273 65.88 68.8824 66.2125C68.4516 64.9683 68.0076 63.6853 67.5963 62.4912C65.0286 62.9579 62.4091 63.4314 59.7409 63.9131C59.8897 65.1146 60.0502 66.3988 60.2141 67.7169C59.2732 67.8372 58.4085 67.9507 57.5163 68.0627C57.3292 66.6199 57.1523 65.271 56.9887 64.0176C54.3453 63.7556 51.7651 63.4966 49.1459 63.2345C48.9354 64.5249 48.7202 65.8575 48.5019 67.2209C47.5811 67.0721 46.7202 66.9328 45.8189 66.7856C46.0449 65.3169 46.2615 63.9163 46.4781 62.5157C44.8152 61.9307 43.1961 61.3634 41.4846 60.7625C41.1118 62.0049 40.6661 63.2152 40.3825 64.4573C37.8559 75.6087 40.2822 85.5745 47.6356 94.3257C49.3478 96.3621 51.3618 98.0749 53.5225 99.6219C53.9319 99.9136 54.1472 99.8706 54.3884 99.408C54.7117 98.7878 55.108 98.1998 55.4994 97.6216C56.1035 96.7282 56.7337 95.8557 57.3766 94.9411C56.2382 93.8195 55.116 92.7141 53.9597 91.5715C54.6198 90.9079 55.2476 90.2769 55.8802 89.6361C57.0072 90.74 58.0854 91.7954 59.0937 92.7798C61.0554 91.0225 62.9444 89.3303 64.8593 87.6186C64.1382 86.3155 63.391 84.9672 62.6259 83.5898C63.4342 83.1411 64.2151 82.7072 65.0121 82.2651C65.7593 83.6053 66.4722 84.876 67.1361 86.0658C69.5634 84.8787 71.9356 83.7209 74.4551 82.4864C73.9396 81.1436 73.3832 79.7039 72.8922 78.4258C73.8629 78.0657 74.6977 77.7595 75.5568 77.4451C76.0419 78.8739 76.5318 80.3171 76.9923 81.6811C79.5341 81.2096 82.0678 80.7381 84.6274 80.2633C84.4536 78.8755 84.2747 77.4489 84.0893 75.9866C85.0171 75.868 85.8867 75.7529 86.7887 75.6376C86.9956 77.2116 87.1959 78.7338 87.3811 80.1312C90.0212 80.3673 92.5446 80.5942 95.1134 80.8273C95.3397 79.4234 95.5707 77.9855 95.8144 76.481C96.7174 76.625 97.5798 76.761 98.499 76.9049C98.254 78.4936 98.0217 80.0239 97.7909 81.5266C98.8307 81.8677 99.7894 82.1605 100.735 82.4955C101.696 82.8336 102.643 83.214 103.596 83.5765L103.605 83.5894ZM94.6962 83.5475C92.3445 83.3248 90.0869 83.1164 87.7498 82.897C87.9186 84.2459 88.0657 85.4102 88.2161 86.6166C87.2801 86.7352 86.4122 86.8471 85.5151 86.9607C85.3432 85.6588 85.1764 84.412 85.0045 83.1181C82.5573 83.3252 80.2 83.7344 77.7192 84.4828C78.1611 85.6395 78.58 86.7363 78.9188 87.6277C78.0292 88.0118 77.227 88.3584 76.3277 88.7458C75.9472 87.5549 75.5947 86.4545 75.1847 85.1762C72.937 86.2865 70.7346 87.3708 68.4836 88.4795C69.1672 89.7195 69.7676 90.8011 70.3957 91.9408C69.5793 92.3895 68.8016 92.817 68.0111 93.2542C67.4108 92.1888 66.8561 91.1946 66.2069 90.0403C64.6409 91.4883 63.1509 92.8808 61.643 94.2524C61.2087 94.6477 61.166 94.9217 61.6504 95.3395C62.3851 95.9701 63.0424 96.6918 63.7596 97.3986C63.0866 98.0801 62.475 98.6948 61.8423 99.3356C60.9983 98.5093 60.2145 97.7412 59.3932 96.9342C59.2368 97.1195 59.0947 97.2594 58.99 97.4218C58.2104 98.5881 57.4551 99.7704 56.656 100.927C56.3724 101.336 56.5172 101.501 56.8922 101.699C59.1585 102.886 61.5114 103.865 63.999 104.474C74.9452 107.154 84.8406 104.952 93.6352 97.927C97.4405 94.8875 100.289 91.0547 102.402 86.6722C102.571 86.3233 102.541 86.1306 102.158 85.9895C101.387 85.7008 100.636 85.357 99.8622 85.0829C99.0575 84.7977 98.2352 84.5643 97.3625 84.2857C97.1598 85.5113 96.973 86.6478 96.7767 87.8361C95.8429 87.689 94.9886 87.5529 94.097 87.4106C94.293 86.1412 94.4796 84.94 94.6929 83.554L94.6962 83.5475ZM73.9336 51.7756C74.729 51.3367 75.5098 50.9028 76.3182 50.4541C77.0082 51.6812 77.664 52.8467 78.4046 54.1675C80.1999 52.5421 81.9113 50.9883 83.676 49.3922C82.5717 48.2915 81.5845 47.3135 80.5745 46.3081C81.2362 45.6413 81.8495 45.0233 82.4821 44.3825C83.4546 45.333 84.3848 46.2383 85.4077 47.234C86.3033 45.8988 87.1668 44.6205 88.0834 43.2512C78.7174 38.5969 69.3088 38.0612 59.7684 41.9716C52.0169 45.1509 46.366 50.6438 42.5928 58.2551C44.0935 58.784 45.4757 59.2744 46.9147 59.7808C47.1378 58.3996 47.3388 57.1611 47.5445 55.8723C48.4653 56.0211 49.3391 56.1586 50.2307 56.301C50.0141 57.7098 49.8087 59.0471 49.581 60.5191C51.9555 60.7692 54.2424 61.0083 56.633 61.2583C56.4426 59.7572 56.2755 58.4374 56.1018 57.0901C57.0378 56.9715 57.9025 56.858 58.8077 56.7444C58.9997 58.2098 59.1833 59.6105 59.3735 61.055C61.9537 60.8652 64.4033 60.441 67.0378 59.6516C66.5029 58.3317 66.0008 57.0926 65.5428 55.9603C66.4957 55.6034 67.3127 55.3005 68.162 54.9813C68.5995 56.2612 69.0354 57.5281 69.4843 58.8419C71.7816 57.9906 73.9648 56.9372 76.0544 55.599C75.3431 54.317 74.6612 53.09 73.9254 51.7675L73.9336 51.7756Z" fill="white"/>
</g>
<defs>
<clipPath id="clip0_1800_1312">
<rect width="72.1314" height="72.1314" fill="white" transform="translate(120.815 56.1738) rotate(116.345)"/>
</clipPath>
</defs>
</svg>
